<?xml version="1.0" encoding="UTF-8" standalone="no"?>
<!-- Generator: Adobe Illustrator 14.0.0, SVG Export Plug-In . SVG Version: 6.00 Build 43363)  -->

<svg
   xmlns:dc="http://purl.org/dc/elements/1.1/"
   xmlns:cc="http://creativecommons.org/ns#"
   xmlns:rdf="http://www.w3.org/1999/02/22-rdf-syntax-ns#"
   xmlns:svg="http://www.w3.org/2000/svg"
   xmlns="http://www.w3.org/2000/svg"
   xmlns:sodipodi="http://sodipodi.sourceforge.net/DTD/sodipodi-0.dtd"
   xmlns:inkscape="http://www.inkscape.org/namespaces/inkscape"
   version="1.1"
   id="Layer_1"
   x="0px"
   y="0px"
   width="311.96799"
   height="83.231003"
   viewBox="0 0 311.96799 83.231003"
   enable-background="new 0 0 612 792"
   xml:space="preserve"
   inkscape:version="0.48.3.1 r9886"
   sodipodi:docname="pylons-positive.svg"><metadata
   id="metadata3026"><rdf:RDF><cc:Work
       rdf:about=""><dc:format>image/svg+xml</dc:format><dc:type
         rdf:resource="http://purl.org/dc/dcmitype/StillImage" /></cc:Work></rdf:RDF></metadata><defs
   id="defs3024" /><sodipodi:namedview
   pagecolor="#ffffff"
   bordercolor="#666666"
   borderopacity="1"
   objecttolerance="10"
   gridtolerance="10"
   guidetolerance="10"
   inkscape:pageopacity="0"
   inkscape:pageshadow="2"
   inkscape:window-width="1280"
   inkscape:window-height="968"
   id="namedview3022"
   showgrid="false"
   fit-margin-top="0"
   fit-margin-left="0"
   fit-margin-right="0"
   fit-margin-bottom="0"
   inkscape:zoom="1"
   inkscape:cx="155.942"
   inkscape:cy="41.818"
   inkscape:window-x="1916"
   inkscape:window-y="-4"
   inkscape:window-maximized="1"
   inkscape:current-layer="Layer_1" />
<g
   id="g2986"
   transform="translate(-150.058,-354.587)">
	<path
   d="m 452.914,389.761 v -4.758 h -1.699 v -0.969 h 4.551 v 0.969 h -1.695 v 4.758 h -1.157 z"
   id="path2988"
   inkscape:connector-curvature="0"
   style="fill:#010101" />
	<path
   d="m 456.496,389.761 v -5.727 h 1.73 l 1.039,3.906 1.027,-3.906 h 1.734 v 5.727 h -1.074 v -4.508 l -1.137,4.508 h -1.113 l -1.133,-4.508 v 4.508 h -1.073 z"
   id="path2990"
   inkscape:connector-curvature="0"
   style="fill:#010101" />
</g>
<linearGradient
   id="SVGID_1_"
   gradientUnits="userSpaceOnUse"
   x1="192.1611"
   y1="355.05569"
   x2="192.1611"
   y2="437.7731"
   gradientTransform="translate(-150.058,-354.587)">
	<stop
   offset="0"
   style="stop-color:#46494D"
   id="stop2993" />
	<stop
   offset="1"
   style="stop-color:#010101"
   id="stop2995" />
</linearGradient>
<path
   d="m 84.206,63.639 c 0,10.818 -8.772,19.592 -19.591,19.592 H 19.59 C 8.772,83.231 0,74.458 0,63.639 V 19.592 C 0,8.77 8.771,0 19.59,0 h 45.025 c 10.818,0 19.591,8.77 19.591,19.592 v 44.047 z"
   id="path2997"
   inkscape:connector-curvature="0"
   style="fill:url(#SVGID_1_)" />
<linearGradient
   id="SVGID_2_"
   gradientUnits="userSpaceOnUse"
   x1="192.1606"
   y1="375.11819"
   x2="192.1606"
   y2="410.63809">
	<stop
   offset="0"
   style="stop-color:#F7E9BE"
   id="stop3000" />
	<stop
   offset="0.5092"
   style="stop-color:#F7CA40"
   id="stop3002" />
	<stop
   offset="0.865"
   style="stop-color:#EF9A21"
   id="stop3004" />
</linearGradient>
<circle
   cx="192.161"
   cy="393.013"
   r="17.622"
   id="circle3006"
   sodipodi:cx="192.161"
   sodipodi:cy="393.013"
   sodipodi:rx="17.622"
   sodipodi:ry="17.622"
   style="fill:url(#SVGID_2_)"
   transform="translate(-150.058,-354.587)" />
<path
   d="m 62.979,38.967 c -7.049,0 -9.76,15.184 -20.876,15.184 -11.115,0 -13.826,-15.184 -20.876,-15.184 -2.44,0 -3.523,2.17 -3.523,2.17 v 17.621 h 48.8 V 41.137 c -0.001,0 -1.085,-2.17 -3.525,-2.17 z"
   id="path3008"
   inkscape:connector-curvature="0"
   style="fill:#ffffff;stroke:#231f20" />
<path
   d="m 114.997,19.572 c 2.709,-0.451 6.254,-0.838 10.768,-0.838 5.543,0 9.605,1.289 12.184,3.61 2.321,2.063 3.804,5.222 3.804,9.09 0,3.933 -1.16,7.027 -3.353,9.283 -3.029,3.159 -7.801,4.771 -13.28,4.771 -1.677,0 -3.224,-0.064 -4.513,-0.387 v 17.406 h -5.609 V 19.572 z m 5.609,20.952 c 1.225,0.323 2.771,0.452 4.642,0.452 6.77,0 10.896,-3.353 10.896,-9.22 0,-5.802 -4.126,-8.574 -10.25,-8.574 -2.451,0 -4.32,0.193 -5.287,0.451 v 16.891 z"
   id="path3010"
   inkscape:connector-curvature="0"
   style="fill:#010101" />
<path
   d="m 152.405,31.306 6.77,18.438 c 0.773,2.062 1.547,4.513 2.062,6.382 h 0.129 c 0.58,-1.869 1.227,-4.255 2,-6.511 l 6.188,-18.31 h 5.996 l -8.51,22.242 c -4.061,10.701 -6.834,16.117 -10.701,19.534 -2.837,2.385 -5.545,3.352 -6.963,3.609 l -1.418,-4.706 c 1.418,-0.451 3.287,-1.354 4.964,-2.771 1.547,-1.226 3.417,-3.417 4.771,-6.318 0.258,-0.58 0.451,-1.031 0.451,-1.354 0,-0.323 -0.129,-0.773 -0.451,-1.483 L 146.217,31.305 h 6.188 z"
   id="path3012"
   inkscape:connector-curvature="0"
   style="fill:#010101" />
<path
   d="m 181.82,16.736 h 5.674 V 62.508 H 181.82 V 16.736 z"
   id="path3014"
   inkscape:connector-curvature="0"
   style="fill:#010101" />
<path
   d="m 227.899,46.649 c 0,11.54 -8.059,16.568 -15.537,16.568 -8.381,0 -14.957,-6.188 -14.957,-16.053 0,-10.379 6.898,-16.504 15.473,-16.504 8.96,0.001 15.021,6.513 15.021,15.989 z m -24.691,0.323 c 0,6.834 3.867,11.991 9.412,11.991 5.416,0 9.477,-5.093 9.477,-12.12 0,-5.286 -2.643,-11.927 -9.348,-11.927 -6.641,0 -9.541,6.189 -9.541,12.056 z"
   id="path3016"
   inkscape:connector-curvature="0"
   style="fill:#010101" />
<path
   d="m 238.068,39.751 c 0,-3.288 -0.064,-5.866 -0.258,-8.445 h 5.029 l 0.322,5.157 h 0.129 c 1.547,-2.9 5.158,-5.802 10.314,-5.802 4.32,0 11.025,2.579 11.025,13.28 v 18.567 h -5.674 V 44.522 c 0,-5.029 -1.869,-9.22 -7.221,-9.22 -3.674,0 -6.576,2.644 -7.607,5.803 -0.258,0.709 -0.387,1.676 -0.387,2.643 v 18.761 h -5.674 V 39.751 z"
   id="path3018"
   inkscape:connector-curvature="0"
   style="fill:#010101" />
<path
   d="m 274.009,56.771 c 1.74,1.031 4.705,2.191 7.543,2.191 4.061,0 5.994,-1.998 5.994,-4.642 0,-2.708 -1.611,-4.126 -5.736,-5.673 -5.674,-2.063 -8.316,-5.094 -8.316,-8.833 0,-5.028 4.125,-9.154 10.766,-9.154 3.158,0 5.932,0.838 7.607,1.935 l -1.354,4.126 c -1.225,-0.774 -3.482,-1.87 -6.383,-1.87 -3.352,0 -5.158,1.935 -5.158,4.255 0,2.579 1.807,3.739 5.867,5.352 5.352,1.998 8.188,4.706 8.188,9.348 0,5.544 -4.318,9.412 -11.604,9.412 -3.418,0 -6.576,-0.902 -8.768,-2.191 l 1.354,-4.256 z"
   id="path3020"
   inkscape:connector-curvature="0"
   style="fill:#010101" />
</svg>