<?xml version="1.0" encoding="UTF-8"?>
<svg width="105.57mm" height="105.6mm" version="1.1" viewBox="0 0 105.57 105.6" xmlns="http://www.w3.org/2000/svg" xmlns:cc="http://creativecommons.org/ns#" xmlns:dc="http://purl.org/dc/elements/1.1/" xmlns:rdf="http://www.w3.org/1999/02/22-rdf-syntax-ns#">
 <metadata>
  <rdf:RDF>
   <cc:Work rdf:about="">
    <dc:format>image/svg+xml</dc:format>
    <dc:type rdf:resource="http://purl.org/dc/dcmitype/StillImage"/>
    <dc:title/>
   </cc:Work>
  </rdf:RDF>
 </metadata>
 <g transform="translate(-73.304 -179.77)">
  <g transform="translate(22.523 146.38)" stroke-width=".26458">
   <path d="m150.4 132.38c0-0.0549 0.20836-0.2633 0.46302-0.46302 0.41965-0.32911 0.42901-0.31975 0.0999 0.0999-0.34565 0.44073-0.56292 0.58089-0.56292 0.36313zm-75.026-24.308-0.77711-0.8599 0.8599 0.77711c0.80154 0.72437 0.98151 0.94269 0.7771 0.94269-0.04553 0-0.43249-0.38696-0.8599-0.8599zm-3.9772-3.9688-0.50403-0.59531 0.59531 0.50403c0.55945 0.47366 0.71576 0.68659 0.50403 0.68659-0.05021 0-0.3181-0.26789-0.59531-0.59531zm-2.3728-2.3812-0.7771-0.8599 0.8599 0.77711c0.80154 0.72437 0.98151 0.94269 0.7771 0.94269-0.04554 0-0.43249-0.38696-0.8599-0.8599zm-4.2333-4.2333-0.77711-0.8599 0.8599 0.7771c0.80154 0.72437 0.98151 0.94269 0.7771 0.94269-0.04553 0-0.43249-0.38695-0.8599-0.8599zm-1.8606-1.8521-0.50403-0.59531 0.59531 0.50403c0.55945 0.47366 0.71576 0.6866 0.50403 0.6866-0.05021 0-0.3181-0.26789-0.59531-0.59531zm-2.3728-2.3812-0.7771-0.8599 0.8599 0.7771c0.80154 0.72437 0.98151 0.94269 0.77711 0.94269-0.04554 0-0.43249-0.38695-0.8599-0.8599zm-3.8536-3.8365c-0.32911-0.41964-0.31975-0.429 0.09989-0.0999 0.25466 0.19972 0.46302 0.40808 0.46302 0.46302 0 0.21776-0.21727 0.07761-0.56292-0.36312zm89.723-10.319-3.0384-3.1089 3.1089 3.0384c2.8877 2.8222 3.2289 3.1793 3.0384 3.1793-0.0387 0-1.4377-1.399-3.1088-3.1089zm-4.1134-4.101-0.7771-0.8599 0.85989 0.7771c0.47295 0.42741 0.8599 0.81436 0.8599 0.8599 0 0.20441-0.21832 0.02445-0.94269-0.77711zm-5.275-5.2255c-2.1792-2.1828-3.9026-3.9688-3.8298-3.9688 0.0728 0 1.9152 1.7859 4.0944 3.9688 2.1792 2.1828 3.9026 3.9688 3.8298 3.9688-0.0728 0-1.9152-1.7859-4.0944-3.9688zm-5.3083-5.3578-0.77711-0.8599 0.8599 0.7771c0.80155 0.72437 0.98151 0.94269 0.77711 0.94269-0.0455 0-0.43249-0.38695-0.8599-0.8599zm-75.786-23.846c0-0.05494 0.20836-0.2633 0.46302-0.46302 0.41964-0.32911 0.429-0.31975 0.0999 0.0999-0.34564 0.44073-0.56292 0.58089-0.56292 0.36313z" fill="#d0d0d0"/>
   <path d="m56.841 132.68-0.50403-0.59531 0.59531 0.50403c0.55945 0.47366 0.71576 0.68659 0.50403 0.68659-0.05021 0-0.3181-0.26789-0.59531-0.59531zm92.762 0.49542c0-0.0549 0.20836-0.2633 0.46302-0.46302 0.41965-0.32911 0.42901-0.31975 0.0999 0.0999-0.34565 0.44073-0.56292 0.58089-0.56292 0.36313zm-47.03-11.735c0.5457-0.0571 1.4387-0.0571 1.9844 0 0.5457 0.0571 0.0992 0.10378-0.99219 0.10378-1.0914 0-1.5379-0.0467-0.99219-0.10378zm2.5301-8.4547c0.19099-0.0764 0.4192-0.067 0.50712 0.0209 0.0879 0.0879-0.0683 0.15045-0.34727 0.13896-0.30822-0.0127-0.37092-0.0754-0.15985-0.15985zm-27.501-2.6635c-0.32911-0.41965-0.31975-0.429 0.0999-0.0999 0.25466 0.19972 0.46302 0.40808 0.46302 0.46302 0 0.21777-0.21727 0.0776-0.56292-0.36312zm-12.407-24.342-2.5083-2.5797 2.5797 2.5083c2.396 2.3297 2.7 2.6511 2.5083 2.6511-0.03925 0-1.2001-1.1609-2.5797-2.5797zm2.9574 1.5214c0-0.3638 0.06005-0.51263 0.13345-0.33073 0.0734 0.1819 0.0734 0.47956 0 0.66146s-0.13345 0.03307-0.13345-0.33073zm70.644 0c0-0.3638 0.06-0.51263 0.13345-0.33073 0.0734 0.1819 0.0734 0.47956 0 0.66146s-0.13345 0.03307-0.13345-0.33073zm-0.0209-1.2127c0.0127-0.30823 0.0754-0.37092 0.15985-0.15985 0.0764 0.19099 0.067 0.4192-0.0209 0.50712-0.0879 0.08792-0.15045-0.06835-0.13897-0.34727zm-70.644-0.26458c0.01269-0.30823 0.07539-0.37092 0.15985-0.15985 0.07643 0.191 0.06703 0.4192-0.02089 0.50712-0.08792 0.08792-0.15045-0.06835-0.13896-0.34726zm70.684-1.1686c0-0.50932 0.0545-0.71768 0.121-0.46302 0.0665 0.25466 0.0665 0.67138 0 0.92604-0.0666 0.25466-0.121 0.0463-0.121-0.46302zm-70.663 0c0-0.3638 0.06005-0.51263 0.13345-0.33073 0.0734 0.1819 0.0734 0.47956 0 0.66146s-0.13345 0.03307-0.13345-0.33073zm33.511-25.581c0.19099-0.07643 0.41919-0.06703 0.50711 0.02089 0.0879 0.08792-0.0684 0.15045-0.34726 0.13896-0.30823-0.01269-0.37092-0.07539-0.15985-0.15985zm0.9095-8.4787c0.5457-0.05708 1.4387-0.05708 1.9844 0 0.5457 0.05708 0.0992 0.10379-0.99219 0.10379-1.0914 0-1.5379-0.0467-0.99219-0.10379zm47.401-11.25-0.50403-0.59531 0.59531 0.50403c0.32742 0.27722 0.59531 0.54511 0.59531 0.59531 0 0.21173-0.21293 0.05542-0.68659-0.50403zm-93.24 0.23083c0-0.05494 0.20836-0.2633 0.46302-0.46302 0.41964-0.32911 0.429-0.31975 0.0999 0.09989-0.34564 0.44073-0.56292 0.58089-0.56292 0.36313z" fill="#b9b9b9"/>
   <path d="m102.19 112.99c0.191-0.0764 0.4192-0.067 0.50712 0.0209 0.0879 0.0879-0.0683 0.15045-0.34726 0.13896-0.30823-0.0127-0.37092-0.0754-0.15986-0.15985zm-23.267-1.3406c-0.32911-0.41965-0.31975-0.42901 0.0999-0.0999 0.25466 0.19972 0.46302 0.40808 0.46302 0.46302 0 0.21776-0.21727 0.0776-0.56292-0.36312zm48.717 0.36312c0-0.0549 0.20836-0.2633 0.46302-0.46302 0.41965-0.32911 0.42901-0.31975 0.0999 0.0999-0.34564 0.44073-0.56292 0.58088-0.56292 0.36312zm1.0583-1.0583c0-0.0549 0.20836-0.2633 0.46302-0.46302 0.41964-0.32911 0.429-0.31975 0.0999 0.0999-0.34564 0.44073-0.56291 0.58089-0.56291 0.36313zm-52.102-23.602c0.01269-0.30823 0.07539-0.37092 0.15985-0.15985 0.07643 0.191 0.06703 0.4192-0.02089 0.50712-0.08792 0.08792-0.15045-0.06835-0.13896-0.34727zm53.71 0c0.0127-0.30823 0.0754-0.37092 0.15985-0.15985 0.0764 0.191 0.067 0.4192-0.0209 0.50712-0.0879 0.08792-0.15045-0.06835-0.13896-0.34727zm-53.71-2.3812c0.01269-0.30823 0.07539-0.37092 0.15985-0.15985 0.07643 0.191 0.06703 0.4192-0.02089 0.50712-0.08792 0.08792-0.15045-0.06835-0.13896-0.34727zm52.474-23.195-0.50403-0.59531 0.59532 0.50403c0.32742 0.27722 0.59531 0.5451 0.59531 0.59531 0 0.21173-0.21293 0.05542-0.6866-0.50403zm-51.436 0.23083c0-0.05494 0.20836-0.2633 0.46302-0.46302 0.41964-0.32911 0.429-0.31975 0.0999 0.0999-0.34564 0.44073-0.56292 0.58089-0.56292 0.36312zm1.0583-1.0583c0-0.05494 0.20836-0.2633 0.46302-0.46302 0.41964-0.32911 0.429-0.31975 0.0999 0.0999-0.34564 0.44073-0.56292 0.58089-0.56292 0.36312zm49.179-0.36312c-0.32911-0.41964-0.31975-0.429 0.0999-0.0999 0.44073 0.34564 0.58089 0.56292 0.36313 0.56292-0.0549 0-0.2633-0.20836-0.46302-0.46302zm-23.299-1.3052c0.191-0.07643 0.4192-0.06703 0.50712 0.02089 0.0879 0.08792-0.0684 0.15045-0.34726 0.13896-0.30823-0.01269-0.37092-0.07539-0.15986-0.15985z" fill="#a3a3a3"/>
   <path d="m103.24 112.98c0.32912-0.0633 0.80537-0.0609 1.0583 5e-3 0.25296 0.0662-0.0163 0.118-0.5984 0.11506-0.58208-3e-3 -0.78905-0.0571-0.45994-0.1204zm23.611-0.17735c0-0.0549 0.20836-0.2633 0.46302-0.46302 0.41965-0.32911 0.42901-0.31975 0.0999 0.0999-0.34564 0.44073-0.56292 0.58088-0.56292 0.36312zm-50.209-26.623c0-0.50932 0.05445-0.71768 0.121-0.46302 0.06655 0.25466 0.06655 0.67138 0 0.92604-0.06655 0.25466-0.121 0.0463-0.121-0.46302zm53.716-0.13229c3e-3 -0.58208 0.0571-0.78905 0.12041-0.45994 0.0633 0.32912 0.0609 0.80537-5e-3 1.0583-0.0662 0.25296-0.118-0.01632-0.11507-0.5984zm-50.867-25.897c0-0.05494 0.20836-0.2633 0.46302-0.46302 0.41964-0.32911 0.429-0.31975 0.0999 0.09989-0.34564 0.44073-0.56292 0.58089-0.56292 0.36312zm23.485-0.88098c0.32912-0.06329 0.80537-0.06088 1.0583 0.0053 0.25297 0.06622-0.0163 0.118-0.59839 0.11507-0.58209-0.0029-0.78906-0.05712-0.45994-0.12041z" fill="#8c8c8c"/>
   <path d="m100.34 121.45c0.19099-0.0764 0.4192-0.067 0.50712 0.0209 0.0879 0.0879-0.0684 0.15046-0.34727 0.13897-0.30822-0.0127-0.37092-0.0754-0.15985-0.15985zm6.0854 0c0.19099-0.0764 0.41919-0.067 0.50711 0.0209 0.0879 0.0879-0.0684 0.15046-0.34726 0.13897-0.30823-0.0127-0.37092-0.0754-0.15985-0.15985zm41.275-31.221c0.19099-0.07643 0.4192-0.06703 0.50712 0.02088 0.0879 0.08792-0.0684 0.15045-0.34727 0.13896-0.30822-0.0127-0.37092-0.07539-0.15985-0.15985zm-8.9253-1.0319c0.0127-0.30823 0.0754-0.37092 0.15985-0.15985 0.0764 0.191 0.067 0.4192-0.0209 0.50712-0.0879 0.08792-0.15046-0.06835-0.13897-0.34726zm11.356 0.05444c0-0.05494 0.20836-0.2633 0.46302-0.46302 0.41964-0.32911 0.429-0.31975 0.0999 0.0999-0.34564 0.44073-0.56291 0.58089-0.56291 0.36312zm-82-6.1399c0.01269-0.30823 0.07539-0.37092 0.15985-0.15985 0.07643 0.191 0.06703 0.4192-0.02089 0.50712-0.08792 0.08792-0.15045-0.06835-0.13896-0.34726zm55.508-14.596c-0.3291-0.41964-0.31975-0.429 0.0999-0.0999 0.25466 0.19972 0.46302 0.40808 0.46302 0.46302 0 0.21776-0.21727 0.07761-0.56292-0.36312zm-23.299-17.709c0.19099-0.07643 0.4192-0.06703 0.50712 0.02089 0.0879 0.08792-0.0684 0.15045-0.34727 0.13896-0.30822-0.0127-0.37092-0.07539-0.15985-0.15985zm6.0854 0c0.19099-0.07643 0.41919-0.06703 0.50711 0.02089 0.0879 0.08792-0.0684 0.15045-0.34726 0.13896-0.30823-0.0127-0.37092-0.07539-0.15985-0.15985z" fill="#767676"/>
   <path d="m85.275 105.82c-0.32911-0.41964-0.31975-0.429 0.0999-0.0999 0.25466 0.19972 0.46302 0.40808 0.46302 0.46302 0 0.21776-0.21727 0.0776-0.56292-0.36313zm36.414-0.0661c0.26339-0.29105 0.53842-0.52917 0.61118-0.52917 0.0728 0-0.0832 0.23812-0.3466 0.52917-0.26339 0.29104-0.53842 0.52916-0.61118 0.52916-0.0728 0 0.0832-0.23812 0.3466-0.52916zm-37.737-1.2568c-0.32911-0.41964-0.31975-0.429 0.0999-0.0999 0.44073 0.34564 0.58089 0.56292 0.36312 0.56292-0.05494 0-0.2633-0.20836-0.46302-0.46303zm38.894-36.777c-0.3291-0.41964-0.31975-0.429 0.0999-0.0999 0.44073 0.34564 0.58089 0.56292 0.36312 0.56292-0.0549 0-0.2633-0.20836-0.46302-0.46302zm-37.802-0.95983c0-0.05494 0.20836-0.2633 0.46302-0.46302 0.41964-0.32911 0.429-0.31975 0.0999 0.0999-0.34564 0.44073-0.56292 0.58089-0.56292 0.36312zm36.479-0.36312c-0.32911-0.41964-0.31975-0.429 0.0999-0.0999 0.44073 0.34564 0.58089 0.56292 0.36313 0.56292-0.0549 0-0.2633-0.20836-0.46302-0.46302z" fill="#494949"/>
   <path d="m70.36 138.92c-2.3746-0.30796-5.0149-1.0534-6.9978-1.9757-6.254-2.909-10.501-8.1549-12.089-14.932-0.46626-1.9898-0.49211-3.8793-0.49211-35.967 0-32.034 0.02644-33.974 0.48849-35.851 0.64548-2.6221 2.7432-6.8682 4.4185-8.9437 2.2159-2.7452 6.0827-5.4605 9.4124-6.6095 3.6878-1.2725 2.9281-1.2479 38.597-1.2479 37.813 0 35.48-0.1175 40.071 2.0178 6.254 2.909 10.501 8.1549 12.089 14.932 0.46621 1.9896 0.49212 3.876 0.49212 35.835 0 38.354 0.14776 35.702-2.2626 40.614-2.9861 6.0855-7.6661 9.8483-14.538 11.689-1.5876 0.4253-4.2831 0.46386-35.057 0.50146-18.336 0.0224-33.695-6e-3 -34.131-0.0622zm40.349-17.947c7.0938-1.5568 12.744-4.6518 17.859-9.7832 3.173-3.1829 5.368-6.2268 6.9922-9.6963 2.2471-4.8001 3.1607-8.5701 3.379-13.943l0.15382-3.7863 3.2041 3.167c2.6325 2.602 3.3857 3.201 4.2218 3.3575 3.4538 0.64668 6.2227-2.8124 4.8332-6.038-0.21135-0.49062-5.733-6.1842-13.031-13.436-13.274-13.191-14.352-14.124-19.014-16.455-2.3422-1.1709-5.9644-2.407-8.8635-3.025-3.1575-0.67296-10.601-0.67296-13.758 0-7.2652 1.5485-12.932 4.622-18.124 9.8303-3.173 3.1829-5.368 6.2268-6.9922 9.6963-2.247 4.8-3.1607 8.5701-3.379 13.942l-0.1538 3.7858-3.0753-3.0375c-1.8227-1.8003-3.3767-3.1131-3.8152-3.2232-1.1112-0.27889-3.0604 0.02096-3.8474 0.59184-0.38356 0.27823-0.97858 1.0666-1.3223 1.752-0.50993 1.0169-0.59219 1.4768-0.44716 2.4998 0.17556 1.2383 0.33523 1.4108 13.06 14.105 10.459 10.434 13.306 13.128 15.132 14.321 4.671 3.0533 8.7208 4.6562 14.288 5.6552 2.6443 0.47453 9.9989 0.31187 12.7-0.28089zm-12.005-8.4836c-5.5237-1.0975-10.111-3.5329-14.01-7.437-5.4677-5.4751-8.1393-12.389-7.7789-20.132 0.5789-12.434 9.2112-22.412 21.624-24.994 3.2253-0.67117 8.3318-0.54478 11.441 0.28318 9.8733 2.6291 16.809 9.5573 19.576 19.554 0.82284 2.9734 0.82284 9.8547 0 12.828-2.8877 10.435-10.488 17.662-20.83 19.808-2.8231 0.58573-7.3223 0.62609-10.021 0.0899z" fill="#333"/>
  </g>
 </g>
</svg>
