<svg id="Ebene_2" data-name="Ebene 2" xmlns="http://www.w3.org/2000/svg" width="11115.53" height="3032.26" xmlns:xlink="http://www.w3.org/1999/xlink" viewBox="0 0 11115.53 3032.26">
    <defs>
        <clipPath id="clippath">
            <path d="M10269.48,2059.89V656.27h169.21v899.51l457.69-488.24h211.51l-380.72,403.63,388.36,588.12h-202.11l-303.75-465.33-170.97,178.61v286.72h-169.21v.59Zm-1657.43,0v-991.76h143.95l5.88,155.7c78.73-122.79,176.85-178.61,311.39-178.61s232.66,59.34,273.2,172.73c82.84-122.79,184.49-172.73,311.39-172.73,198,0,307.87,119.27,307.87,338.42v676.84h-169.21v-663.91c0-132.78-57.58-196.24-161.57-196.24s-188.6,65.22-261.45,209.75v649.81h-169.21v-663.32c0-132.78-57.58-196.24-161.57-196.24s-188.6,65.22-261.45,219.15v640.41h-169.21Zm-988.23,0V656.27h107.52v967.08l549.93-548.17h138.66l-403.63,401.87,411.27,582.24h-131.02l-357.81-505.87-207.4,203.87v301.99h-107.52v.59Zm-638.06,22.91c-257.34,0-401.87-146.3-401.87-417.15v-196.24c0-270.85,142.18-417.15,400.11-417.15,238.54,0,374.85,125.14,384.25,340.18h-103.99c-11.75-165.1-105.76-246.18-276.73-246.18-198,0-296.12,107.52-296.12,329.02v184.49c0,220.91,98.12,329.02,296.12,329.02,170.97,0,265.56-80.49,276.73-246.18h103.99c-9.4,211.51-142.18,340.18-382.48,340.18Zm-1343.69-584.01h601.63v-21.15c0-223.26-98.12-330.78-301.99-330.78s-299.64,107.52-299.64,330.78v21.15h0Zm309.04,584.01c-269.09,0-417.15-146.3-417.15-417.15v-196.24c0-270.85,143.95-417.15,407.75-417.15s405.4,146.3,405.4,417.15v121.03h-705.04v67.57c0,223.26,99.88,330.78,305.52,330.78,176.85,0,276.73-80.49,288.48-217.39h103.99c-13.51,202.11-156.28,311.39-388.95,311.39Zm-1452.97-22.91V656.27h107.52v592.23c82.84-132.78,196.24-196.24,341.94-196.24,203.87,0,307.87,122.79,307.87,355.46v651.57h-107.52v-640.41c0-180.96-69.33-269.09-217.39-269.09-138.66,0-246.18,76.97-324.91,255.58v653.92h-107.52v.59Zm-638.65,22.91c-257.34,0-401.87-146.3-401.87-417.15v-196.24c0-270.85,142.18-417.15,400.11-417.15,238.54,0,374.85,125.14,384.25,340.18h-103.99c-11.75-165.1-105.76-246.18-276.73-246.18-198,0-296.12,107.52-296.12,329.02v184.49c0,220.91,98.12,329.02,296.12,329.02,170.97,0,265.56-80.49,276.73-246.18h103.99c-9.4,211.51-142.18,340.18-382.48,340.18Z" style="fill: #15D1A0;"/>
        </clipPath>
        <clipPath id="clippath-1">
            <rect x="-2853.06" y="-6530.43" width="29295.56" height="16479.12" style="fill: #15D1A0;"/>
        </clipPath>
        <clipPath id="clippath-2">
            <path d="M450.05,1103.97v503.52l616.91-398.93v1038.17l243.24,140.42,243.24-140.42V1209.14l616.91,398.93v-503.52l-860.15-539.35L450.05,1103.97ZM1310.79,0l1310.79,757.92v1516.42l-1310.79,757.92L0,2274.93V758.5L1310.79,0Z" style="fill: none;"/>
        </clipPath>
        <clipPath id="clippath-3">
            <rect x="-2853.06" y="-6530.43" width="29295.56" height="16479.12" style="fill: #15D1A0;"/>
        </clipPath>
    </defs>
    <g id="Layer_1" data-name="Layer 1">
        <g>
            <g style="clip-path: url(#clippath);">
                <g style="clip-path: url(#clippath-1);">
                    <rect x="3381.84" y="579.89" width="7810.07" height="1579.29" style="fill: #15D1A0;"/>
                </g>
            </g>
            <g style="clip-path: url(#clippath-2);">
                <g style="clip-path: url(#clippath-3);">
                    <rect x="-76.38" y="-76.38" width="2773.74" height="3185.6" style="fill: #15D1A0;"/>
                </g>
            </g>
        </g>
    </g>
</svg>
