<?xml version="1.0" encoding="UTF-8"?>
<svg width="1e3" height="421.85" version="1.1" viewBox="0 0 1e3 421.85" xml:space="preserve" xmlns="http://www.w3.org/2000/svg" xmlns:cc="http://creativecommons.org/ns#" xmlns:dc="http://purl.org/dc/elements/1.1/" xmlns:rdf="http://www.w3.org/1999/02/22-rdf-syntax-ns#"><metadata><rdf:RDF><cc:Work rdf:about=""><dc:format>image/svg+xml</dc:format><dc:type rdf:resource="http://purl.org/dc/dcmitype/StillImage"/><dc:title/></cc:Work></rdf:RDF></metadata>
<style type="text/css">
	.st0{fill:#0068B5;}
</style>
<rect class="st0" x="125" y="57.143" width="59.034" height="59.034" fill="#0068b5" stroke-width="2.1008"/>
<g transform="matrix(2.1008 0 0 2.1008 115.13 46.218)">
	<path d="m32.1 151.6v-101.2h-26.6v101.2zm176.8 1v-24.8c-3.9 0-7.2-0.2-9.6-0.6-2.8-0.4-4.9-1.4-6.3-2.8s-2.3-3.4-2.8-6c-0.4-2.5-0.6-5.8-0.6-9.8v-35.4h19.3v-22.8h-19.3v-39.5h-26.7v97.9c0 8.3 0.7 15.3 2.1 20.9 1.4 5.5 3.8 10 7.1 13.4s7.7 5.8 13 7.3c5.4 1.5 12.2 2.2 20.3 2.2zm152.8-1v-148.5h-26.7v148.5zm-224.5-91.3c-7.4-8-17.8-12-31-12-6.4 0-12.2 1.3-17.5 3.9-5.2 2.6-9.7 6.2-13.2 10.8l-1.5 1.9v-14.5h-26.3v101.2h26.5v-53.9 3.7-1.8c0.3-9.5 2.6-16.5 7-21 4.7-4.8 10.4-7.2 16.9-7.2 7.7 0 13.6 2.4 17.5 7 3.8 4.6 5.8 11.1 5.8 19.4v53.7h26.9v-57.4c0.1-14.4-3.7-25.8-11.1-33.8zm184 40.5c0-7.3-1.3-14.1-3.8-20.5-2.6-6.3-6.2-11.9-10.7-16.7-4.6-4.8-10.1-8.5-16.5-11.2s-13.5-4-21.2-4c-7.3 0-14.2 1.4-20.6 4.1-6.4 2.8-12 6.5-16.7 11.2s-8.5 10.3-11.2 16.7c-2.8 6.4-4.1 13.3-4.1 20.6s1.3 14.2 3.9 20.6 6.3 12 10.9 16.7 10.3 8.5 16.9 11.2c6.6 2.8 13.9 4.2 21.7 4.2 22.6 0 36.6-10.3 45-19.9l-19.2-14.6c-4 4.8-13.6 11.3-25.6 11.3-7.5 0-13.7-1.7-18.4-5.2-4.7-3.4-7.9-8.2-9.6-14.1l-0.3-0.9h79.5zm-79.3-9.3c0-7.4 8.5-20.3 26.8-20.4 18.3 0 26.9 12.9 26.9 20.3z"/>

</g>
</svg>
