<?xml version="1.0" encoding="UTF-8"?>
<svg id="Artwork" enable-background="new 0 0 190.1 33" version="1.1" viewBox="0 0 190.1 33" xml:space="preserve" xmlns="http://www.w3.org/2000/svg" xmlns:cc="http://creativecommons.org/ns#" xmlns:dc="http://purl.org/dc/elements/1.1/" xmlns:rdf="http://www.w3.org/1999/02/22-rdf-syntax-ns#"><metadata><rdf:RDF><cc:Work rdf:about=""><dc:format>image/svg+xml</dc:format><dc:type rdf:resource="http://purl.org/dc/dcmitype/StillImage"/><dc:title/></cc:Work></rdf:RDF></metadata>
<style type="text/css">
	.st0{fill:#4B5168;}
	.st1{fill:#F6914D;}
</style>
<g transform="matrix(.75 0 0 .75 23.762 4.125)">
	<path class="st0" d="m33.4 27.7v-22.4c0-2.3 0-2.3 2.4-2.3s2.4 0 2.4 2.3v22.4c0 2.3 0 2.3-2.4 2.3-2.4-0.1-2.4-0.1-2.4-2.3z"/>
	<path class="st0" d="m45 26.4v-19.8c0-3.6 0-3.6 3.6-3.6h5.8c7.8 0 12.5 3.9 13 10.2 0.2 2.2 0.2 3.4 0 5.5-0.5 6.3-5.3 11.2-13 11.2h-5.8c-3.6 0-3.6 0-3.6-3.5zm9.3-1c5.3 0 8-3 8.3-7.1 0.1-1.8 0.1-2.8 0-4.6-0.3-4.2-3-6.1-8.3-6.1h-4.5v17.8z"/>
	<path class="st0" d="m73.8 26.4v-19.8c0-3.6 0-3.6 3.6-3.6h13.5c2.3 0 2.3 0 2.3 2.2s0 2.2-2.3 2.2h-12.3v6.9h11c2.2 0 2.2 0 2.2 2.1s0 2.1-2.2 2.1h-11v6.9h12.3c2.3 0 2.3 0 2.3 2.2 0 2.3 0 2.3-2.3 2.3h-13.5c-3.6 0-3.6 0-3.6-3.5z"/>
	<path class="st0" d="m100 26.4v-21c0-2.3 0-2.3 2.4-2.3s2.4 0 2.4 2.3v20.2h11.9c2.4 0 2.4 0 2.4 2.2s0 2.2-2.4 2.2h-13.1c-3.6-0.1-3.6-0.1-3.6-3.6z"/>
	<path class="st0" d="m125.8 27.7v-22.4c0-2.3 0-2.3 2.4-2.3s2.4 0 2.4 2.3v22.4c0 2.3 0 2.3-2.4 2.3-2.4-0.1-2.4-0.1-2.4-2.3z"/>
	<path class="st0" d="m137.4 27.7v-21.1c0-3.6 0-3.6 3.6-3.6h13.5c2.3 0 2.3 0 2.3 2.2s0 2.2-2.3 2.2h-12.2v7.2h11.3c2.3 0 2.3 0 2.3 2.2s0 2.2-2.3 2.2h-11.3v8.6c0 2.3 0 2.3-2.4 2.3s-2.5 0-2.5-2.2z"/>
	<path class="st0" d="m24.2 3.1h-18.7c-2.4 0-2.4 0-2.4 2.2s0 2.2 2.4 2.2h7v7.9l4.8-3.7v-4.2h7c2.4 0 2.4 0 2.4-2.2-0.1-2.2-0.1-2.2-2.5-2.2z"/>
	<path class="st1" d="m12.5 20v7.6c0 2.3 0 2.3 2.4 2.3s2.4 0 2.4-2.3v-11.3z"/>

		<path class="st0" d="m165.9 3.1h18.7c2.4 0 2.4 0 2.4 2.2s0 2.2-2.4 2.2h-7v7.9l-4.8-3.7v-4.2h-7c-2.4 0-2.4 0-2.4-2.2 0.1-2.2 0.1-2.2 2.5-2.2z"/>
		<path class="st1" d="m177.6 20v7.6c0 2.3 0 2.3-2.4 2.3s-2.4 0-2.4-2.3v-11.3z"/>

</g>
</svg>
