<?xml version="1.0" encoding="utf-8"?>
<!-- Generator: Adobe Illustrator 24.3.0, SVG Export Plug-In . SVG Version: 6.00 Build 0)  -->
<svg version="1.1" id="logo" xmlns="http://www.w3.org/2000/svg" xmlns:xlink="http://www.w3.org/1999/xlink" x="0px" y="0px"
	 viewBox="0 0 1200 280" style="enable-background:new 0 0 1200 280;" xml:space="preserve">
<style type="text/css">
	.st0{fill:#319CCB;}
	.st1{fill:#161E22;}
</style>
<g>
	<path class="st0" d="M123.63,33.7L31.58,86.85l0,106.3l92.06,53.15l92.06-53.15V86.85L123.63,33.7z M200.12,103.24l-31.14,17.98
		v44.96l-38.94,22.48v17.98l54.51-31.47v-44.96l15.57-8.99v62.94l-76.49,44.16l-76.49-44.16v-62.94l15.57,8.99l0,44.97l54.51,31.47
		v-17.98l-38.94-22.48l0-44.97l-31.14-17.98v-7.4l6.41-3.7l31.14,17.98l38.94-22.48l38.94,22.48l15.57-8.99l-54.51-31.47L84.7,92.14
		l-15.57-8.99h0l0,0h0l54.51-31.47l76.49,44.16V103.24z"/>
	<path class="st1" d="M835.11,86.85h-45.25v106.29h47.22c5.77,0,11.03-0.66,15.79-1.97c4.76-1.31,8.83-3.21,12.22-5.69
		c3.39-2.48,6-5.54,7.82-9.19c1.82-3.64,2.73-7.74,2.73-12.3c0-3.64-0.61-6.88-1.82-9.72c-1.21-2.84-2.83-5.27-4.86-7.29
		c-2.03-2.03-4.43-3.77-7.21-5.24c-2.78-1.47-5.74-2.66-8.88-3.57c2.12-0.91,4.17-2.05,6.15-3.42c1.97-1.37,3.77-3.06,5.39-5.09
		c1.62-2.03,2.91-4.35,3.87-6.99c0.96-2.63,1.44-5.72,1.44-9.26c0-4.05-0.81-7.72-2.43-11.01c-1.62-3.29-3.95-6.07-6.99-8.35
		c-3.04-2.28-6.68-4.05-10.93-5.32C845.13,87.49,840.38,86.85,835.11,86.85L835.11,86.85z M1168.42,86.85h-76.84v106.29h76.84
		v-10.93h-64.84v-37.2h64.84v-10.93h-64.84V97.79h64.84V86.85L1168.42,86.85z M1042.24,97.94h35.69V86.85H994.4v11.08h35.68v95.21
		h12.15V97.94L1042.24,97.94z M936.55,150.93l44.19-64.08h-13.97L930.63,140l-35.84-53.15h-14.58l44.19,64.23v42.06h12.15V150.93
		L936.55,150.93z M833.14,134.23h-31.43v-36.6h32.34c7.59,0,13.41,1.57,17.46,4.71c4.05,3.14,6.07,7.39,6.07,12.76
		c0,6.28-2.28,11.04-6.83,14.27C846.2,132.61,840.33,134.23,833.14,134.23L833.14,134.23z M837.39,182.37h-35.68v-37.51h33.56
		c9.31,0,16.35,1.6,21.11,4.78c4.76,3.19,7.14,7.72,7.14,13.59c0,6.07-2.33,10.78-6.99,14.12
		C851.86,180.69,845.49,182.37,837.39,182.37z"/>
	<path class="st1" d="M342.81,108.42V86.85h-88.08v21.56h32.34v84.73h23.38v-84.73H342.81L342.81,108.42z M767.08,172.35h-56.94
		v-22.32h56.94v-20.81h-56.94V117.4l-9.75-9.75h9.75h56.94v-20.8h-80.17v106.29h80.17V172.35L767.08,172.35z M673.24,193.15v-21.26
		h-53V86.85h-23.38v106.29H673.24L673.24,193.15z M583.19,123.91v-0.3c0-5.47-0.94-10.45-2.81-14.96
		c-1.87-4.51-4.56-8.38-8.05-11.62c-3.49-3.24-7.75-5.74-12.76-7.52c-5.01-1.77-10.7-2.66-17.08-2.66h-43.43v106.29h23.39v-31.89
		h17.77c5.97,0,11.57-0.78,16.78-2.35c5.21-1.57,9.77-3.93,13.67-7.06c3.9-3.14,6.96-7.04,9.19-11.7
		C582.08,135.49,583.19,130.08,583.19,123.91L583.19,123.91z M559.5,124.36c0,4.55-1.62,8.38-4.86,11.46
		c-3.24,3.09-7.8,4.63-13.67,4.63h-8.78l-9.75,9.75v-9.75v-32.5h18.07c5.87,0,10.5,1.36,13.89,4.1c3.39,2.73,5.09,6.73,5.09,12
		V124.36L559.5,124.36z M485.4,193.15V86.85h-23.38v106.29H485.4L485.4,193.15z M448.35,193.15l-25.97-37.96
		c6.78-2.53,12.27-6.5,16.47-11.92c4.2-5.42,6.3-12.43,6.3-21.03v-0.31c0-11.03-3.52-19.64-10.56-25.81
		c-7.04-6.18-16.88-9.26-29.53-9.26h-48.59v106.29h23.38v-34.01h18.37l22.78,34.01H448.35L448.35,193.15z M421.47,123.45
		c0,4.55-1.55,8.2-4.63,10.93c-3.08,2.73-7.52,4.1-13.29,4.1h-13.94l-9.74,9.74v-9.74v-30.52h23.23c5.77,0,10.28,1.26,13.51,3.79
		c3.24,2.53,4.86,6.33,4.86,11.39V123.45z"/>
</g>
</svg>
