<?xml version="1.0" encoding="UTF-8" standalone="no"?>
<svg
   xmlns:dc="http://purl.org/dc/elements/1.1/"
   xmlns:cc="http://creativecommons.org/ns#"
   xmlns:rdf="http://www.w3.org/1999/02/22-rdf-syntax-ns#"
   xmlns:svg="http://www.w3.org/2000/svg"
   xmlns="http://www.w3.org/2000/svg"
   id="svg8"
   version="1.1"
   viewBox="0 0 129.6739 51.060802"
   height="51.060802mm"
   width="129.6739mm">
  <defs
     id="defs2" />
  <metadata
     id="metadata5">
    <rdf:RDF>
      <cc:Work
         rdf:about="">
        <dc:format>image/svg+xml</dc:format>
        <dc:type
           rdf:resource="http://purl.org/dc/dcmitype/StillImage" />
        <dc:title></dc:title>
      </cc:Work>
    </rdf:RDF>
  </metadata>
  <g
     transform="translate(-41.190868,-107.48794)"
     id="layer1">
    <g
       transform="matrix(0.5,0,0,0.5,64.376056,70.776642)"
       id="g3793">
      <path
         id="path3809"
         d="m -36.128598,175.15502 c -2.6103,-0.66202 -4.439167,-1.69349 -6.297371,-3.55169 -2.79714,-2.79715 -3.937901,-5.90204 -3.944384,-10.73572 -0.0077,-5.77429 1.941879,-12.55646 5.838844,-20.31163 2.052053,-4.08369 2.882035,-5.51393 3.490217,-6.01442 0.458161,-0.37702 0.461721,-0.51474 0.07118,-2.75357 -2.537885,-14.5488 2.929991,-29.91958 13.973157,-39.280019 7.507801,-6.363785 16.1926002,-9.815253 25.8348264,-10.267141 3.2992588,-0.154621 8.0092126,0.194604 10.2873256,0.762767 1.046686,0.261044 1.200769,0.236221 1.5875,-0.25575 1.123143,-1.428791 10.78286,-6.00656 16.032186,-7.597702 8.035911,-2.435794 14.705332,-2.292183 18.944291,0.407921 2.501217,1.593211 4.273663,3.891844 5.290105,6.860581 0.733695,2.142905 0.985248,6.784486 0.527786,9.738501 -4.519573,29.184692 -47.937052,74.244582 -79.39211,82.395372 -3.745719,0.97062 -9.647074,1.26102 -12.243555,0.6025 z m 9.333138,-4.53562 C -6.9434072,166.68044 23.298661,142.30231 39.951723,116.81448 49.491032,102.21439 53.458477,89.044241 50.357704,82.271261 47.244883,75.471964 36.979177,75.593911 22.41704,82.60317 l -3.571875,1.719267 0.926041,0.420749 c 5.581293,2.53587 9.178798,4.762598 12.653047,7.831785 3.469995,3.065427 6.957568,7.400667 8.951325,11.126979 l 0.841013,1.57184 -0.895927,1.77908 c -7.83645,15.56111 -26.795875,36.17263 -44.1612913,48.00943 -3.7924872,2.58508 -7.4489357,4.81948 -9.9378817,6.0729 l -1.81301,0.91301 -1.615697,-0.91324 c -5.627981,-3.18113 -10.62648,-7.72433 -14.272218,-12.9722 -1.332727,-1.91841 -3.854928,-6.60248 -4.556384,-8.46183 l -0.399265,-1.05833 -1.36469,2.69912 c -6.18784,12.23848 -7.436352,22.19965 -3.383099,26.99182 0.902407,1.06692 3.539396,2.3734 5.449913,2.70012 1.763261,0.30154 5.245961,0.11978 7.937499,-0.41427 z m 100.184452,-3.54716 c -3.151349,-0.52851 -6.263458,-3.14161 -7.951695,-6.67669 -2.946598,-6.17002 -2.951879,-15.15481 -0.01249,-21.26788 1.241718,-2.58241 3.155219,-4.61879 5.36,-5.70421 1.614419,-0.79477 1.967574,-0.86627 4.27876,-0.86627 2.272572,0 2.687415,0.0804 4.238897,0.82178 3.26602,1.56063 5.628267,4.80578 6.924307,9.51232 0.495872,1.80075 0.578639,2.78253 0.578639,6.86382 0,5.2719 -0.364128,7.26767 -1.921076,10.52933 -2.383123,4.99243 -6.766669,7.58084 -11.495334,6.7878 z m 4.9217,-2.86552 c 2.516581,-1.21826 4.595812,-4.14351 5.664485,-7.96932 0.679916,-2.43407 0.696394,-10.4864 0.02643,-12.90893 -1.041908,-3.76739 -3.039324,-6.58865 -5.550709,-7.84012 -1.63734,-0.81592 -4.165674,-0.92389 -6.111222,-0.26098 -1.841979,0.62763 -3.708212,2.45054 -4.804267,4.69275 -1.568183,3.20804 -1.859568,4.75337 -1.854478,9.83499 0.0051,5.04132 0.448847,7.27391 2.038943,10.25724 1.042654,1.95622 3.282066,4.02907 4.920311,4.55434 1.63463,0.52413 4.177704,0.36268 5.670518,-0.35997 z M 2.090354,166.2403 c 0.2437077,-0.19008 1.9569906,-1.41717 3.8072933,-2.72686 13.8057177,-9.77201 27.7463777,-23.70964 37.8498307,-37.8416 1.146852,-1.60413 2.29752,-3.21148 2.557039,-3.57188 0.458264,-0.6364 0.468283,-0.52572 0.347882,3.84265 -0.14024,5.08814 -0.644665,7.96292 -2.16222,12.32274 -4.875948,14.00824 -16.680039,24.3872 -31.291601,27.51371 -3.179588,0.68035 -11.8507586,1.0404 -11.108224,0.46124 z m 91.235018,-16.51151 v -16.82736 l 5.622396,0.1179 c 6.887192,0.14443 7.815202,0.37324 9.877362,2.4354 1.69741,1.69741 2.29642,3.41514 2.28274,6.54608 -0.0136,3.1082 -0.63328,4.78538 -2.43876,6.60033 -1.17377,1.17992 -1.8128,1.59199 -3.0561,1.97069 -0.86461,0.26335 -1.60069,0.49381 -1.63574,0.51213 -0.035,0.0183 1.66159,3.432 3.77031,7.58594 2.10873,4.15395 3.83404,7.6277 3.83404,7.71944 0,0.0917 -0.5126,0.16681 -1.13911,0.16681 h -1.13912 l -3.90771,-7.67292 -3.90771,-7.67291 h -2.890674 -2.890674 v 7.67291 7.67292 h -1.190625 -1.190625 z m 11.974618,-1.35197 c 2.46134,-1.13057 3.6358,-3.25415 3.6358,-6.57397 0,-3.16871 -1.12486,-4.99063 -3.68679,-5.97144 -1.18766,-0.45469 -2.25328,-0.58967 -5.507482,-0.69764 l -4.034896,-0.13388 v 7.07013 7.07012 l 4.167188,-0.0925 c 3.60213,-0.08 4.3379,-0.17093 5.42618,-0.67081 z m 11.83788,1.34785 v -16.83148 l 5.35781,0.12718 c 4.36025,0.1035 5.61302,0.22001 6.72849,0.62575 2.09815,0.76318 3.61872,1.96783 4.34418,3.4416 0.55389,1.12522 0.6351,1.66267 0.63475,4.20072 -2.6e-4,2.48229 -0.0851,3.06875 -0.57615,3.9868 -0.53996,1.00946 -1.99599,2.49275 -3.14857,3.20754 -0.46921,0.29098 -0.47187,0.31636 -0.0346,0.33073 1.47085,0.0483 3.91591,1.95726 4.89327,3.82033 0.64834,1.23588 0.7098,1.60968 0.70126,4.26502 -0.0109,3.39917 -0.43441,4.63417 -2.27305,6.62886 -2.32512,2.52246 -4.18274,3.02113 -11.26953,3.02529 l -5.35781,0.003 z m 11.45367,14.32133 c 3.89989,-1.01579 5.75111,-3.74197 5.41176,-7.96954 -0.20725,-2.58195 -1.13717,-3.94635 -3.49692,-5.13073 l -1.84504,-0.92604 -4.7034,-0.0918 -4.7034,-0.0918 v 7.30174 7.30174 h 3.91316 c 2.60978,0 4.41633,-0.13106 5.42384,-0.39348 z m -1.78722,-16.56394 c 3.79208,-0.701 5.4148,-2.57742 5.4148,-6.26135 0,-2.97296 -1.28537,-4.81783 -3.93763,-5.65159 -0.52644,-0.16549 -2.77286,-0.35806 -4.99206,-0.42791 l -4.03489,-0.12702 v 6.37827 6.37827 h 2.99411 c 1.64677,0 3.69682,-0.1299 4.55567,-0.28867 z m 15.46897,2.27305 v -16.80105 h 1.05833 1.05833 v 16.80105 16.80104 h -1.05833 -1.05833 z m 16.6047,1.12448 -0.0682,-15.67657 -4.56407,-0.0724 -4.56406,-0.0724 v -1.05209 -1.05209 h 10.18646 10.18646 v 1.05834 1.05833 h -4.49792 -4.49792 v 15.74271 15.74271 h -1.05623 -1.05624 z m 11.81911,12.83229 c 0.47075,-1.56435 2.74784,-9.13037 5.06021,-16.81339 l 4.2043,-13.96911 1.06207,0.0785 1.06207,0.0785 1.00864,3.30729 c 0.55476,1.81901 2.83049,9.34971 5.05719,16.73489 l 4.04855,13.42761 h -1.12515 -1.12515 l -0.5373,-1.78594 c -0.29551,-0.98226 -1.03931,-3.54211 -1.65288,-5.68854 l -1.11558,-3.9026 h -5.63643 -5.63644 l -0.49235,1.65364 c -0.2708,0.90951 -1.02057,3.46807 -1.66615,5.6857 l -1.17379,4.03205 -1.09885,0.003 -1.09886,0.003 0.8559,-2.84428 z m 15.23244,-10.75838 c 0,-0.0599 -0.99824,-3.60201 -2.21831,-7.87136 -1.22007,-4.26935 -2.32901,-8.2387 -2.4643,-8.82078 l -0.24599,-1.05834 -0.34582,1.45521 c -0.1902,0.80037 -1.28392,4.74855 -2.43049,8.77374 -1.14657,4.02519 -2.08468,7.38871 -2.08468,7.47448 0,0.0858 2.20266,0.15595 4.8948,0.15595 2.69213,0 4.89479,-0.049 4.89479,-0.1089 z m 10.58333,-3.21361 v -16.81625 l 1.12448,0.0814 1.12448,0.0814 0.0682,15.67656 0.0683,15.67656 h 6.48019 6.48019 v 1.05834 1.05833 h -7.67291 -7.67292 z M 74.236656,123.67607 c -2.38832,-0.32404 -5.297699,-1.40913 -7.369617,-2.74858 -2.227397,-1.43997 -2.56754,-1.84153 -2.082916,-2.45904 1.001083,-1.2756 3.765039,-4.56439 3.835987,-4.56439 0.04463,0 0.811953,0.47234 1.70515,1.04964 2.369497,1.53148 4.271822,2.17571 6.463654,2.18895 2.264516,0.0137 3.646599,-0.51646 4.21576,-1.6171 0.512246,-0.99058 0.523994,-1.70051 0.04351,-2.62966 -0.462402,-0.89418 -1.474478,-1.4612 -5.979065,-3.34976 -1.964531,-0.82364 -4.131138,-1.85531 -4.814681,-2.29258 -5.259236,-3.36447 -6.111562,-9.960575 -1.852948,-14.339856 2.083271,-2.1423 5.757304,-3.606692 9.048879,-3.606692 3.09929,0 7.65215,1.663119 9.755921,3.56375 l 1.088747,0.983618 -1.766448,2.153493 c -0.971548,1.184421 -1.854613,2.257429 -1.962367,2.384462 -0.107755,0.127033 -0.556297,-0.02564 -0.996762,-0.339283 -4.310322,-3.069221 -10.087841,-2.635245 -10.087841,0.757745 0,1.690323 0.689854,2.184943 6.149076,4.408773 4.346628,1.77061 5.89462,2.66599 7.336321,4.24345 1.545371,1.69088 2.147909,3.32108 2.155849,5.83277 0.0098,3.0893 -0.74763,4.96184 -2.847012,7.03879 -2.724875,2.69576 -7.345743,3.97829 -12.0392,3.3415 z m 31.127254,0.0117 c -5.66141,-0.7961 -9.131307,-4.21321 -10.360296,-10.20268 -0.351727,-1.71414 -0.435044,-4.04091 -0.458703,-12.81021 l -0.02891,-10.715628 h 3.836458 3.836451 l 0.1323,11.509378 c 0.12688,11.03925 0.15532,11.55918 0.69616,12.7287 1.03547,2.23912 3.40936,3.34901 6.09136,2.84795 2.53678,-0.47392 3.85717,-2.25714 4.32203,-5.83703 0.13816,-1.06393 0.25487,-6.31332 0.25936,-11.665319 l 0.008,-9.730904 3.63802,0.07361 3.63802,0.07361 0.0768,8.202083 c 0.13951,14.89277 -0.55391,18.79237 -3.95861,22.26217 -1.42963,1.45696 -3.40436,2.56931 -5.27756,2.9728 -1.86677,0.40211 -4.74082,0.53196 -6.45108,0.29147 z m 23.2152,-17.12591 0.0681,-16.602608 7.01145,0.02722 c 3.85631,0.01497 7.66631,0.154292 8.46667,0.309602 5.92881,1.150482 8.99583,4.68901 8.99583,10.378806 0,4.48778 -1.93471,7.81901 -5.63216,9.69761 -2.17722,1.10619 -3.76218,1.43731 -7.66315,1.60091 l -3.63802,0.15257 v 5.51925 5.51924 h -3.83844 -3.83845 z m 14.65584,-1.41946 c 1.77741,-0.91469 2.34563,-1.97598 2.34563,-4.38102 0,-2.144988 -0.43568,-2.994459 -2.01203,-3.922961 -0.73524,-0.433073 -1.48696,-0.546119 -4.13953,-0.622519 l -3.24115,-0.09335 v 4.95598 4.95599 l 2.88798,-0.11899 c 2.40491,-0.0991 3.10059,-0.22841 4.1591,-0.77313 z m 15.50666,1.41946 0.0681,-16.602608 10.38489,-0.06922 10.3849,-0.06922 v 3.310363 3.310363 h -6.61459 -6.61458 v 3.169738 3.169734 l 5.6224,0.0714 5.62239,0.0714 0.0743,3.24114 0.0743,3.24115 h -5.69668 -5.69669 v 3.70416 3.70417 h 6.87917 6.87916 v 3.175 3.175 h -10.71761 -10.71761 z m 27.98168,-0.10471 V 89.749848 l 7.60677,0.157095 c 8.23511,0.170072 9.91469,0.401417 12.28657,1.692358 1.82206,0.991688 3.46629,2.854596 4.16891,4.723354 0.5131,1.364681 0.57839,1.961348 0.49072,4.484535 -0.0784,2.25757 -0.22886,3.19237 -0.67059,4.16739 -0.67491,1.48969 -2.94936,3.98038 -4.05182,4.43703 -0.42931,0.17782 -0.78056,0.4428 -0.78056,0.58883 0,0.14604 1.60734,3.09762 3.57187,6.55907 1.96453,3.46146 3.57188,6.36363 3.57188,6.44927 0,0.0856 -1.88793,0.1557 -4.19539,0.1557 h -4.19539 l -3.1468,-5.94774 -3.1468,-5.94775 -2.05052,-0.005 -2.05052,-0.005 v 5.95313 5.95312 h -3.70417 -3.70416 z m 13.81626,-1.56058 c 1.26126,-0.35029 2.56063,-1.44595 3.02075,-2.5472 0.52776,-1.26308 0.4544,-3.237696 -0.15755,-4.241335 -0.89372,-1.465748 -1.83418,-1.773075 -5.7654,-1.884039 l -3.50573,-0.09896 v 4.523874 4.52387 l 2.71198,-0.002 c 1.49159,-8e-4 3.15477,-0.12445 3.69595,-0.27475 z"
         style="fill:#d0d0d0;fill-opacity:1;stroke-width:0.26458335" />
      <path
         id="path3807"
         d="m -35.960109,175.17437 c -2.57113,-0.58708 -4.548529,-1.68509 -6.458549,-3.58633 -3.020731,-3.00683 -4.10034,-6.28539 -3.878668,-11.77877 0.180854,-4.48185 1.415251,-9.40539 3.747903,-14.94895 1.231341,-2.9263 4.470987,-9.08334 5.241409,-9.96145 l 0.732236,-0.83459 -0.388592,-2.47334 c -1.492632,-9.50041 -0.159752,-18.11296 4.080768,-26.36833 8.488518,-16.525292 26.6227563,-25.578186 44.864557,-22.397082 2.267836,0.395478 2.360824,0.391931 2.753569,-0.105017 0.426969,-0.540249 5.453377,-3.301469 8.608557,-4.729045 10.490198,-4.746342 19.282389,-5.826307 25.136308,-3.087552 2.093582,0.979481 4.807017,3.684182 5.777328,5.758734 2.205839,4.716138 1.960489,11.337399 -0.707731,19.099546 -1.392243,4.050186 -1.897676,5.215256 -4.241146,9.776246 -4.307166,8.38283 -9.797159,16.32926 -17.456838,25.26771 -3.339439,3.89695 -13.68702,14.16374 -17.636045,17.49834 -14.16760168,11.9633 -28.038563,19.94276 -39.066695,22.47364 -3.078097,0.7064 -8.848572,0.91224 -11.108371,0.39624 z m 9.110653,-4.51155 c 11.277089,-2.40864 25.3740125,-10.56422 39.439667,-22.81727 21.149331,-18.42387 36.909073,-41.96162 38.712121,-57.81796 0.465204,-4.091078 -0.347821,-7.644432 -2.268715,-9.915511 -0.982292,-1.161368 -3.599822,-2.381023 -5.907846,-2.7528 -2.356882,-0.379647 -5.895491,-0.03091 -9.689849,0.954944 -6.030656,1.566896 -16.514929,6.485674 -13.824082,6.485674 0.557453,0 5.637493,2.569657 7.636452,3.862778 5.503283,3.560056 10.711785,9.027765 13.787596,14.473755 l 1.202192,2.12859 -1.176917,2.269 c -3.225199,6.21792 -8.816329,14.11024 -15.571549,21.98046 -3.22123,3.75292 -12.281056,12.78743 -16.0921722,16.0472 -7.6669105,6.55778 -14.8001036,11.60444 -21.4236168,15.157 l -2.42656,1.3015 -1.342715,-0.67709 c -3.501342,-1.7656 -8.34301,-5.63037 -11.427019,-9.12139 -3.026333,-3.42574 -6.154656,-8.50306 -7.959033,-12.91763 -0.25218,-0.61699 -0.368429,-0.46577 -1.728884,2.24895 -4.235409,8.45156 -6.319491,16.5182 -5.521163,21.37019 0.569524,3.4614 1.901808,5.63174 4.237426,6.90295 2.742152,1.49247 6.854339,1.79574 11.344667,0.83666 z m 100.429773,-3.59786 c -2.866046,-0.37714 -5.941726,-2.71691 -7.737162,-5.88592 -2.559352,-4.51735 -3.297733,-12.42366 -1.731682,-18.54221 1.074174,-4.19679 3.70474,-7.76665 6.856608,-9.30488 1.41632,-0.69122 1.859134,-0.77476 4.106606,-0.77476 2.31018,0 2.664756,0.0717 4.275317,0.86458 3.256717,1.60328 5.621075,4.87249 6.876489,9.50817 0.454208,1.67718 0.564023,2.87854 0.587595,6.42829 0.03487,5.25123 -0.381458,7.44065 -2.091865,11.00081 -2.37763,4.94897 -6.345483,7.33708 -11.141906,6.70592 z m 4.738095,-2.83714 c 2.45097,-1.08418 4.650719,-4.15822 5.62319,-7.85813 1.332809,-5.07085 0.757025,-12.68763 -1.258589,-16.64934 -0.828008,-1.62745 -2.982362,-3.73323 -4.477284,-4.37632 -1.943484,-0.83607 -4.60433,-0.78803 -6.453122,0.1165 -2.553337,1.24923 -4.736176,4.4367 -5.712383,8.34145 -0.562933,2.25169 -0.494162,9.97397 0.108387,12.17084 1.663533,6.06517 4.911846,9.1613 9.333579,8.89631 0.882033,-0.0529 2.158333,-0.34145 2.836222,-0.64131 z M 2.3031081,166.1023 c 0.3607224,-0.25971 1.9680661,-1.40829 3.571875,-2.55241 6.9482329,-4.9567 12.3931199,-9.54929 19.0196729,-16.04249 7.480681,-7.33015 13.440503,-14.21886 18.719864,-21.63752 1.21998,-1.71434 2.430629,-3.41133 2.690333,-3.77109 0.458766,-0.63551 0.468522,-0.53 0.343207,3.71152 -0.143171,4.84584 -0.659514,7.9271 -1.999729,11.93336 -4.220424,12.61599 -14.086115,22.48168 -26.702099,26.7021 -4.006265,1.34022 -7.087528,1.85656 -11.9333587,1.99973 -4.2420301,0.12533 -4.3470565,0.11562 -3.7097652,-0.3432 z m 91.0864359,-16.28105 0.06812,-16.73489 5.423958,0.009 c 6.688708,0.0111 7.863948,0.29032 9.933878,2.36026 1.84659,1.84659 2.3475,3.48146 2.18074,7.11762 -0.10173,2.21826 -0.24309,2.91917 -0.81466,4.03952 -0.92102,1.80529 -2.68518,3.31782 -4.60038,3.94423 -0.84711,0.27707 -1.57724,0.52485 -1.62251,0.55062 -0.0453,0.0258 1.65137,3.43288 3.77031,7.57136 2.11894,4.13848 3.85262,7.60386 3.85262,7.70085 0,0.097 -0.50601,0.17363 -1.12448,0.17032 l -1.12448,-0.006 -3.87976,-7.60075 -3.87976,-7.60074 -3.065551,-0.0746 -3.06555,-0.0745 v 7.68131 7.68132 h -1.060307 -1.060305 z m 12.371246,-1.68171 c 2.14304,-1.21026 2.97347,-2.6685 3.11989,-5.47857 0.19584,-3.75831 -0.75408,-5.633 -3.44869,-6.80604 -1.20685,-0.52537 -1.96018,-0.62191 -5.690472,-0.72923 l -4.299479,-0.12369 v 7.0725 7.07249 l 4.431771,-0.0928 c 4.39295,-0.092 4.44452,-0.10002 5.88698,-0.91464 z m 11.37708,1.63757 v -16.82305 l 4.16719,0.002 c 5.05879,0.002 7.10237,0.29689 9.23038,1.33001 2.70141,1.31139 3.80035,3.30473 3.80035,6.8933 0,3.34717 -1.32669,5.91061 -3.68741,7.12487 -0.63435,0.32628 -0.62373,0.33944 0.66146,0.81939 1.84624,0.68949 3.13865,1.85657 4.00132,3.61332 0.65764,1.33923 0.74439,1.80897 0.74416,4.0295 -2.7e-4,3.43907 -0.54832,4.95653 -2.49145,6.89967 -2.4483,2.4483 -3.4366,2.71408 -10.53902,2.83429 l -5.88698,0.0996 z m 12.70199,13.95468 c 1.62004,-0.73546 2.81668,-1.78953 3.51461,-3.0959 0.48322,-0.90447 0.58311,-1.52132 0.58371,-3.60474 5.3e-4,-2.19115 -0.0841,-2.66475 -0.66072,-3.69242 -1.4642,-2.60954 -3.89773,-3.45133 -9.97747,-3.45133 h -4.04545 v 7.30174 7.30174 l 4.69635,-0.10883 c 4.01679,-0.0931 4.86893,-0.18718 5.88897,-0.65026 z m -1.53358,-16.50433 c 1.39007,-0.47137 2.83999,-1.7504 3.41204,-3.00989 0.66086,-1.45503 0.66247,-4.40384 0.003,-5.83955 -0.60169,-1.3103 -1.14402,-1.80156 -2.81935,-2.5539 -1.13054,-0.50769 -1.89304,-0.60552 -5.48044,-0.70317 l -4.16719,-0.11344 v 6.41378 6.41378 l 4.0349,-0.13731 c 2.21919,-0.0755 4.47677,-0.28716 5.01684,-0.4703 z m 13.96701,2.52765 v -16.80105 h 1.05833 1.05833 v 16.80105 16.80104 h -1.05833 -1.05833 z m 16.66875,1.05833 v -15.74271 h -4.63021 -4.63021 v -1.05833 -1.05834 h 10.18646 10.18646 v 1.05834 1.05833 h -4.49792 -4.49792 v 15.74271 15.74271 h -1.05833 -1.05833 z m 15.91725,-0.84341 c 2.75309,-9.13738 5.10487,-16.71267 5.22617,-16.83397 0.1213,-0.1213 0.62146,-0.1821 1.11148,-0.13512 l 0.89093,0.0854 4.95422,16.40416 c 2.72482,9.0223 4.95841,16.553 4.96354,16.7349 0.006,0.209 -0.36609,0.33073 -1.01068,0.33073 h -1.02 l -1.3799,-4.69635 c -0.75894,-2.583 -1.50942,-5.14284 -1.66771,-5.68855 l -0.28781,-0.99218 h -5.63816 -5.63816 l -0.65631,2.18281 c -0.36097,1.20055 -1.1121,3.73062 -1.66919,5.62239 l -1.01288,3.43959 -1.08558,0.0798 -1.08558,0.0798 z m 11.07025,2.87728 c 0,-0.1183 -0.54729,-2.05306 -1.2162,-4.29948 -0.66891,-2.24641 -1.78036,-6.14466 -2.4699,-8.66277 l -1.2537,-4.57837 -0.7388,2.85858 c -0.40634,1.57222 -1.49754,5.45343 -2.42489,8.62491 -0.92736,3.17148 -1.6861,5.88015 -1.6861,6.01927 0,0.15176 1.95809,0.25295 4.8948,0.25295 2.69213,0 4.89479,-0.0968 4.89479,-0.21509 z m 10.6475,-3.02606 0.0681,-16.73489 0.99219,-0.0821 0.99219,-0.0821 v 15.75868 15.75868 h 6.61458 6.61458 v 1.05834 1.05833 h -7.67489 -7.67488 z M 74.804539,123.67773 c -3.289977,-0.30587 -7.218206,-1.8915 -9.43646,-3.80903 l -1.00126,-0.86552 1.580841,-1.91666 c 0.86946,-1.05416 1.829956,-2.22184 2.134433,-2.59484 l 0.553598,-0.67818 0.90161,0.67757 c 4.219261,3.17082 10.095516,3.68736 11.480467,1.00915 0.220744,-0.42687 0.401354,-1.02608 0.401354,-1.33157 0,-0.91404 -0.748842,-2.07986 -1.62797,-2.53447 -0.453896,-0.23472 -2.599717,-1.18676 -4.768493,-2.11564 -5.592442,-2.39523 -7.247856,-3.67064 -8.601215,-6.62677 -0.691761,-1.511 -0.870035,-4.465561 -0.370584,-6.141773 1.958131,-6.571697 11.035049,-9.372665 18.39967,-5.677796 1.505051,0.755091 3.583176,2.356986 3.583176,2.762042 0,0.207063 -2.0193,2.867244 -3.447402,4.541528 -0.100587,0.117928 -0.725498,-0.151789 -1.388692,-0.599372 -4.105193,-2.770562 -9.71599,-2.239575 -9.71599,0.919491 0,1.86029 0.438582,2.19542 5.688542,4.34675 4.909749,2.01192 6.336287,2.82227 7.813328,4.43839 1.555224,1.70166 2.108547,3.29304 2.108547,6.06426 0,2.62825 -0.717471,4.45852 -2.5038,6.38719 -2.702158,2.91748 -6.772444,4.21115 -11.7837,3.74525 z m 30.936741,-0.0277 c -3.36473,-0.31514 -6.146391,-1.70325 -8.000605,-3.99248 -1.143492,-1.41177 -1.69133,-2.48724 -2.384176,-4.6804 -0.512299,-1.62166 -0.554167,-2.48789 -0.64331,-13.31007 l -0.09535,-11.575516 h 3.694718 3.694713 l 0.1139,10.914066 c 0.12863,12.32565 0.21767,12.97894 2.0137,14.77364 1.91574,1.91431 5.43534,1.92274 7.4334,0.0178 1.86493,-1.77801 1.94778,-2.37099 2.06664,-14.79144 l 0.10444,-10.914066 h 3.55134 3.55135 v 10.726776 c 0,8.67079 -0.0791,11.11767 -0.41278,12.76615 -1.4993,7.40735 -6.49761,10.83265 -14.68798,10.06554 z m 22.77368,-17.02201 V 90.091564 l 7.20989,0.0046 c 5.33629,0.0034 7.68953,0.106191 9.05557,0.395555 5.12587,1.085789 7.99,4.324193 8.27627,9.357775 0.27558,4.845496 -1.65138,8.537596 -5.46331,10.467856 -2.20922,1.11869 -3.98439,1.49773 -7.76749,1.65853 l -3.63802,0.15464 v 5.51698 5.51699 h -3.83646 -3.83645 v -16.53646 z m 14.82574,-1.47005 c 2.72278,-1.49007 3.25092,-6.039495 0.91448,-7.877335 -1.02667,-0.80758 -2.25034,-1.075408 -5.28918,-1.157654 l -2.64584,-0.07161 -0.0721,4.991119 -0.0721,4.99112 2.9916,-0.11451 c 2.54157,-0.0973 3.16935,-0.21178 4.17315,-0.76113 z m 15.33675,1.47005 V 90.091564 h 10.45105 10.45104 v 3.175 3.175 h -6.61459 -6.61458 v 3.307292 3.307294 h 5.69694 5.69694 l -0.0745,3.10885 -0.0746,3.10886 -5.62239,0.0714 -5.6224,0.0714 v 3.69891 3.6989 h 6.87917 6.87916 v 3.175 3.175 h -10.71562 -10.71563 z m 28.04584,0 V 90.091564 h 7.37222 c 4.05472,0 7.95802,0.111095 8.674,0.246877 3.66445,0.694949 6.34826,2.529973 7.68681,5.255765 0.69153,1.408221 0.74093,1.729318 0.74093,4.816104 0,3.10643 -0.0453,3.39567 -0.74545,4.7625 -0.88009,1.71804 -2.26892,3.23156 -3.79169,4.13213 l -1.09756,0.6491 3.67724,6.47351 c 2.02249,3.56043 3.67725,6.53278 3.67725,6.60522 0,0.0724 -1.88121,0.13171 -4.18046,0.13171 h -4.18046 l -3.16173,-5.95265 -3.16173,-5.95264 -2.05052,-4.8e-4 -2.05052,-4.8e-4 v 5.95313 5.95312 h -3.70417 -3.70416 z m 15.01154,-2.19603 c 1.59391,-0.83784 2.27609,-2.25795 2.13664,-4.447917 -0.18219,-2.861336 -1.59824,-3.756879 -6.04542,-3.823285 -1.52261,-0.02273 -2.97675,-0.02839 -3.23141,-0.01257 -0.4218,0.02621 -0.46302,0.431595 -0.46302,4.553882 v 4.52513 l 3.24115,-0.10302 c 2.71108,-0.0862 3.42446,-0.19937 4.36206,-0.69222 z"
         style="fill:#b9b9b9;fill-opacity:1;stroke-width:0.26458335" />
      <path
         id="path3805"
         d="m -35.75667,175.14426 c -9.354853,-2.02985 -12.802652,-10.89523 -9.15677,-23.54496 1.518623,-5.269 6.333134,-15.69671 7.768532,-16.82579 0.633745,-0.49851 0.641565,-0.54954 0.337294,-2.20088 -0.632144,-3.43076 -0.884278,-8.50826 -0.576551,-11.61061 1.057084,-10.65701 4.90189,-18.87293 12.288852,-26.259893 6.489943,-6.489945 13.992748,-10.402221 22.9061031,-11.944201 3.3924531,-0.586883 10.3475207,-0.576432 13.8552689,0.02082 l 2.610477,0.444476 0.581533,-0.627485 c 0.770202,-0.831062 9.372613,-5.112896 12.718346,-6.330534 11.160939,-4.061884 19.172398,-3.753468 24.123059,0.928661 4.535901,4.289866 5.253122,11.980232 2.045163,21.92913 -3.434117,10.650286 -11.071891,23.036946 -22.165839,35.947736 -3.26087,3.7949 -12.830621,13.33167 -16.702383,16.64482 -17.6085922,15.06806 -34.899084,23.91684 -46.535178,23.8154 -1.327006,-0.0116 -3.171064,-0.18558 -4.097907,-0.38669 z m 9.648485,-4.63603 C -9.2411547,166.8689 15.752014,148.30871 32.827174,126.74222 45.450588,110.79844 52.662415,94.686173 51.293895,85.484903 50.567799,80.602974 47.985785,78.046479 43.055442,77.327874 38.017354,76.593565 29.826627,78.754951 21.393409,83.044097 l -2.743425,1.395308 1.288217,0.483779 c 8.311441,3.121297 15.942453,9.718537 21.027054,18.178526 l 1.276503,2.1239 -0.770565,1.52648 c -0.423809,0.83956 -1.623509,2.94104 -2.665997,4.66995 -11.521892,19.10848 -32.306762,39.21332 -51.067218,49.39642 l -2.267603,1.23084 -2.173269,-1.2523 c -5.175516,-2.9823 -10.648173,-8.07797 -13.862476,-12.90756 -1.720864,-2.58565 -4.68493,-8.33484 -4.699119,-9.11454 -0.01719,-0.94422 -3.700864,6.73467 -5.013521,10.45104 -1.947148,5.51273 -2.733743,10.65521 -2.146041,14.03004 0.986869,5.66702 4.636224,8.22962 11.288783,7.92704 1.323887,-0.0602 3.586074,-0.36387 5.027083,-0.67479 z m 97.66634,-4.04784 c -2.713747,-1.14334 -4.454084,-2.86332 -5.980449,-5.9105 -2.162775,-4.31767 -2.881095,-11.75972 -1.647732,-17.07107 1.693701,-7.29373 6.256779,-11.45127 12.036462,-10.96672 4.887177,0.40973 8.48614,4.13993 10.254469,10.62842 0.833773,3.05936 0.830749,10.12972 -0.0057,13.22917 -1.279022,4.73961 -3.791064,8.33858 -6.872539,9.84621 -1.19757,0.58591 -1.904317,0.73276 -3.86189,0.80241 -2.061668,0.0734 -2.60912,-0.004 -3.922659,-0.55792 z m 6.685967,-2.14177 c 1.665097,-0.84649 2.686005,-1.77552 3.735544,-3.39936 3.294475,-5.09719 3.710612,-14.77504 0.889606,-20.68915 -1.687899,-3.53861 -4.465307,-5.50306 -7.776628,-5.50036 -4.230971,0.003 -7.36818,3.00603 -8.926089,8.54307 -0.695145,2.47065 -0.697302,10.48076 -0.0035,12.96458 1.14699,4.10618 3.379526,7.12445 6.052386,8.18251 1.710558,0.67713 4.59273,0.6287 6.028669,-0.10129 z m -76.1999986,2.11893 c 0,-0.0652 1.6071347,-1.25971 3.5714146,-2.65438 7.216915,-5.12417 13.036449,-10.0603 20.070675,-17.02398 7.30641,-7.23313 12.939643,-13.80577 18.351965,-21.41236 l 2.588236,-3.63756 0.08164,2.51354 c 0.168606,5.19139 -1.053079,11.42453 -3.264151,16.65397 -5.823781,13.77392 -18.810356,23.58809 -33.5945664,25.38798 -2.3383584,0.28468 -7.8052082,0.4057 -7.8052082,0.17279 z M 93.589956,149.75511 v -16.80105 l 4.167187,0.005 c 8.501597,0.0107 11.230247,1.10982 12.734187,5.12945 0.68095,1.82002 0.7595,5.21376 0.16686,7.20941 -0.76995,2.59268 -3.02415,4.76698 -5.62501,5.42563 -0.61846,0.15662 -1.12447,0.34602 -1.12447,0.42088 0,0.0749 1.7264,3.49971 3.83645,7.61075 2.11006,4.11105 3.83646,7.548 3.83646,7.63768 0,0.0897 -0.50601,0.16133 -1.12448,0.15922 l -1.12448,-0.004 -3.83645,-7.60295 -3.83646,-7.60295 -3.108857,-0.0746 -3.108854,-0.0745 v 7.68131 7.68132 h -0.926042 -0.926041 z m 11.037104,-1.08554 c 2.97866,-0.99776 4.08161,-2.65285 4.25693,-6.38798 0.10461,-2.22865 0.0536,-2.57019 -0.57259,-3.83646 -1.26824,-2.5645 -3.48135,-3.3744 -9.220783,-3.3744 h -3.648578 v 7.01146 7.01146 h 3.959503 c 2.929468,0 4.288848,-0.11032 5.225518,-0.42408 z m 12.51081,1.10754 v -16.82305 l 3.90261,0.008 c 4.9236,0.0103 7.49941,0.34165 9.22715,1.18696 2.71393,1.32779 3.83319,3.10457 4.01252,6.36967 0.16845,3.06691 -0.38552,4.80781 -2.06401,6.4863 -0.71211,0.7121 -1.479,1.29473 -1.70421,1.29473 -0.79951,0 -0.3916,0.41136 0.8473,0.85445 1.77694,0.63553 3.08862,1.82467 3.95193,3.58273 0.66906,1.36249 0.74327,1.78378 0.73307,4.16178 -0.01,2.33439 -0.10063,2.84206 -0.76973,4.31284 -0.92938,2.04288 -2.73566,3.75131 -4.85411,4.59115 -1.37246,0.54409 -2.03968,0.60704 -7.39554,0.69768 l -5.88698,0.0996 V 149.7769 Z m 9.53088,14.64596 c 4.86265,-0.60972 7.0765,-2.65744 7.34671,-6.79542 0.17138,-2.62453 -0.28824,-4.12941 -1.68906,-5.53023 -1.74255,-1.74256 -3.61798,-2.21002 -8.8664,-2.21002 h -4.20546 v 7.40833 7.40834 h 2.58663 c 1.42264,0 3.59506,-0.12645 4.82758,-0.281 z m 1.655,-17.16239 c 1.32309,-0.41379 2.80576,-1.74724 3.40193,-3.05955 0.65741,-1.44713 0.65101,-4.39221 -0.0127,-5.85382 -1.09265,-2.40608 -3.46832,-3.27658 -8.94213,-3.27658 h -3.51628 v 6.37827 6.37827 l 4.03489,-0.12701 c 2.2192,-0.0699 4.48464,-0.26767 5.03432,-0.43958 z m 13.94954,2.47845 v -16.81701 l 0.99219,0.0821 0.99218,0.0821 0.0681,16.73489 0.0681,16.7349 h -1.0603 -1.06031 z m 16.66875,1.07431 v -15.74271 h -4.64618 -4.64618 l 0.0821,-0.99219 0.0821,-0.99218 10.12032,-0.0693 10.12031,-0.0693 v 1.06148 1.06147 h -4.49792 -4.49792 v 15.74271 15.74271 h -1.05833 -1.05833 z m 11.1195,15.42795 c 0.004,-0.19068 2.2365,-7.72857 4.96142,-16.75087 l 4.95441,-16.40416 h 1.04237 1.04238 l 4.83094,16.00729 c 2.65701,8.80401 4.90586,16.33471 4.99743,16.7349 0.1598,0.69828 0.12473,0.7276 -0.87022,0.7276 h -1.03674 l -1.39625,-4.79649 c -0.76793,-2.63806 -1.50772,-5.20021 -1.64397,-5.69366 l -0.24772,-0.89718 -5.70751,0.0713 -5.70751,0.0713 -1.63721,5.55625 -1.6372,5.55625 -0.97581,0.0821 c -0.67251,0.0566 -0.97363,-0.0256 -0.96881,-0.26459 z m 15.868,-13.38902 c 0,-0.11551 -0.87558,-3.2409 -1.94574,-6.94531 -1.07015,-3.70441 -2.1644,-7.62826 -2.43166,-8.71966 l -0.48594,-1.98438 -0.25529,0.92605 c -0.14042,0.50932 -1.24882,4.41463 -2.46313,8.67846 -1.2143,4.26383 -2.20783,7.86547 -2.20783,8.00365 0,0.14952 1.98154,0.25122 4.8948,0.25122 2.69213,0 4.89479,-0.0945 4.89479,-0.21003 z m 10.6475,-3.03112 0.0681,-16.73489 0.99219,-0.0821 0.99219,-0.0821 v 15.75868 15.75868 h 6.61458 6.61458 v 1.05834 1.05833 h -7.67489 -7.67488 z m -124.284235,-26.555 c -2.021359,-0.48862 -5.515018,-2.19936 -6.872169,-3.36508 l -1.04953,-0.9015 1.952704,-2.34936 c 1.073989,-1.29216 2.032582,-2.44277 2.130208,-2.55692 0.09763,-0.11416 0.881933,0.26284 1.742903,0.83778 2.501818,1.67065 4.153506,2.23652 6.591993,2.25845 3.134971,0.0282 4.616424,-1.00926 4.626308,-3.23976 0.0057,-1.27535 -1.001754,-2.12649 -4.097141,-3.46161 -7.480813,-3.22667 -9.153562,-4.32417 -10.579439,-6.94119 -1.074875,-1.9728 -1.251537,-5.196473 -0.407471,-7.435341 2.633929,-6.986436 13.159853,-8.878103 20.325855,-3.652863 0.625274,0.455932 1.20061,0.995093 1.278524,1.198136 0.08058,0.20999 -0.631967,1.317716 -1.652555,2.569058 -0.986819,1.209939 -1.822228,2.241678 -1.85646,2.292754 -0.03423,0.05108 -0.463568,-0.213242 -0.954082,-0.587374 -1.485022,-1.132682 -3.296359,-1.790037 -5.316352,-1.929365 -1.625793,-0.112138 -2.066227,-0.04293 -3.086979,0.485079 -2.105263,1.088996 -2.249786,3.30812 -0.298786,4.587746 0.528135,0.34639 2.62712,1.30289 4.664411,2.12556 4.698868,1.89741 6.168327,2.73603 7.616513,4.34677 1.580354,1.75773 2.14158,3.58396 1.989841,6.47494 -0.08812,1.67885 -0.281051,2.52785 -0.828923,3.64766 -1.277131,2.61036 -4.129852,4.74987 -7.505658,5.62916 -1.909768,0.49743 -6.291035,0.48039 -8.413715,-0.0327 z m 31.301815,0.0385 c -4.279137,-1.17856 -6.960612,-3.99188 -8.329704,-8.73925 -0.394856,-1.36918 -0.470852,-3.16123 -0.552593,-13.03073 L 94.61755,90.091564 h 3.719536 3.719534 v 9.638147 c 0,12.076629 0.24866,14.115909 1.94918,15.985429 0.9621,1.05771 2.03078,1.46099 3.87166,1.46099 2.41651,0 3.80487,-0.83147 4.85237,-2.90603 0.78666,-1.55795 0.96446,-4.16851 0.96646,-14.19052 l 0.002,-9.988016 h 3.58933 3.58933 l -0.10022,11.575516 c -0.0933,10.77627 -0.13771,11.69474 -0.64327,13.30215 -1.45983,4.64142 -4.00592,7.23574 -8.16421,8.31884 -1.89524,0.49364 -6.60882,0.50305 -8.37463,0.0167 z M 128.51496,106.628 V 90.091564 l 7.20989,0.0046 c 8.09515,0.0052 9.78011,0.224245 12.37937,1.609633 1.90951,1.017761 3.2489,2.437738 4.18747,4.439436 0.62662,1.336392 0.69722,1.79507 0.69722,4.529677 0,2.86921 -0.0479,3.1438 -0.83989,4.8156 -1.43123,3.02114 -3.86886,4.96379 -7.42389,5.91642 -0.83919,0.22488 -3.10338,0.47984 -5.03153,0.56659 l -3.50573,0.15773 v 5.51662 5.51662 h -3.83646 -3.83645 z m 14.82574,-1.47005 c 1.67597,-0.91719 2.43878,-2.46178 2.31061,-4.67866 -0.17976,-3.109118 -1.73897,-4.183032 -6.48688,-4.467887 l -2.97656,-0.178582 v 5.100159 5.10015 l 2.98564,-0.11428 c 2.53544,-0.097 3.16381,-0.21179 4.16719,-0.7609 z m 15.57905,17.87422 c -0.0122,-0.0728 -0.0223,-7.33557 -0.0223,-16.13958 0,-8.804015 0.01,-16.18589 0.0223,-16.404171 0.0194,-0.345613 1.35511,-0.396875 10.34104,-0.396875 h 10.31875 v 3.175 3.175 h -6.61459 -6.61458 v 3.307292 3.307294 h 5.69694 5.69694 l -0.0745,3.10885 -0.0746,3.10886 -5.62239,0.0714 -5.6224,0.0714 v 3.69891 3.6989 h 6.87917 6.87916 v 3.175 3.175 h -10.58333 c -5.82083,0 -10.59336,-0.0595 -10.60562,-0.13229 z M 186.72329,106.628 V 90.091564 l 7.34219,0.0046 c 8.03789,0.005 9.93708,0.23176 12.40638,1.481109 1.73224,0.876436 3.03318,2.212078 3.95684,4.062395 0.59171,1.185337 0.74447,1.906243 0.84461,3.98591 0.18825,3.909352 -0.69891,6.372272 -3.06546,8.510312 -0.59402,0.53666 -1.43988,1.16183 -1.87968,1.38926 l -0.79965,0.41351 0.4942,0.85823 c 2.404,4.17484 6.89432,12.15164 6.89432,12.24738 0,0.0661 -1.87524,0.12001 -4.16719,0.11974 l -4.16719,-4.8e-4 -3.16173,-5.95264 -3.16173,-5.95265 h -2.06379 -2.06379 v 5.95313 5.95312 h -3.70417 -3.70416 z m 14.88802,-2.09091 c 1.65965,-0.8118 2.1776,-1.80497 2.1776,-4.17557 0,-1.86623 -0.0608,-2.096623 -0.74075,-2.80633 -0.99462,-1.038154 -2.34757,-1.397928 -5.91831,-1.573787 l -2.99823,-0.147662 v 4.696729 4.69674 l 3.24115,-0.10113 c 2.4572,-0.0767 3.48239,-0.21913 4.23854,-0.58899 z"
         style="fill:#a3a3a3;fill-opacity:1;stroke-width:0.26458335" />
      <path
         id="path3803"
         d="m -35.75667,175.14426 c -6.581326,-1.42804 -10.59567,-6.74567 -10.613362,-14.05907 -0.0092,-3.79507 0.986637,-8.6139 2.798704,-13.54313 1.415681,-3.85096 5.603046,-12.14631 6.445786,-12.76937 l 0.709096,-0.52426 -0.342987,-1.66784 c -0.943603,-4.58846 -0.919363,-11.68652 0.05632,-16.48983 2.562033,-12.61302 11.013519,-23.634573 22.475366,-29.310054 5.2897241,-2.619275 9.4397666,-3.807703 15.2922493,-4.379167 3.2048185,-0.312934 8.5216946,-0.04568 11.6700427,0.586601 1.424035,0.285987 1.486953,0.273349 2.332496,-0.468518 2.026467,-1.777995 11.628178,-6.160078 16.742711,-7.641134 5.21789,-1.510986 10.924416,-1.82112 14.419791,-0.783676 15.501271,4.600852 11.644588,27.426938 -9.170693,54.277458 -4.056835,5.23308 -7.612187,9.22075 -13.305232,14.92306 -11.320568,11.33902 -22.5794433,19.87905 -33.985472,25.77852 -10.225279,5.28875 -19.243176,7.43342 -25.524812,6.07041 z m 10.54871,-4.83368 c 13.504675,-3.44112 30.3919361,-14.51415 46.048419,-30.1941 11.455379,-11.47254 19.799945,-22.72513 25.433263,-34.29658 6.381462,-13.108207 6.896407,-23.102602 1.385409,-26.888899 -1.877335,-1.289811 -3.585729,-1.675498 -7.250425,-1.636857 -5.186534,0.05469 -10.480339,1.597969 -17.848455,5.203289 l -3.895646,1.906194 2.339237,0.990541 c 4.871545,2.062837 9.886736,5.533356 13.6731,9.461805 2.675636,2.77604 4.111109,4.659646 6.189247,8.121427 l 1.383525,2.3047 -1.220171,2.26046 c -10.736559,19.89031 -33.5105688,42.64139 -53.319896,53.26623 l -2.295935,1.23143 -2.808867,-1.70324 c -5.717822,-3.46719 -10.852015,-8.52466 -14.110238,-13.89938 -1.334047,-2.20063 -3.056724,-5.64258 -3.485656,-6.96443 l -0.331478,-1.02152 -0.948919,1.68298 c -1.371467,2.4324 -3.54496,7.57857 -4.621957,10.94339 -2.11378,6.60401 -2.297006,11.69686 -0.553634,15.38853 2.132894,4.51651 8.077469,5.92368 16.239077,3.84403 z m 96.765697,-3.85036 c -3.541514,-1.49208 -5.95439,-4.6265 -7.399182,-9.61181 -0.528513,-1.82366 -0.598807,-2.65636 -0.598807,-7.0933 0,-5.72278 0.378769,-7.63807 2.19343,-11.09138 3.544646,-6.74548 11.301317,-8.27288 16.348514,-3.21928 2.826001,2.82959 4.442933,7.08292 4.773311,12.55614 0.503867,8.34738 -2.35775,15.35982 -7.360185,18.03627 -1.476086,0.78975 -1.941007,0.90222 -4.048821,0.97946 -2.048928,0.0751 -2.594356,-0.003 -3.90826,-0.5561 z m 7.195965,-2.43249 c 3.841231,-2.09066 5.97104,-7.25295 5.943039,-14.40491 -0.02841,-7.25718 -2.153904,-12.08863 -6.245093,-14.19572 -1.963017,-1.01102 -4.494485,-1.0227 -6.557526,-0.0302 -1.724368,0.82952 -2.247638,1.26431 -3.506596,2.91363 -1.891758,2.47834 -2.8588,6.30738 -2.861657,11.33086 -0.0039,6.77801 1.813621,11.69862 5.148329,13.93855 1.714518,1.15164 2.593051,1.38748 4.809571,1.29114 1.458389,-0.0634 2.177947,-0.24897 3.269933,-0.8433 z m -76.7095786,2.46723 c 0,-0.0759 1.5375202,-1.2317 3.4167127,-2.56838 14.5378799,-10.34085 28.3274559,-24.13042 38.6683029,-38.6683 1.336678,-1.8792 2.492447,-3.41672 2.56838,-3.41672 0.333753,0 -0.204177,8.02724 -0.709946,10.59413 -1.675633,8.50422 -5.414838,15.47288 -11.645641,21.70368 -6.230805,6.23081 -13.199467,9.97001 -21.703683,11.64565 -2.566892,0.50577 -10.5941256,1.0437 -10.5941256,0.70994 z M 93.589956,149.71722 v -16.83893 l 5.357812,0.14869 c 3.811702,0.10579 5.755292,0.27138 6.735202,0.57384 3.27193,1.00992 5.11554,3.56944 5.31553,7.37967 0.14613,2.78415 -0.29026,4.86624 -1.35332,6.45688 -0.97782,1.46311 -2.93919,2.86682 -4.58469,3.28116 -0.63348,0.15951 -1.15178,0.35521 -1.15178,0.43488 0,0.0797 1.7264,3.52081 3.83645,7.64697 2.11006,4.12615 3.83646,7.55918 3.83646,7.62894 0,0.0697 -0.50765,0.12683 -1.12813,0.12683 h -1.12812 l -3.82916,-7.67292 -3.82917,-7.67291 h -3.112498 -3.112503 v 7.67291 7.67292 h -0.926042 -0.926041 z m 10.950084,-0.99814 c 2.94921,-0.88758 4.16824,-2.69412 4.34395,-6.43749 0.10516,-2.24027 0.0554,-2.56801 -0.5909,-3.88892 -1.24293,-2.54044 -3.40784,-3.32194 -9.202473,-3.32194 h -3.648578 v 7.01146 7.01146 h 3.9267 c 2.624001,0 4.339601,-0.12427 5.171301,-0.37457 z m 12.59783,1.03603 v -16.80105 h 3.64496 c 6.43798,0 9.226,0.59224 11.28067,2.39627 1.73145,1.52023 2.14,2.62862 2.14,5.80582 0,2.51132 -0.069,2.90896 -0.7185,4.14042 -0.70914,1.34456 -2.39146,3.00333 -3.04595,3.00333 -0.74333,0 -0.26371,0.43085 0.9657,0.86749 1.74445,0.61958 3.51573,2.37105 4.08829,4.04255 1.35513,3.95618 0.44362,8.39876 -2.21629,10.80183 -2.26882,2.04974 -4.43154,2.54438 -11.12482,2.54438 h -5.01406 z m 9.72377,14.68342 c 2.58757,-0.3361 4.36285,-1.14484 5.60118,-2.55165 2.15213,-2.44496 2.19193,-7.47687 0.0768,-9.70486 -1.67757,-1.76705 -3.66073,-2.28491 -9.23442,-2.41137 l -4.05061,-0.0919 v 7.51266 7.51267 l 2.84427,-0.008 c 1.56435,-0.004 3.70762,-0.12031 4.76283,-0.25737 z m 1.9179,-17.36081 c 1.26836,-0.57701 2.77052,-2.0894 3.21709,-3.23898 0.46441,-1.19556 0.34201,-4.3806 -0.21113,-5.49394 -1.19426,-2.40375 -3.59057,-3.27407 -9.01468,-3.27407 h -3.51628 v 6.37772 6.37773 l 4.16719,-0.10341 c 3.48862,-0.0866 4.36106,-0.1916 5.35781,-0.64505 z m 13.49375,2.66141 v -16.81701 l 0.99219,0.0821 0.99218,0.0821 0.0681,16.73489 0.0681,16.7349 h -1.0603 -1.06031 z m 16.66875,1.07431 v -15.74271 h -4.64618 -4.64618 l 0.0821,-0.99219 0.0821,-0.99218 10.12032,-0.0693 10.12031,-0.0693 v 1.06148 1.06147 h -4.49792 -4.49792 v 15.74271 15.74271 h -1.05833 -1.05833 z m 11.23085,15.03256 c 0.0924,-0.40978 2.34117,-7.94834 4.9972,-16.75235 l 4.82914,-16.00729 h 1.01946 1.01945 l 4.98506,16.53646 c 2.74179,9.09505 4.98657,16.62575 4.98841,16.73489 0.002,0.10914 -0.44975,0.19844 -1.00352,0.19844 h -1.00687 l -1.12895,-3.9026 c -0.62091,-2.14644 -1.37074,-4.70857 -1.66627,-5.69363 l -0.53734,-1.79102 -5.71086,0.0712 -5.71086,0.0712 -1.62845,5.55625 -1.62845,5.55625 -0.99261,0.0836 c -0.96486,0.0813 -0.98791,0.0628 -0.82454,-0.66146 z m 15.75665,-13.02479 c 0,-0.13266 -0.99486,-3.7343 -2.21079,-8.00365 -1.21594,-4.26935 -2.3281,-8.17917 -2.47148,-8.68849 l -0.26069,-0.92605 -0.31234,1.19063 c -0.17179,0.65484 -1.30111,4.6732 -2.5096,8.92969 l -2.19725,7.73906 h 4.98108 c 2.82228,0 4.98107,-0.10453 4.98107,-0.24119 z m 10.84791,-3.0661 v -16.80105 h 0.92605 0.92604 v 15.74271 15.74271 h 6.61458 6.61458 v 1.05834 1.05833 h -7.54062 -7.54063 z M 72.222566,123.16128 c -1.056283,-0.27677 -2.445727,-0.73555 -3.087653,-1.01951 -1.26247,-0.55845 -4.245542,-2.50708 -4.521489,-2.95357 -0.133831,-0.21655 1.442686,-2.30686 3.848436,-5.10266 0.101942,-0.11847 0.872527,0.26598 1.712413,0.85432 4.918032,3.4451 11.244849,3.00299 11.244849,-0.78576 0,-1.60283 -1.045755,-2.46841 -4.914749,-4.06797 -5.096986,-2.10725 -6.712024,-2.99903 -8.209954,-4.5333 -1.740787,-1.78302 -2.485713,-3.64132 -2.485713,-6.200849 0,-4.340364 2.818625,-7.848541 7.474971,-9.30366 3.192505,-0.997665 8.025424,-0.552579 11.178154,1.029448 1.098939,0.551443 3.571875,2.420808 3.571875,2.700086 0,0.344598 -3.42274,4.515792 -3.705506,4.515792 -0.134678,0 -0.814549,-0.361356 -1.510826,-0.803014 -4.663305,-2.957993 -10.768761,-1.447264 -9.211691,2.279332 0.47965,1.147965 0.888053,1.386525 6.042223,3.529385 5.780765,2.40337 7.261638,3.43208 8.600588,5.97451 0.622332,1.1817 0.697479,1.61947 0.703977,4.10104 0.0067,2.55403 -0.05517,2.90143 -0.766831,4.30677 -1.359075,2.68379 -4.089297,4.73437 -7.47912,5.61731 -2.113806,0.55057 -6.104419,0.48581 -8.483954,-0.1377 z m 31.491554,0.12449 c -4.406699,-1.18678 -6.999419,-3.87039 -8.424902,-8.72025 -0.405725,-1.38039 -0.480271,-3.08042 -0.571383,-13.03073 L 94.613049,90.091564 h 3.701452 3.701449 l 0.10401,11.046356 c 0.11834,12.56907 0.18194,13.02836 2.03611,14.70349 2.18512,1.97412 5.25765,1.97412 7.44277,0 1.86805,-1.68767 1.93004,-2.13516 2.03705,-14.70349 l 0.094,-11.046356 h 3.57142 3.57142 l -0.0948,11.443226 c -0.0822,9.92071 -0.15627,11.65445 -0.557,13.03073 -1.43088,4.91426 -3.98135,7.61025 -8.25175,8.72255 -1.94389,0.50631 -6.37114,0.50508 -8.25513,-0.002 z m 24.80084,-16.65775 V 90.091564 l 7.0776,0.0046 c 7.62179,0.0049 9.49695,0.222718 12.07305,1.402096 0.75828,0.347155 1.8243,1.022434 2.36893,1.500621 4.01518,3.525378 4.11503,11.410159 0.19416,15.331039 -2.4306,2.43059 -5.26512,3.39786 -10.66739,3.64019 l -3.63802,0.16319 v 5.5156 5.51559 h -3.70417 -3.70416 v -16.53646 z m 13.62604,-0.95754 c 2.31333,-0.64074 3.55521,-2.35142 3.56606,-4.91221 0.0147,-3.459813 -1.79718,-4.67555 -7.00565,-4.70077 l -2.64583,-0.01281 -0.072,4.96094 -0.072,4.96093 2.58553,-0.002 c 1.42204,-8e-4 3.06177,-0.13339 3.64386,-0.29461 z m 16.80104,0.95754 V 90.091564 h 10.31875 10.31875 v 3.175 3.175 h -6.61459 -6.61458 v 3.307292 3.307294 h 5.68854 5.68854 v 3.04271 3.0427 h -5.68854 -5.68854 v 3.83646 3.83646 h 6.87917 6.87916 v 3.175 3.175 h -10.58333 -10.58333 z m 27.78125,-0.0202 V 90.051195 l 8.13594,0.103691 c 8.95185,0.11409 9.47353,0.192871 12.2278,1.846576 3.03137,1.820079 4.42681,4.87625 4.18255,9.160268 -0.20962,3.67637 -1.58893,6.15937 -4.45218,8.01469 l -1.28701,0.83396 0.63288,1.08694 c 1.52202,2.61402 6.75377,11.88962 6.75377,11.97407 0,0.0512 -1.87524,0.0918 -4.16719,0.0902 l -4.16719,-0.003 -3.14542,-5.95023 -3.14542,-5.95022 h -2.0801 -2.0801 v 5.95313 5.95312 h -3.70417 -3.70416 v -16.55664 z m 14.93396,-2.11464 c 1.73598,-0.91067 2.13166,-1.67592 2.13166,-4.12261 0,-2.092578 -0.0112,-2.127895 -0.9508,-2.988942 -1.11792,-1.024491 -3.09923,-1.469241 -6.54535,-1.469241 h -2.16114 v 4.651783 4.65179 l 3.24115,-0.0877 c 2.64983,-0.0717 3.43149,-0.18758 4.28448,-0.63505 z"
         style="fill:#8c8c8c;fill-opacity:1;stroke-width:0.26458335" />
      <path
         id="path3801"
         d="m -35.582016,175.16774 c -7.857179,-1.64717 -11.792701,-8.30538 -10.51334,-17.78672 0.395588,-2.9317 1.455704,-6.86354 2.805175,-10.40404 1.530421,-4.01524 4.998072,-10.93383 6.01031,-11.99166 0.442425,-0.46234 0.788563,-0.9035 0.769197,-0.98033 -0.429131,-1.70259 -0.885255,-6.73006 -0.883931,-9.74282 0.0037,-8.51443 2.305023,-16.1249 7.014139,-23.19614 8.457304,-12.699544 23.1200509,-19.842458 38.2383609,-18.6277 1.8228945,0.146469 4.0312261,0.414289 4.9074041,0.595155 1.579462,0.326041 1.598046,0.322812 2.178876,-0.378527 0.748514,-0.903817 9.280146,-5.141697 13.161406,-6.537605 3.340344,-1.201367 6.507732,-2.00756 9.478,-2.412429 12.390696,-1.688943 19.559664,5.478354 17.893016,17.888849 -1.585357,11.805177 -9.978943,27.149907 -23.492497,42.947787 -3.580402,4.18564 -12.473254,13.1458 -16.446227,16.57071 -14.58420071,12.57236 -29.202673,21.07463 -40.684897,23.66279 -3.066113,0.69112 -8.106606,0.8808 -10.434992,0.39268 z m 9.580306,-4.60765 c 9.387248,-2.22194 21.4509695,-8.81176 33.2052083,-18.13838 C 14.063763,146.9783 23.914767,137.49861 29.113959,131.33712 42.712237,115.22198 50.740378,100.04279 51.427689,89.147492 52.261986,75.922153 40.999058,73.412245 22.17411,82.628423 l -3.550222,1.738092 0.904389,0.396683 c 7.979984,3.500179 13.286216,7.398206 17.878223,13.133574 2.079377,2.597118 4.589706,6.681358 4.589706,7.467328 0,0.83629 -4.117596,7.74113 -7.564607,12.68516 -11.636761,16.69056 -31.577258,34.92746 -46.606308,42.62455 l -2.444874,1.25213 -1.391584,-0.76981 c -5.503205,-3.0443 -11.143249,-8.22949 -14.559913,-13.3857 -1.701447,-2.56771 -3.409739,-5.8009 -4.613093,-8.73095 -0.251052,-0.61128 -0.403808,-0.39052 -2.013881,2.91042 -7.719198,15.82575 -7.222305,26.56928 1.33617,28.88988 2.267748,0.61489 6.599938,0.49201 9.860174,-0.27969 z m 98.028124,-3.93598 c -3.812847,-1.36956 -6.523775,-4.85739 -7.970276,-10.25442 -0.699963,-2.61164 -0.705009,-10.82624 -0.0082,-13.36146 0.753422,-2.74121 2.399112,-5.89059 3.863943,-7.39448 4.189939,-4.30165 10.836608,-4.0911 14.851861,0.47047 4.606372,5.23312 5.530488,16.78693 1.943465,24.29832 -1.222459,2.5599 -3.14715,4.6179 -5.318432,5.68682 -2.195898,1.08104 -5.255371,1.31157 -7.362356,0.55475 z m 6.27734,-2.28731 c 2.635502,-1.28502 4.713248,-4.24989 5.805681,-8.28448 0.800997,-2.95826 0.806249,-9.61773 0.0099,-12.5557 -0.999506,-3.68749 -2.571607,-6.19135 -4.77521,-7.6054 -3.783248,-2.4277 -8.497372,-1.29656 -11.149706,2.67534 -3.671882,5.49869 -3.689842,16.69925 -0.03584,22.3527 1.12426,1.73945 2.178304,2.66385 4.007652,3.51473 1.489471,0.69279 4.618963,0.64323 6.137523,-0.0972 z m -76.2596306,2.11508 c 0,-0.0573 1.3989843,-1.08907 3.1088541,-2.29273 C 19.90748,153.77282 34.009827,139.66393 44.399835,124.89409 l 2.226579,-3.16517 0.08426,1.97455 c 0.182321,4.27255 -0.848982,10.54008 -2.479958,15.07143 -1.031267,2.86517 -3.114903,6.91415 -4.969725,9.65729 -2.116092,3.12955 -7.496698,8.51015 -10.626243,10.62624 -5.906492,3.99377 -12.584972,6.46557 -19.5025933,7.21819 -2.4976217,0.27173 -7.0880313,0.38524 -7.0880313,0.17526 z M 93.589956,149.86539 v -16.69075 l 5.906709,0.0881 5.906705,0.0882 1.55641,0.7965 c 2.98992,1.53011 4.26368,4.20406 4.02433,8.44814 -0.2506,4.44347 -2.11347,6.98052 -5.95093,8.10454 -0.61846,0.18116 -1.12447,0.38073 -1.12447,0.44349 0,0.0628 1.69664,3.46116 3.77031,7.55198 2.07367,4.09082 3.81,7.53296 3.8585,7.6492 0.0485,0.11625 -0.42938,0.21136 -1.06198,0.21136 h -1.15017 l -3.82916,-7.67292 -3.82917,-7.67291 h -3.112498 -3.112503 v 7.67291 7.67292 h -0.926042 -0.926041 z m 11.094334,-1.15645 c 3.31917,-1.18736 4.86036,-4.29277 4.20797,-8.47883 -0.34042,-2.18435 -1.17373,-3.3512 -3.05183,-4.27342 -1.46962,-0.72164 -1.72319,-0.75761 -5.96662,-0.84649 l -4.431771,-0.0928 v 6.99403 c 0,3.84673 0.0893,7.08801 0.198437,7.20286 0.348623,0.36686 7.763904,-0.0475 9.043814,-0.50533 z m 12.45358,1.17846 v -16.66875 h 5.13151 c 4.43436,0 5.37131,0.0741 6.89669,0.54521 2.43668,0.75261 4.14601,2.39477 4.78102,4.59316 1.11109,3.84652 -0.39347,8.57756 -3.08197,9.69117 -1.04685,0.43362 -0.95774,0.70221 0.36181,1.09064 0.74893,0.22046 1.61584,0.82046 2.59571,1.79656 1.76129,1.75449 2.23334,3.09183 2.19836,6.22805 -0.0429,3.8471 -1.61798,6.56295 -4.67288,8.05728 -2.29393,1.1221 -3.7878,1.33543 -9.35157,1.33543 h -4.85868 z m 10.03682,14.53645 c 3.38941,-0.54993 5.66313,-2.10915 6.4883,-4.4494 0.57731,-1.63731 0.52844,-4.90748 -0.0934,-6.25059 -1.376,-2.97203 -4.42855,-4.07391 -11.33849,-4.09287 l -2.97656,-0.008 v 7.54062 7.54063 l 3.10885,-0.002 c 1.70987,-10e-4 3.87496,-0.1263 4.8113,-0.27822 z m 1.62989,-17.3572 c 2.03004,-0.92298 3.01984,-2.19905 3.43103,-4.42333 0.57825,-3.12808 -0.61851,-5.70812 -3.19149,-6.88039 -1.00473,-0.45776 -1.86189,-0.55839 -5.4901,-0.64452 l -4.29948,-0.10206 v 6.40491 6.40492 l 4.16719,-0.10341 c 3.51777,-0.0873 4.35663,-0.18953 5.38285,-0.65612 z m 13.46871,2.82075 v -16.66875 h 1.05833 1.05833 v 16.66875 16.66875 h -1.05833 -1.05833 z m 16.66875,0.92604 v -15.74271 h -4.63021 -4.63021 v -0.92604 -0.92604 h 10.18646 10.18646 v 0.91979 0.9198 l -4.56406,0.0724 -4.56407,0.0724 -0.0682,15.67657 -0.0682,15.67656 h -0.92395 -0.92394 z m 11.20577,15.1474 c 0.0853,-0.32743 2.3313,-7.82836 4.99122,-16.66875 l 4.83622,-16.07344 1.05892,0.004 1.05891,0.004 4.89479,16.28839 c 2.69214,8.95862 4.93329,16.45781 4.98034,16.66488 0.0626,0.27565 -0.18966,0.37649 -0.94192,0.37649 h -1.02746 l -0.99172,-3.50573 c -0.54544,-1.92815 -1.29034,-4.4903 -1.65534,-5.69365 l -0.66362,-2.18793 -5.71719,0.0713 -5.7172,0.0713 -1.02662,3.43958 c -0.56465,1.89177 -1.32158,4.42185 -1.68208,5.6224 l -0.65545,2.18281 h -0.9484 c -0.85305,0 -0.93281,-0.0598 -0.7934,-0.59531 z m 14.27766,-18.65313 c -0.92693,-3.16508 -2.0334,-7.10811 -2.45883,-8.7623 -0.42543,-1.65419 -0.83109,-3.06519 -0.90146,-3.13556 -0.0704,-0.0704 -0.25968,0.39008 -0.42068,1.02324 -0.3404,1.33865 -3.79541,13.51851 -4.36066,15.37254 l -0.38316,1.25677 h 5.10505 5.10505 z m 12.35198,2.57969 v -16.66875 h 0.92605 0.92604 v 15.61042 15.61041 h 6.61458 6.61458 v 1.05834 1.05833 h -7.54062 -7.54063 z M 72.290997,123.17402 c -1.018645,-0.26977 -2.439458,-0.74459 -3.157362,-1.05515 -1.251847,-0.54156 -4.647846,-2.79927 -4.647846,-3.08997 0,-0.077 0.91548,-1.23189 2.034397,-2.56632 1.118921,-1.33442 2.053215,-2.45763 2.07621,-2.49601 0.02299,-0.0384 0.837969,0.46411 1.811054,1.11663 5.00499,3.35621 11.011672,2.82722 11.011672,-0.96976 0,-1.62687 -1.038301,-2.41718 -5.831599,-4.43875 -4.8471,-2.04426 -6.788933,-3.24144 -8.030398,-4.9509 -1.901687,-2.61857 -2.282277,-6.356721 -0.937514,-9.208268 1.23149,-2.611355 4.292712,-4.951394 7.420753,-5.672524 1.723417,-0.397312 5.467797,-0.335894 7.211521,0.118288 2.954607,0.769578 6.990066,3.174718 6.680451,3.981562 -0.210677,0.549015 -3.383841,4.350799 -3.631401,4.350799 -0.119682,0 -0.787284,-0.361356 -1.483561,-0.803014 -4.143529,-2.628293 -9.456018,-1.87986 -9.456018,1.332181 0,0.636543 0.195411,1.236796 0.523155,1.606996 0.560608,0.63324 3.065508,1.84868 7.541033,3.65909 3.171317,1.28284 4.932667,2.45386 6.086353,4.04648 2.587662,3.57216 1.868236,9.37429 -1.538436,12.40737 -1.423892,1.26774 -3.777826,2.42135 -5.824132,2.85427 -2.096371,0.44351 -5.73106,0.34037 -7.858332,-0.223 z m 31.910953,0.23345 c -1.8824,-0.36968 -4.410709,-1.70069 -5.722701,-3.01269 -0.709967,-0.70996 -1.599224,-2.0213 -2.121776,-3.12885 -1.508723,-3.19777 -1.709184,-5.17874 -1.709184,-16.89027 V 90.091564 h 3.688342 3.688339 l 0.0941,11.046356 c 0.10226,12.01138 0.19022,12.77702 1.65789,14.43159 2.02945,2.28789 5.98763,2.29657 8.12516,0.0178 1.59378,-1.69907 1.63893,-2.07113 1.73754,-14.31711 l 0.09,-11.178647 h 3.57598 3.57598 l -0.10954,11.443227 c -0.0949,9.91089 -0.17168,11.65581 -0.57354,13.03073 -1.46144,5.00005 -4.35138,7.89158 -8.82835,8.83323 -1.6114,0.33892 -5.46297,0.34361 -7.16821,0.009 z M 128.51496,106.6045 V 90.044518 l 7.87135,0.108087 c 8.75727,0.120251 9.92066,0.313463 12.60882,2.094026 4.99636,3.309452 5.53055,11.779969 1.02314,16.223709 -2.31802,2.28529 -5.12646,3.21205 -10.56003,3.48474 l -3.53495,0.1774 v 5.516 5.516 h -3.70417 -3.70416 z m 13.91943,-1.02859 c 2.25883,-0.6708 3.27848,-2.18115 3.27848,-4.85622 0,-2.028536 -0.64002,-3.172662 -2.23386,-3.993346 -1.09937,-0.566074 -1.60759,-0.64363 -4.33441,-0.661459 l -3.08902,-0.0202 -0.072,4.960945 -0.072,4.96093 h 2.60365 c 1.52558,0 3.14834,-0.16175 3.91913,-0.39065 z m 16.50765,1.05211 V 90.091564 h 10.31875 10.31875 v 3.175 3.175 h -6.61459 -6.61458 v 3.307292 3.307294 h 5.55625 5.55625 v 3.04271 3.0427 h -5.55625 -5.55625 v 3.83646 3.83646 h 6.87917 6.87916 v 3.175 3.175 h -10.58333 -10.58333 z m 27.78125,0 V 90.091564 h 7.1549 c 8.0654,0 10.16782,0.27204 12.76431,1.651623 1.81891,0.966436 2.93057,2.161644 3.86654,4.157137 0.61627,1.313901 0.68821,1.785347 0.68821,4.509986 0,2.72287 -0.072,3.19568 -0.68532,4.49792 -0.89994,1.91095 -1.89491,3.05498 -3.61253,4.15373 -0.77323,0.49463 -1.35662,0.98278 -1.29642,1.08478 0.42996,0.72846 6.77083,11.95009 7.0194,12.42243 l 0.31328,0.59531 -4.1765,-0.006 -4.1765,-0.006 -3.13117,-5.94711 -3.13117,-5.94711 h -2.09435 -2.09435 v 5.95313 5.95312 h -3.70417 -3.70416 z m 14.37116,-1.83854 c 1.98487,-0.70789 2.87967,-2.06864 2.87967,-4.37917 0,-3.265491 -1.45062,-4.246075 -6.57337,-4.443418 l -3.26913,-0.125937 v 4.665925 4.66593 l 2.97656,-0.0116 c 1.81049,-0.007 3.37212,-0.15269 3.98627,-0.37172 z"
         style="fill:#767676;fill-opacity:1;stroke-width:0.26458335" />
      <path
         id="path3799"
         d="m -34.932105,175.25854 c -5.727612,-0.95439 -9.54006,-4.44867 -10.938163,-10.02531 -0.568331,-2.26691 -0.432711,-7.52757 0.275402,-10.68281 0.731883,-3.26116 2.338012,-7.95075 3.85679,-11.2611 1.828201,-3.98477 4.058195,-8.0373 4.740851,-8.61546 l 0.624806,-0.52917 -0.422611,-1.85208 c -0.319367,-1.39963 -0.422991,-3.30643 -0.424168,-7.80521 -0.0017,-6.54914 0.289517,-8.55861 1.965317,-13.56053 4.854209,-14.488851 17.583218,-25.38525 32.6946778,-27.987592 4.7692097,-0.821304 11.5105469,-0.724646 15.9787272,0.229107 0.811297,0.173175 1.023445,0.09822 1.734465,-0.612797 1.002266,-1.002269 7.9356,-4.489434 12.025551,-6.04833 10.261946,-3.91137 18.381397,-3.990936 23.335532,-0.228674 5.727616,4.349656 6.705124,12.546158 2.834839,23.770406 -4.65351,13.49569 -15.161977,28.80653 -29.858875,43.50439 -21.0023121,21.0037 -44.880267,33.96182 -58.423141,31.70516 z m 10.026448,-4.96437 c 10.640009,-2.77612 23.6596893,-10.47528 37.003947,-21.88221 4.253537,-3.636 13.877216,-13.31917 17.416317,-17.52398 11.186398,-13.29055 18.661477,-26.25563 21.233164,-36.827666 0.481044,-1.977533 0.613143,-3.275239 0.619463,-6.085417 0.0099,-4.427296 -0.486142,-5.966292 -2.606897,-8.087047 -2.117005,-2.117006 -3.658883,-2.615288 -8.087047,-2.613461 -3.054835,0.0013 -3.993169,0.109781 -6.482292,0.749684 -3.934198,1.011403 -7.198889,2.247018 -11.773958,4.456191 l -3.836459,1.852518 2.248959,1.034455 c 5.963552,2.743056 9.263337,4.98808 13.361458,9.090524 3.010315,3.013492 5.186429,5.839509 6.879286,8.933799 0.971706,1.77613 0.976288,1.79897 0.56652,2.82309 -1.390491,3.47518 -8.131791,13.5422 -13.122074,19.59566 -12.137752,14.7237 -29.17977852,29.24006 -41.339211,35.21265 l -1.771732,0.87025 -1.403268,-0.75554 c -8.387468,-4.516 -15.384494,-12.57415 -19.188206,-22.09819 -0.245479,-0.61465 -0.367393,-0.45549 -1.722699,2.24896 -2.045877,4.08245 -3.812111,8.62508 -4.763185,12.25057 -0.71088,2.70988 -0.814672,3.55646 -0.833617,6.79943 -0.01933,3.30829 0.0453,3.87154 0.604724,5.27019 1.095349,2.73856 3.074753,4.44306 6.177495,5.31955 2.246843,0.63471 7.031266,0.35434 10.819312,-0.63401 z m 96.911746,-3.67486 c -2.613533,-0.93391 -4.946423,-3.13568 -6.424353,-6.06329 -0.306901,-0.60793 -0.878848,-2.15574 -1.27099,-3.43958 -0.660077,-2.16101 -0.714401,-2.69752 -0.731993,-7.22904 -0.02172,-5.59439 0.262591,-7.1415 1.971151,-10.72623 2.757979,-5.7865 8.544583,-8.1361 13.907799,-5.64713 5.057973,2.34731 8.152712,10.35696 7.288434,18.86355 -0.7073,6.96155 -3.229483,11.65962 -7.348029,13.68717 -2.212089,1.08901 -5.257054,1.31744 -7.392019,0.55455 z m 5.860171,-2.09408 c 1.669945,-0.56789 3.948571,-2.83167 4.958104,-4.9258 1.439434,-2.98591 1.85148,-5.17676 1.85148,-9.84432 0,-3.47917 -0.0991,-4.5966 -0.556284,-6.27245 -1.121251,-4.11003 -3.174232,-7.0176 -5.804572,-8.22081 -1.842524,-0.84283 -4.766466,-0.81621 -6.546257,0.0596 -4.081489,2.00845 -6.328113,7.13273 -6.328113,14.43366 0,7.73634 2.658943,13.30046 7.114963,14.88883 1.216903,0.43377 3.859789,0.37469 5.310679,-0.11871 z m -75.8221366,1.92339 c 0,-0.0591 1.4708161,-1.13203 3.2684772,-2.3842 14.1236674,-9.83785 29.1526084,-24.87467 38.9957654,-39.01621 l 2.318048,-3.33031 0.0791,1.98006 c 0.0435,1.08904 -0.04272,3.19059 -0.191609,4.67013 -2.032735,20.19953 -17.524004,35.80004 -37.6553642,37.92091 -2.457106,0.25885 -6.8144204,0.36092 -6.8144204,0.15962 z M 93.589956,149.86539 v -16.69075 l 5.886979,0.0895 c 5.299595,0.0806 6.005775,0.14458 7.077605,0.64161 2.88241,1.33664 4.20394,3.45949 4.43231,7.11989 0.31582,5.06217 -1.84403,8.56082 -5.95367,9.64408 -0.61846,0.16303 -1.12447,0.37385 -1.12447,0.46849 0,0.0947 1.73533,3.60969 3.85628,7.81119 l 3.85629,7.63911 -1.14249,-0.0823 -1.1425,-0.0823 -3.83827,-7.60207 -3.83827,-7.60207 -3.108857,-0.005 -3.108854,-0.005 v 7.67291 7.67292 h -0.926042 -0.926041 z m 9.338234,-0.77756 c 2.16556,-0.31312 3.52961,-0.96801 4.63245,-2.22408 1.03669,-1.18072 1.44989,-2.64767 1.46263,-5.19266 0.0131,-2.61743 -0.71495,-4.2221 -2.4006,-5.29111 -1.63063,-1.03411 -3.20452,-1.30925 -7.489487,-1.30925 h -3.691144 v 7.14375 7.14375 l 2.844271,-0.005 c 1.564349,-0.003 3.65319,-0.1222 4.64188,-0.26516 z m 14.20968,0.79957 v -16.66875 h 4.9715 c 3.54646,0 5.40451,0.11279 6.48217,0.39348 4.06027,1.05756 5.96743,3.82787 5.68328,8.25542 -0.17427,2.71558 -1.17581,4.65443 -3.0387,5.88257 l -1.3734,0.90542 1.48517,0.60362 c 1.85477,0.75384 3.31124,2.15345 4.06584,3.90711 0.45838,1.06529 0.58001,1.85541 0.57456,3.73259 -0.012,4.12768 -1.48735,6.77522 -4.64017,8.32666 -2.20085,1.083 -3.94947,1.32728 -9.51389,1.3291 l -4.69636,0.002 z m 12.03131,14.16525 c 3.54222,-1.25973 4.94559,-3.33491 4.93308,-7.29458 -0.0163,-5.15389 -3.22853,-7.12809 -11.60658,-7.13326 l -3.24114,-0.002 v 7.57169 7.57169 l 4.29948,-0.12283 c 3.1888,-0.0911 4.63935,-0.24369 5.61516,-0.59072 z m -0.093,-17.14462 c 2.56488,-1.25959 3.78758,-3.95837 3.1751,-7.00815 -0.42609,-2.12164 -1.13783,-3.09597 -2.89017,-3.95649 -1.42976,-0.70211 -1.72984,-0.74519 -5.80714,-0.8337 l -4.29948,-0.0933 v 6.40044 6.40043 l 4.16719,-0.0894 c 3.92133,-0.0841 4.25493,-0.13248 5.6545,-0.8198 z m 13.19706,2.97937 v -16.66875 h 1.05833 1.05833 v 16.66875 16.66875 h -1.05833 -1.05833 z m 16.66875,0.92604 v -15.74271 h -4.49792 -4.49792 v -0.92604 -0.92604 h 10.05417 10.05417 v 0.92604 0.92604 h -4.63021 -4.63021 v 15.74271 15.74271 h -0.92604 -0.92604 z m 11.15924,15.35802 c 0.047,-0.21157 2.28821,-7.71608 4.98034,-16.67667 l 4.89479,-16.29199 1.04778,0.0741 1.04779,0.0741 4.82463,16.00729 c 2.65354,8.80401 4.89298,16.27518 4.97653,16.60261 0.13757,0.53917 0.0579,0.59511 -0.84533,0.59315 l -0.99723,-0.002 -1.56583,-5.48795 c -0.86121,-3.01838 -1.68139,-5.6391 -1.82262,-5.82384 -0.1963,-0.25677 -1.56506,-0.31909 -5.81163,-0.26458 l -5.55485,0.0713 -1.12273,3.83646 c -2.48383,8.48736 -2.14385,7.67292 -3.20294,7.67292 -0.68012,0 -0.91097,-0.10464 -0.8487,-0.38469 z m 13.8085,-20.84812 c -1.21174,-4.25649 -2.33959,-8.27485 -2.50633,-8.92969 -0.38159,-1.49861 -0.2571,-1.80991 -2.5923,6.48229 -1.02451,3.63802 -2.09578,7.41826 -2.38059,8.40052 l -0.51784,1.78594 h 5.10011 5.10011 z m 12.86767,4.56406 v -16.66875 h 0.92605 0.92604 v 15.61042 15.61041 h 6.61458 6.61458 v 1.05834 1.05833 h -7.54062 -7.54063 z M 72.820164,123.31941 c -2.876685,-0.66464 -5.420712,-1.90985 -7.779779,-3.80793 l -0.636029,-0.51174 2.128337,-2.53134 2.12834,-2.53134 0.888939,0.66586 c 5.083443,3.80778 11.86915,3.5595 11.86915,-0.43427 0,-1.75508 -0.772763,-2.34573 -6.022385,-4.60311 -5.628729,-2.4204 -7.188514,-3.51738 -8.536013,-6.00328 -0.866302,-1.59818 -0.919726,-1.84275 -0.919726,-4.210279 0,-2.356737 0.0561,-2.617006 0.899345,-4.172041 1.418389,-2.615677 3.792453,-4.389052 7.038154,-5.257352 1.794984,-0.480199 5.391299,-0.451301 7.370144,0.05922 1.852239,0.477861 4.679211,1.887435 6.004816,2.994097 l 0.898433,0.750046 -1.103665,1.423951 c -2.379294,3.069777 -2.633284,3.306567 -3.161453,2.947366 -1.917166,-1.30384 -3.753424,-2.008482 -5.54029,-2.126019 -3.017613,-0.198493 -4.718373,0.685521 -5.031526,2.615268 -0.27645,1.703553 0.91998,2.609913 6.246381,4.731943 5.531612,2.20378 7.423798,3.52177 8.65468,6.02835 0.656778,1.33747 0.74373,1.80842 0.74373,4.02809 0,2.15471 -0.09825,2.723 -0.68821,3.98082 -1.253154,2.67175 -3.322849,4.45069 -6.476899,5.567 -2.030894,0.71879 -6.689122,0.9247 -8.974474,0.39669 z m 30.802476,-0.0935 c -3.43008,-0.92945 -5.875281,-2.92374 -7.234909,-5.90072 -1.522222,-3.33299 -1.561285,-3.70444 -1.674529,-15.92266 L 94.608369,90.091564 h 3.724126 3.724125 l 0.002,10.120316 c 0.002,10.59197 0.14197,12.46386 1.07991,14.40138 1.54556,3.1927 6.28903,3.66756 8.806,0.88157 1.55039,-1.71609 1.58002,-1.9658 1.68753,-14.22462 l 0.098,-11.178646 h 3.5562 3.55621 l -0.005,10.120316 c -0.003,5.56617 -0.12131,10.95375 -0.26317,11.97239 -0.7895,5.66906 -3.1984,9.11562 -7.47232,10.69112 -2.30428,0.84942 -6.99702,1.02294 -9.47867,0.35049 z m 24.89232,-16.61882 V 90.049639 l 7.73906,0.107109 c 6.25985,0.08664 8.04249,0.193418 9.32656,0.558667 3.329,0.946918 5.80476,3.123111 6.89397,6.059789 0.39067,1.053294 0.50873,2.021497 0.49167,4.031986 -0.0277,3.26168 -0.64357,5.0481 -2.42258,7.02678 -2.55865,2.84583 -4.87578,3.7118 -10.51931,3.93134 l -3.96875,0.15438 -0.0714,5.6224 -0.0714,5.62239 h -3.6989 -3.6989 z m 13.81626,-0.91672 c 1.26126,-0.35029 2.56063,-1.44595 3.02075,-2.5472 0.52141,-1.24789 0.45961,-3.742565 -0.12023,-4.853621 -0.82258,-1.576171 -2.47472,-2.198695 -6.1864,-2.331031 l -3.12205,-0.111313 v 5.059695 5.05969 l 2.71198,-0.002 c 1.49159,-8e-4 3.15476,-0.12445 3.69595,-0.27475 z m 16.61082,0.93768 V 90.091564 h 10.31875 10.31875 v 3.042708 3.042708 h -6.61459 -6.61458 v 3.439584 3.439586 h 5.55625 5.55625 v 3.04271 3.0427 h -5.55625 -5.55625 v 3.83646 3.83646 h 6.87917 6.87916 v 3.175 3.175 h -10.58333 -10.58333 z m 27.78125,0 V 90.091564 l 6.94531,0.002 c 3.81992,0.0011 7.69381,0.123464 8.60864,0.271922 4.04782,0.656871 6.62097,2.321188 8.03793,5.198925 0.83032,1.686338 0.88208,1.95478 0.88208,4.575449 0,3.3238 -0.47374,4.94239 -2.01856,6.89674 -0.57552,0.72809 -1.63499,1.64838 -2.35438,2.04511 -0.71939,0.39672 -1.30663,0.78085 -1.30499,0.85361 0.002,0.0728 1.65987,3.04932 3.68495,6.61458 l 3.68196,6.48229 -3.87558,0.0735 c -2.13157,0.0405 -4.01312,0.0208 -4.18122,-0.0437 -0.16811,-0.0645 -1.69988,-2.74674 -3.40394,-5.96051 l -3.09829,-5.84324 h -2.09779 -2.09779 v 5.95313 5.95312 h -3.70417 -3.70416 z m 14.45936,-1.85156 c 1.97369,-0.82466 2.82402,-2.13933 2.82402,-4.36615 0,-3.275437 -1.47588,-4.264826 -6.6339,-4.447197 l -3.24115,-0.114597 v 4.834914 4.83492 l 3.02582,-0.16216 c 1.80303,-0.0966 3.42969,-0.33091 4.02521,-0.57973 z"
         style="fill:#606060;fill-opacity:1;stroke-width:0.26458335" />
      <path
         id="path3797"
         d="m -35.129834,175.17982 c -5.723251,-1.11296 -9.177142,-4.27469 -10.636388,-9.73667 -0.588606,-2.20316 -0.573827,-7.26371 0.02959,-10.13179 0.594824,-2.82725 1.85299,-6.89217 2.987869,-9.65331 1.459604,-3.55118 4.884187,-10.12333 5.660366,-10.86286 l 0.705745,-0.67242 -0.372091,-1.84112 c -0.537611,-2.66013 -0.758975,-10.07233 -0.386858,-12.95363 0.902893,-6.99109 3.547476,-13.74777 7.662627,-19.577343 2.017072,-2.857406 6.758163,-7.546059 9.827265,-9.718572 4.527291,-3.204714 9.9841581,-5.581695 15.8066027,-6.885268 2.2426162,-0.502094 3.36430667,-0.577291 8.535064,-0.572179 4.3122161,0.0043 6.4767433,0.117213 7.8527853,0.409779 1.888863,0.401598 1.902402,0.400456 2.38125,-0.200942 1.01051,-1.269117 8.899411,-5.126827 14.274088,-6.980093 4.524378,-1.560072 7.831019,-2.187845 11.607501,-2.20371 5.0452,-0.0212 8.24796,1.101955 11.005394,3.859391 2.685367,2.685365 3.787862,5.879521 3.76663,10.912689 -0.04139,9.811433 -6.105367,23.356278 -16.938776,37.835418 -17.926632,23.95942 -45.3473868,44.72719 -64.101913,48.54911 -3.464085,0.70594 -7.340986,0.87579 -9.66675,0.42352 z m 8.160521,-4.40373 c 19.0757447,-3.85124 47.137519,-25.65941 64.435845,-50.07623 4.861943,-6.86269 9.37678,-15.04036 11.519135,-20.864464 2.754312,-7.487747 3.282249,-14.089089 1.424107,-17.807116 -2.969329,-5.941438 -11.457393,-6.513681 -23.531534,-1.586433 -5.644644,2.303482 -9.186547,4.347895 -7.554439,4.360479 0.173313,0.0014 1.636977,0.641283 3.252592,1.422103 7.137474,3.449519 12.870119,8.485846 17.215136,15.124091 2.531546,3.86766 2.499201,3.62593 0.888547,6.64037 -10.253945,19.19088 -33.5733729,42.42574 -52.902437,52.71059 l -2.227939,1.18547 -1.699533,-0.88117 c -4.60334,-2.38672 -10.533024,-7.70324 -13.87394,-12.4393 -1.515432,-2.14826 -3.436452,-5.68057 -5.036217,-9.26041 l -0.41383,-0.92605 -1.999309,4.10105 c -6.71911,13.78243 -6.934571,24.26314 -0.567122,27.58658 2.571455,1.34216 6.646645,1.60367 11.070938,0.71044 z m 98.995727,-4.233 c -3.763753,-1.32638 -6.3988,-4.66604 -7.860816,-9.96281 -0.487285,-1.76541 -0.569698,-2.7681 -0.571844,-6.95746 -0.0024,-4.59129 0.04264,-5.04245 0.725641,-7.27605 0.955644,-3.1252 2.176185,-5.26047 3.984578,-6.97077 3.811206,-3.60448 9.141708,-3.77024 13.282959,-0.41304 3.667278,2.97296 5.793017,10.22598 5.110712,17.43776 -0.323839,3.42292 -0.826105,5.33813 -2.101569,8.0136 -1.264587,2.65266 -3.279188,4.79618 -5.435529,5.78339 -2.100799,0.96178 -4.988348,1.10157 -7.134132,0.34538 z m 6.121667,-2.0831 c 4.479745,-2.03419 7.058306,-8.38025 6.619994,-16.29238 -0.359534,-6.49013 -2.527223,-10.94643 -6.202632,-12.75129 -2.155238,-1.05836 -4.83839,-1.05787 -6.995237,10e-4 -2.550932,1.25266 -4.455689,4.02677 -5.549135,8.08184 -0.717804,2.66198 -0.78649,8.96368 -0.130183,11.94422 0.953426,4.32991 3.594367,8.11498 6.340467,9.08736 1.623441,0.57485 4.572333,0.53945 5.916726,-0.071 z m -75.971666,1.90562 c 0.1455209,-0.14201 1.0980209,-0.83657 2.1166667,-1.54345 13.2896213,-9.22224 27.0130453,-22.40375 36.7289553,-35.27859 1.494591,-1.98053 3.295798,-4.4344 4.00268,-5.45305 0.706885,-1.01864 1.401437,-1.97114 1.543455,-2.11666 0.375735,-0.38501 0.02937,6.62175 -0.47085,9.525 -1.506813,8.74544 -5.44925,16.34239 -11.751381,22.64452 -6.302129,6.30214 -13.899079,10.24457 -22.644526,11.75139 -2.9032439,0.50022 -9.9100057,0.84658 -9.525,0.47084 z M 93.589956,149.8874 v -16.66875 h 5.103786 c 5.613858,0 7.361988,0.28105 9.163528,1.47326 2.20464,1.45896 3.368,4.49693 3.11886,8.14455 -0.27361,4.00591 -2.27406,6.68344 -5.78475,7.74269 l -1.49545,0.45121 3.97375,7.77962 3.97374,7.77962 -1.1133,-0.0829 -1.11331,-0.0829 -3.87853,-7.60075 -3.87853,-7.60075 -3.108857,-0.006 -3.108854,-0.006 v 7.67291 7.67292 h -0.926042 -0.926041 z m 9.666454,-0.81784 c 1.98749,-0.3674 3.26486,-1.02202 4.30423,-2.20581 1.04057,-1.18513 1.46286,-2.6602 1.48254,-5.17843 0.0125,-1.60189 -0.11108,-2.2393 -0.64125,-3.30691 -1.26981,-2.55704 -3.32114,-3.30768 -9.039163,-3.30768 h -3.920728 v 7.14375 7.14375 h 3.126406 c 1.719525,0 3.829105,-0.1299 4.687965,-0.28867 z m 13.88146,0.7951 v -16.69149 l 5.62975,0.0889 5.62975,0.0889 1.84473,0.92604 c 2.2688,1.13892 3.38794,2.50514 3.84141,4.68947 0.75405,3.63227 -0.39088,7.16418 -2.84739,8.78367 l -1.3734,0.90542 1.48253,0.60255 c 2.68855,1.09271 4.18768,3.07889 4.52839,5.9996 0.55026,4.71695 -1.06786,8.27817 -4.52383,9.9563 -2.18359,1.06029 -4.18113,1.33777 -9.64788,1.34016 l -4.56406,0.002 z m 11.1125,14.42875 c 3.92862,-0.9202 5.88884,-3.3166 5.89291,-7.20413 0.003,-2.56747 -0.54347,-3.96274 -2.08085,-5.316 -1.84597,-1.62489 -3.43607,-1.99738 -8.57456,-2.00862 l -4.36562,-0.01 -0.0706,7.1398 c -0.0388,3.9269 -0.0128,7.29041 0.0578,7.47448 0.19165,0.49942 6.92322,0.44347 9.14087,-0.076 z m 0.52917,-17.1147 c 2.56244,-1.15732 3.54437,-2.78398 3.55565,-5.89027 0.0106,-2.92815 -0.67524,-4.18219 -2.89419,-5.29167 -1.54446,-0.77223 -1.70767,-0.79614 -6.01927,-0.88219 l -4.43177,-0.0884 v 6.39898 6.39898 l 4.43177,-0.11357 c 3.27576,-0.0839 4.67332,-0.22266 5.35781,-0.53181 z m 13.49375,2.70869 v -16.66875 h 0.92604 0.92604 v 16.66875 16.66875 h -0.92604 -0.92604 z m 16.66875,0.92604 v -15.74271 h -4.49792 -4.49792 v -0.92604 -0.92604 h 10.05417 10.05417 v 0.92604 0.92604 h -4.63021 -4.63021 v 15.74271 15.74271 h -0.92604 -0.92604 z m 11.12428,15.54427 c 0.006,-0.10914 2.24323,-7.58031 4.97057,-16.6026 l 4.95878,-16.40417 h 1.02537 1.02537 l 4.98198,16.53646 c 2.74009,9.09505 4.98301,16.57341 4.98427,16.61858 10e-4,0.0452 -0.44045,0.0452 -0.98157,0 l -0.98387,-0.0821 -1.39672,-4.7625 c -0.76819,-2.61938 -1.52129,-5.21129 -1.67354,-5.75982 l -0.27683,-0.99731 -5.71561,0.0713 -5.71562,0.0713 -1.41759,4.7625 c -0.77967,2.61938 -1.54077,5.20899 -1.69133,5.75469 -0.24907,0.90271 -0.35635,0.99219 -1.1896,0.99219 -0.50371,0 -0.91054,-0.0893 -0.90406,-0.19844 z m 15.56987,-15.08125 c -1.10497,-3.79083 -4.14247,-14.5221 -4.30928,-15.22436 -0.22674,-0.95461 -0.57998,-0.72164 -0.81431,0.53706 -0.17434,0.93647 -4.19428,15.1714 -4.53552,16.06066 -0.14008,0.36504 0.43724,0.41258 5.01068,0.41258 h 5.16901 z m 11.14126,-1.38906 v -16.66875 h 0.92605 0.92604 v 15.74271 15.74271 h 6.61458 6.61458 v 0.92604 0.92604 h -7.54062 -7.54063 z M 72.820164,123.26934 c -2.053074,-0.42254 -6.136288,-2.33544 -7.485642,-3.50687 l -0.871056,-0.7562 2.018184,-2.41881 c 1.110004,-1.33035 2.134999,-2.41881 2.277774,-2.41881 0.142774,0 0.641646,0.29141 1.108604,0.64757 0.466958,0.35617 1.666132,1.02995 2.664828,1.4973 2.081297,0.97396 4.969801,1.31587 6.592435,0.78035 1.364662,-0.45038 2.293831,-1.65425 2.293831,-2.97198 0,-1.69575 -1.019288,-2.47487 -5.953125,-4.55043 -2.328333,-0.97949 -4.881213,-2.22799 -5.673068,-2.77445 -5.813923,-4.01222 -5.077823,-12.509607 1.369144,-15.805118 2.643167,-1.351114 6.340316,-1.794424 9.516422,-1.141075 1.725753,0.355 5.321298,2.080499 6.536883,3.137043 l 0.901465,0.783522 -1.09955,1.401236 c -0.604756,0.770681 -1.44059,1.808438 -1.857412,2.306126 l -0.757862,0.90489 -1.329981,-0.818347 c -1.887974,-1.161681 -3.525967,-1.65289 -5.51176,-1.65289 -1.909263,0 -2.939831,0.403886 -3.790709,1.485604 -1.553388,1.974811 -0.159364,3.538949 5.027355,5.640849 6.607966,2.67785 8.149537,3.71107 9.41188,6.30816 0.64548,1.32798 0.736643,1.82368 0.740775,4.02789 0.0041,2.18088 -0.08961,2.71559 -0.70794,4.04016 -2.267146,4.85664 -8.595685,7.25907 -15.421475,5.85428 z m 32.146876,0.23745 c -2.82878,-0.4909 -4.89105,-1.56066 -6.665284,-3.45745 -1.495989,-1.59933 -2.192734,-2.92656 -2.924776,-5.57137 -0.52234,-1.88718 -0.568878,-2.81106 -0.665305,-13.20776 l -0.10368,-11.178646 h 3.724315 3.72431 v 10.270156 c 0,13.00924 0.25003,14.50271 2.69898,16.12174 0.95992,0.6346 1.3602,0.7279 3.12317,0.7279 1.76328,0 2.16291,-0.0932 3.12185,-0.7279 1.24185,-0.82198 1.9657,-2.06246 2.40049,-4.11377 0.19114,-0.90178 0.29718,-5.12669 0.29718,-11.84011 V 90.091564 h 3.59202 3.59202 l -0.10368,11.178646 c -0.0964,10.3902 -0.14322,11.32148 -0.66429,13.2038 -1.41027,5.09444 -3.98116,7.73321 -8.59381,8.82074 -1.54311,0.36382 -5.02901,0.47661 -6.55351,0.21204 z m 23.54792,-16.90258 V 90.043936 l 7.73906,0.11802 c 5.94563,0.09067 8.06059,0.213171 9.12655,0.528618 4.46513,1.321357 6.80497,3.849066 7.50895,8.111853 0.79648,4.822863 -1.39508,9.406383 -5.48787,11.477553 -2.12883,1.07731 -3.2216,1.29527 -7.37732,1.47145 l -3.96875,0.16826 -0.0714,5.6224 -0.0714,5.62239 h -3.6989 -3.6989 z m 13.81626,-0.91387 c 1.28071,-0.35569 2.56246,-1.45034 3.04195,-2.59791 0.54009,-1.29262 0.48052,-3.843122 -0.11404,-4.883151 -0.28788,-0.503562 -1.00552,-1.102346 -1.78646,-1.490576 -1.10528,-0.549475 -1.78365,-0.665958 -4.42733,-0.760215 l -3.12205,-0.111313 v 5.059695 5.05969 l 2.71198,-0.002 c 1.49159,-8e-4 3.15476,-0.12445 3.69595,-0.27475 z m 16.61082,0.93768 V 90.091564 h 10.31875 10.31875 v 3.042708 3.042708 h -6.61459 -6.61458 v 3.439584 3.439586 h 5.55625 5.55625 v 3.04271 3.0427 h -5.55625 -5.55625 v 3.832 3.83199 l 6.81302,0.0706 6.81302,0.0706 0.0746,3.10886 0.0745,3.10885 h -10.59173 -10.59173 z m 27.78125,0 V 90.091564 l 6.94531,0.0092 c 9.63369,0.0128 12.46261,0.613275 15.04223,3.192892 4.03656,4.036564 3.28711,12.259954 -1.41017,15.473314 -0.68792,0.47059 -1.39794,0.90468 -1.57782,0.96464 -0.27098,0.0903 3.22011,6.60276 6.74361,12.57982 l 0.51097,0.86676 -4.18429,-0.073 -4.18429,-0.073 -3.09816,-5.82083 -3.09816,-5.82084 -2.14045,-0.0768 -2.14045,-0.0769 v 5.96383 5.96382 h -3.70417 -3.70416 v -16.53646 z m 14.48692,-1.85651 c 2.62543,-1.05135 3.65648,-4.14661 2.27265,-6.822637 -0.67316,-1.301755 -2.37104,-1.853559 -6.11009,-1.98576 l -3.24115,-0.114597 v 4.833754 4.83376 l 2.97656,-0.14691 c 1.87087,-0.0923 3.39464,-0.31433 4.10203,-0.59761 z"
         style="fill:#494949;fill-opacity:1;stroke-width:0.26458335" />
      <path
         id="path3795"
         d="m -34.422562,175.28207 c -8.311696,-1.15014 -12.797199,-7.72307 -11.682411,-17.11907 0.407912,-3.43809 1.559283,-7.82473 3.055629,-11.64172 1.546828,-3.94575 5.228994,-11.15168 6.053936,-11.84742 l 0.62743,-0.52917 -0.414865,-1.98438 c -0.294919,-1.41065 -0.421326,-3.59079 -0.437215,-7.54062 -0.01964,-4.88286 0.05285,-5.90735 0.598183,-8.45326 3.611721,-16.861523 16.025644,-29.300974 32.9499242,-33.017676 2.3143157,-0.508242 3.43737142,-0.585517 8.3619075,-0.575364 4.1165382,0.0085 6.2337283,0.126534 7.6613863,0.427173 l 1.972847,0.415445 0.672986,-0.706356 c 0.370144,-0.388496 2.469433,-1.62137 4.665086,-2.739721 14.888826,-7.583588 26.16133,-8.47831 32.092399,-2.54724 5.798553,5.798551 5.038262,16.944544 -2.133642,31.279559 -13.387972,26.75953 -45.6988302,56.64145 -69.829831,64.58044 -5.555648,1.82779 -10.464146,2.51824 -14.21375,1.99938 z m 9.214602,-4.83632 c 10.795672,-2.80626 24.31098037,-10.77065 37.30625,-21.98406 4.064042,-3.5068 12.276502,-11.66025 15.911346,-15.79701 12.174794,-13.85596 20.7105,-28.60758 23.009296,-39.76523 0.796417,-3.865564 0.638325,-8.113565 -0.38512,-10.348512 -0.944774,-2.063148 -2.490787,-3.616627 -4.505494,-4.527249 -1.39314,-0.629683 -2.042348,-0.746484 -4.661278,-0.838629 -3.648594,-0.128372 -6.734019,0.426209 -11.539136,2.074065 -3.781808,1.296925 -11.326196,4.882269 -11.087182,5.268999 0.09238,0.149475 0.309767,0.273484 0.483079,0.275576 0.699807,0.0084 6.028688,2.781156 8.384905,4.362813 5.570935,3.739599 9.958756,8.416425 13.243859,14.116167 l 1.121783,1.94633 -0.594444,1.22867 c -2.71566,5.61307 -9.246428,14.99656 -15.586805,22.39534 -3.310898,3.86359 -11.529132,12.13912 -15.657084,15.76624 -7.0793452,6.22043 -15.1231547,12.02148 -21.639043,15.60568 l -2.99611,1.64807 -0.97264,-0.46344 c -1.759405,-0.83831 -5.431502,-3.35264 -7.694425,-5.26846 -4.931596,-4.17516 -8.655772,-9.41192 -11.973826,-16.83704 l -0.413819,-0.92605 -1.649474,3.28804 c -3.486104,6.94914 -5.264803,12.69587 -5.495795,17.75618 -0.08254,1.80827 -0.01926,3.61245 0.155242,4.42614 0.810991,3.78153 2.920621,6.0409 6.652582,7.12479 1.901685,0.55232 7.503548,0.27315 10.583333,-0.52742 z m 97.706931,-3.74428 c -3.963276,-1.23862 -6.847131,-4.79346 -8.32811,-10.26582 -0.509188,-1.8815 -0.588746,-2.82144 -0.576651,-6.81283 0.01569,-5.17405 0.395718,-7.19009 1.98488,-10.52934 1.182478,-2.48471 3.782264,-5.0568 5.918157,-5.85511 2.263654,-0.84608 5.69917,-0.71448 7.876625,0.30171 2.920005,1.36272 5.314934,4.6611 6.595248,9.0832 0.540882,1.86817 0.609377,2.6698 0.609377,7.13183 0,4.43694 -0.07029,5.26964 -0.598807,7.0933 -1.518523,5.23973 -4.262009,8.56471 -8.036047,9.73932 -1.839537,0.57253 -3.842763,0.61438 -5.444672,0.11374 z m 5.927738,-2.43057 c 4.288448,-2.02545 6.676525,-7.98256 6.349402,-15.83871 -0.273495,-6.56819 -2.296189,-10.92164 -6.014733,-12.94553 -4.109593,-2.23672 -9.174041,-0.2792 -11.446,4.42413 -1.445807,2.99306 -1.855486,5.17403 -1.849178,9.84432 0.0062,4.61161 0.415629,6.84386 1.786715,9.7421 2.279613,4.8187 6.899532,6.79244 11.173794,4.77369 z m -75.9404589,2.11001 c -0.09638,-0.0964 0.4493233,-0.59394 1.2126727,-1.10569 10.2368032,-6.86275 22.2795832,-17.75137 31.5524592,-28.52849 3.18839,-3.70562 8.139303,-10.12144 10.262663,-13.29926 0.810924,-1.21363 0.989788,-1.3593 1.151528,-0.93781 0.261464,0.68136 -0.338622,7.99967 -0.856419,10.4444 -3.486473,16.46105 -16.303998,29.27414 -32.652531,32.64124 -3.4636734,0.71337 -10.2434545,1.21253 -10.6703729,0.78561 z M 93.589956,149.86503 v -16.69111 l 5.754687,0.0931 c 5.320007,0.0861 5.856757,0.13897 7.106017,0.70018 2.62582,1.17961 4.21635,3.56475 4.51583,6.7719 0.18089,1.93703 -0.24483,4.54721 -0.97511,5.97868 -0.93328,1.82937 -3.36966,3.59672 -5.63024,4.08417 l -0.73819,0.15918 3.99832,7.79751 3.99832,7.79751 h -1.05582 -1.05582 l -3.94672,-7.73906 -3.94672,-7.73907 h -3.02009 -3.020089 l -0.07014,7.73907 -0.07014,7.73906 h -0.922044 -0.922046 z m 11.573304,-1.2783 c 1.61349,-0.71512 3.02926,-2.16666 3.53637,-3.62569 0.19628,-0.56472 0.35947,-1.91974 0.36266,-3.01114 0.01,-3.30792 -1.02266,-5.1416 -3.53188,-6.27364 -0.73036,-0.3295 -2.05292,-0.46011 -5.52431,-0.54555 l -4.564061,-0.11234 v 7.19765 7.19766 l 4.167187,-0.10613 c 3.645834,-0.0929 4.340694,-0.18304 5.554034,-0.72082 z m 11.97461,1.27755 v -16.69187 l 5.49011,0.10223 c 4.87432,0.0908 5.65332,0.16695 6.94531,0.67921 2.9097,1.15366 4.29229,2.97122 4.64734,6.10944 0.38188,3.37536 -0.89869,6.50968 -3.21399,7.86653 -1.21489,0.71197 -1.23388,0.74207 -0.61584,0.97598 2.55417,0.9667 3.6143,1.78012 4.67778,3.58917 0.67843,1.15406 0.72242,1.42222 0.72242,4.40389 0,3.11157 -0.018,3.20827 -0.90318,4.84069 -1.42384,2.62592 -3.65498,4.04927 -7.13698,4.55302 -0.96218,0.1392 -3.74372,0.25546 -6.1812,0.25834 l -4.43177,0.005 z m 12.3849,14.11589 c 3.28448,-1.30955 4.65329,-3.39464 4.64871,-7.08131 -0.003,-2.36841 -0.44679,-3.61311 -1.75484,-4.92116 -1.73944,-1.73944 -4.22198,-2.34367 -9.65637,-2.35029 l -3.77031,-0.005 v 7.5668 7.56681 l 4.56406,-0.1081 c 3.86316,-0.0915 4.77978,-0.1941 5.96875,-0.66816 z m -1.43481,-16.58401 c 1.64042,-0.4937 2.942,-1.51689 3.666,-2.8819 0.8425,-1.58843 0.8385,-4.8705 -0.008,-6.46708 -1.19905,-2.26184 -3.41069,-3.03049 -8.85257,-3.07671 l -3.77126,-0.032 -0.0708,6.41615 -0.0709,6.41614 h 3.9314 c 2.62805,0 4.34402,-0.12418 5.17601,-0.37457 z m 14.18533,2.49124 v -16.66875 h 0.92604 0.92604 v 16.66875 16.66875 h -0.92604 -0.92604 z m 16.66875,0.92604 v -15.74271 h -4.49792 -4.49792 v -0.92604 -0.92604 h 10.05417 10.05417 v 0.92604 0.92604 h -4.63021 -4.63021 v 15.74271 15.74271 h -0.92604 -0.92604 z M 170.05571,166.49 c 5.3e-4,-0.0364 2.24177,-7.50755 4.98029,-16.6026 l 4.97912,-16.53646 h 1.00219 1.00219 l 4.82386,16.00729 c 2.65313,8.80401 4.91261,16.283 5.02107,16.61997 0.18526,0.57556 0.13654,0.60762 -0.8042,0.52917 l -1.0014,-0.0835 -1.26971,-4.36563 c -0.69834,-2.40109 -1.45283,-4.99301 -1.67665,-5.75982 l -0.40695,-1.3942 -5.72983,0.0713 -5.72983,0.0713 -1.70532,5.75469 -1.70531,5.75469 h -0.89035 c -0.48969,0 -0.88982,-0.0298 -0.88917,-0.0661 z m 16.05279,-13.79826 c -0.33822,-0.88139 -3.2191,-10.90517 -4.02725,-14.0125 -0.48677,-1.87162 -0.94331,-3.46121 -1.01453,-3.53243 -0.0712,-0.0712 -0.26069,0.38854 -0.42105,1.02169 -0.37278,1.47183 -4.52559,16.10865 -4.69754,16.55674 -0.10212,0.26613 0.9695,0.33716 5.08662,0.33716 4.36373,0 5.19275,-0.0606 5.07375,-0.37066 z m 10.66895,-2.80434 v -16.66875 h 0.92605 0.92604 v 15.74271 15.74271 h 6.61458 6.61458 v 0.92604 0.92604 h -7.54062 -7.54063 z M 73.084747,123.30296 c -2.930675,-0.64357 -5.462989,-1.81494 -7.592631,-3.51209 l -0.978045,-0.77942 1.72761,-2.09067 c 2.619798,-3.17036 2.202378,-2.99243 4.115575,-1.75434 3.119805,2.01891 6.78426,2.71996 9.188698,1.7579 1.300798,-0.52048 1.902291,-1.40423 1.921881,-2.82375 0.02228,-1.61338 -0.993431,-2.38273 -6.001838,-4.54617 -4.985937,-2.15373 -5.711801,-2.57838 -7.233472,-4.23181 -1.754145,-1.90603 -2.285865,-3.293 -2.288942,-5.970629 -0.0021,-1.89003 0.11063,-2.490511 0.706789,-3.762465 1.300623,-2.774986 4.403495,-5.064718 7.831513,-5.779186 4.181216,-0.871449 9.789959,0.578962 12.841949,3.320904 l 0.745334,0.669618 -1.780231,2.246398 c -0.979127,1.235518 -1.839886,2.246397 -1.912797,2.246397 -0.07291,0 -0.683853,-0.35376 -1.357648,-0.786134 -1.794452,-1.151496 -3.285953,-1.595116 -5.362962,-1.595116 -2.168038,0 -3.492809,0.526225 -4.053271,1.610039 -1.171088,2.264635 -0.04798,3.382764 5.817661,5.791854 6.614007,2.71645 8.382487,4.16222 9.27291,7.58079 0.72952,2.80081 0.322048,5.37871 -1.238718,7.83684 -2.441313,3.84495 -8.663061,5.82415 -14.369365,4.57104 z M 104.19,123.28227 c -2.37515,-0.51504 -4.303295,-1.56299 -5.813192,-3.15949 -1.55901,-1.64842 -2.259862,-2.96837 -2.997227,-5.64481 -0.51844,-1.88181 -0.566891,-2.84062 -0.667398,-13.20776 L 94.603807,90.091564 h 3.710887 3.710886 l 0.0817,11.310936 c 0.0806,11.15684 0.09,11.32892 0.6899,12.63056 0.33453,0.72579 0.85848,1.586 1.16435,1.91157 0.89272,0.95027 2.62254,1.47962 4.41207,1.35018 2.19295,-0.15862 3.55824,-1.09532 4.48829,-3.0793 l 0.70414,-1.50207 0.0793,-11.31094 0.0793,-11.310936 h 3.58095 3.58096 l -0.10838,11.178646 c -0.10044,10.36056 -0.14921,11.32685 -0.66638,13.2038 -1.08111,3.92359 -2.845,6.35837 -5.62804,7.76864 -2.72499,1.38086 -6.81511,1.79395 -10.29372,1.03962 z m 24.58954,-16.68136 V 90.037334 l 7.47448,0.121301 c 5.83552,0.0947 7.80904,0.216198 9.00028,0.554077 4.53577,1.286522 7.00827,3.921518 7.60096,8.100505 0.89135,6.284833 -2.55328,11.291713 -8.6585,12.585433 -0.9878,0.20932 -3.2449,0.38162 -5.03233,0.38415 l -3.24114,0.005 v 5.68854 5.68854 h -3.57188 -3.57187 z m 13.785,-0.93493 c 2.05372,-0.68638 3.21448,-2.45386 3.21448,-4.89468 0,-2.170218 -0.5853,-3.195599 -2.31954,-4.063606 -1.13201,-0.566582 -1.75816,-0.673427 -4.42734,-0.755472 l -3.10885,-0.09556 v 5.054948 5.05495 h 2.87093 c 1.57902,0 3.27566,-0.13526 3.77032,-0.30058 z m 16.3775,0.96204 V 90.091564 h 10.31875 10.31875 v 3.042708 3.042708 h -6.61459 -6.61458 v 3.439584 3.439586 h 5.55625 5.55625 v 3.04271 3.0427 h -5.55625 -5.55625 v 3.96875 3.96875 h 6.87917 6.87916 v 3.04271 3.04271 h -10.58333 -10.58333 z m 27.78125,-0.0286 V 90.034327 l 7.87135,0.125318 c 6.89251,0.109735 8.096,0.19184 9.67783,0.660243 3.21327,0.951497 5.61533,3.154759 6.56158,6.018551 0.45843,1.3874 0.45156,5.786681 -0.0112,7.143751 -0.66127,1.93939 -2.14735,3.86025 -3.76923,4.872 -0.83657,0.52186 -1.52642,1.02049 -1.533,1.10807 -0.01,0.13373 4.5562,8.2872 6.76779,12.08454 l 0.65885,1.13127 -4.14821,-0.0729 -4.14821,-0.0729 -3.10443,-5.82083 -3.10443,-5.82084 -2.1552,-0.0768 -2.1552,-0.0769 v 5.96383 5.96382 h -3.70417 -3.70417 v -16.56507 z m 14.73519,-1.91339 c 0.61003,-0.31166 1.44347,-1.00497 1.85208,-1.54069 0.64185,-0.8415 0.74231,-1.21084 0.73835,-2.71442 -0.009,-3.346279 -1.39702,-4.293985 -6.54385,-4.467412 l -3.37344,-0.113671 v 4.830103 4.83011 l 3.10886,-0.12868 c 2.48087,-0.10269 3.3329,-0.24315 4.218,-0.69534 z"
         style="fill:#333333;fill-opacity:1;stroke-width:0.26458335" />
    </g>
  </g>
</svg>
