<?xml version="1.0" encoding="UTF-8"?>
<svg id="logo" width="184.12" height="212.6" version="1.1" viewBox="0 0 184.12 212.6" xml:space="preserve" xmlns="http://www.w3.org/2000/svg" xmlns:cc="http://creativecommons.org/ns#" xmlns:dc="http://purl.org/dc/elements/1.1/" xmlns:rdf="http://www.w3.org/1999/02/22-rdf-syntax-ns#"><metadata><rdf:RDF><cc:Work rdf:about=""><dc:format>image/svg+xml</dc:format><dc:type rdf:resource="http://purl.org/dc/dcmitype/StillImage"/><dc:title/></cc:Work></rdf:RDF></metadata>
<style type="text/css">
	.st0{fill:#319CCB;}
	.st1{fill:#161E22;}
</style>
<path class="st0" d="m92.05 0-92.05 53.15v106.3l92.06 53.15 92.06-53.15v-106.3zm76.49 69.54-31.14 17.98v44.96l-38.94 22.48v17.98l54.51-31.47v-44.96l15.57-8.99v62.94l-76.49 44.16-76.49-44.16v-62.94l15.57 8.99v44.97l54.51 31.47v-17.98l-38.94-22.48v-44.97l-31.14-17.98v-7.4l6.41-3.7 31.14 17.98 38.94-22.48 38.94 22.48 15.57-8.99-54.51-31.47-38.93 22.48-15.57-8.99 54.51-31.47 76.49 44.16v7.4z"/>
</svg>
