<?xml version="1.0" encoding="UTF-8"?>
<svg width="184.02" height="200.19" version="1.1" viewBox="0 0 184.02 200.19" xml:space="preserve" xmlns="http://www.w3.org/2000/svg" xmlns:cc="http://creativecommons.org/ns#" xmlns:dc="http://purl.org/dc/elements/1.1/" xmlns:rdf="http://www.w3.org/1999/02/22-rdf-syntax-ns#"><metadata><rdf:RDF><cc:Work rdf:about=""><dc:format>image/svg+xml</dc:format><dc:type rdf:resource="http://purl.org/dc/dcmitype/StillImage"/><dc:title/></cc:Work></rdf:RDF></metadata><defs><clipPath id="clipPath907"><path d="m0 288h288v-288h-288z"/></clipPath><clipPath id="clipPath927"><path d="m130.44 114.75h26.09v-9.529h-26.09z"/></clipPath><clipPath id="clipPath971"><path d="m116.82 168.87h54.369v-19.676h-54.369z"/></clipPath></defs><g transform="matrix(1.3333 0 0 -1.3333 -99.984 328.84)"><g transform="translate(210.98,177.63)"><path d="m0 0c0-36.994-29.989-66.982-66.982-66.982s-66.982 29.988-66.982 66.982c0 36.992 29.989 66.982 66.982 66.982s66.982-29.99 66.982-66.982" fill="#6db1dc"/></g><g transform="translate(210.98,177.63)"><path d="m0 0c0-36.994-29.989-66.982-66.982-66.982s-66.982 29.988-66.982 66.982c0 36.992 29.989 66.982 66.982 66.982s66.982-29.99 66.982-66.982z" fill="none" stroke="#fff" stroke-linecap="round" stroke-miterlimit="10" stroke-width="4.052"/></g><g clip-path="url(#clipPath907)"><g transform="translate(125.9,98.429)"><path d="m0 0h35.179l-10.391 15.408h-14.398z" fill="#6db1dc"/></g><g transform="translate(143.49,113.84)"><path d="m0 0v-15.408" fill="none" stroke="#fff" stroke-linecap="round" stroke-linejoin="round" stroke-miterlimit="10" stroke-width="3.876"/></g><g transform="translate(136.29,113.84)"><path d="m0 0-10.39-15.408h35.179l-10.391 15.408" fill="none" stroke="#fff" stroke-linecap="round" stroke-linejoin="round" stroke-miterlimit="10" stroke-width="3.799"/></g><g clip-path="url(#clipPath927)" opacity=".5"><g transform="translate(156.53,108.61)"><path d="m0 0-4.139 6.139h-17.811l-4.14-6.139c4.043-2.154 8.441-3.391 13.046-3.391s9.002 1.237 13.044 3.391" fill="#463e65"/></g></g><g transform="translate(144,113.84)"><path d="m0 0c-15.967 0-28.91 18.217-28.91 35.771 0 6.93 2.016 13.344 5.441 18.565h6e-3c-3.224 4.629-5.12 10.25-5.12 16.318 0 15.787 12.797 28.584 28.583 28.584s28.584-12.797 28.584-28.584c0-6.066-1.896-11.689-5.12-16.314h4e-3c3.426-5.225 5.443-11.637 5.443-18.569 0-17.554-12.943-35.771-28.911-35.771" fill="#6db1dc"/></g><g transform="translate(108.78,178.84)"><path d="M 0,0 C 0.091,0 0.223,0.139 0.078,0.139 -0.013,0.139 -0.145,0 0,0" fill="#010101"/></g><g transform="translate(155.6,158.37)"><path d="m0 0c0.162-6.564 2.297-17.518 13.565-24.557" fill="none" stroke="#fff" stroke-linecap="round" stroke-linejoin="round" stroke-miterlimit="10" stroke-width="3.799"/></g><g transform="translate(125.13,163.16)"><path d="m0 0c-0.154-5.623-1.763-14.398-9.239-21.205" fill="none" stroke="#fff" stroke-linecap="round" stroke-linejoin="round" stroke-miterlimit="10" stroke-width="3.799"/></g><g transform="translate(162.41,162.64)"><path d="m0 0c0.239-5.635 1.972-14.082 9.222-20.682" fill="none" stroke="#fff" stroke-linecap="round" stroke-linejoin="round" stroke-miterlimit="10" stroke-width="3.799"/></g><g transform="translate(167.47,168.18)"><path d="m0 0c3.426-5.225 5.443-11.637 5.443-18.568 0-17.555-12.943-35.772-28.911-35.772-15.967 0-28.91 18.217-28.91 35.772 0 6.929 2.017 13.343 5.441 18.564" fill="none" stroke="#fff" stroke-linecap="round" stroke-linejoin="round" stroke-miterlimit="10" stroke-width="3.799"/></g><g transform="translate(132.67,158.24)"><path d="m0 0c-0.188-6.58-2.366-17.436-13.562-24.43" fill="none" stroke="#fff" stroke-linecap="round" stroke-linejoin="round" stroke-miterlimit="10" stroke-width="3.799"/></g><g clip-path="url(#clipPath971)" opacity=".5"><g transform="translate(118.75,168.87)"><path d="m0 0h-7e-3c-0.696-1.061-1.338-2.172-1.922-3.318 5.169-9.729 15.401-16.356 27.184-16.356s22.016 6.627 27.184 16.356c-0.585 1.15-1.226 2.257-1.923 3.32 0 0-8.874-14.254-25.261-13.207-16.386 1.047-25.255 13.205-25.255 13.205" fill="#463e65"/></g></g><g transform="translate(143.98,183.41)"><path d="m0 0c0.02 0.275 0.028 0.553 0.028 0.83 0 7.086-5.98 12.832-13.357 12.832h-1.766s-17.249-1.252-21.37 3.707" fill="none" stroke="#fff" stroke-linecap="round" stroke-linejoin="round" stroke-miterlimit="10" stroke-width="3.876"/></g><g transform="translate(144.03,183.41)"><path d="m0 0c-0.018 0.275-0.027 0.553-0.027 0.83 0 7.086 5.98 12.832 13.357 12.832h1.766s17.25-1.252 21.37 3.707" fill="none" stroke="#fff" stroke-linecap="round" stroke-linejoin="round" stroke-miterlimit="10" stroke-width="3.876"/></g><g transform="translate(172.58,184.49)"><path d="m0 0c0-15.787-12.798-28.584-28.584-28.584s-28.583 12.797-28.583 28.584 12.797 28.584 28.583 28.584 28.584-12.797 28.584-28.584z" fill="none" stroke="#fff" stroke-linecap="round" stroke-linejoin="round" stroke-miterlimit="10" stroke-width="3.799"/></g><g transform="translate(134.56,182.71)"><path d="m0 0c0-2.34-1.92-4.234-4.288-4.234-2.367 0-4.286 1.894-4.286 4.234 0 2.336 1.919 4.234 4.286 4.234 2.368 0 4.288-1.898 4.288-4.234z" fill="none" stroke="#fff" stroke-linecap="round" stroke-linejoin="round" stroke-miterlimit="10" stroke-width="3.799"/></g><g transform="translate(162.01,182.71)"><path d="m0 0c0-2.34-1.92-4.234-4.287-4.234-2.368 0-4.287 1.894-4.287 4.234 0 2.336 1.919 4.234 4.287 4.234 2.367 0 4.287-1.898 4.287-4.234z" fill="none" stroke="#fff" stroke-linecap="round" stroke-linejoin="round" stroke-miterlimit="10" stroke-width="3.799"/></g><g transform="translate(144.01,185.92)"><path d="m0 0v-12.141" fill="none" stroke="#fff" stroke-linecap="round" stroke-linejoin="round" stroke-miterlimit="10" stroke-width="3.799"/></g></g></g></svg>
