<svg xmlns:dc="http://purl.org/dc/elements/1.1/" xmlns:cc="http://creativecommons.org/ns#" xmlns:rdf="http://www.w3.org/1999/02/22-rdf-syntax-ns#" xmlns:svg="http://www.w3.org/2000/svg" xmlns="http://www.w3.org/2000/svg" width="622.72601" height="266.69141" viewBox="0 0 622.72601 266.69141" id="svg2" version="1.1"> <defs id="defs4"> <linearGradient id="pink-theme" y2="38.1041974%" x2="38.1041974%" y1="100%" x1="100%"> <stop id="stop7" offset="0%" stop-color="#FFC83E"></stop> <stop id="stop9" offset="100%" stop-color="#FA709A"></stop> </linearGradient> </defs> <metadata id="metadata7"> <rdf:rdf> <cc:work rdf:about=""> <dc:format>image/svg+xml</dc:format> <dc:type rdf:resource="http://purl.org/dc/dcmitype/StillImage"></dc:type> <dc:title></dc:title> </cc:work> </rdf:rdf> </metadata> <path d="M 444.21429,0 551.7514,136.92968 444.21429,266.6914 l 70.97461,0 L 622.72601,136.21289 515.1889,0 444.21429,0 Z m 114.14844,153.13867 c 0.80996,-0.0316 1.61242,0.039 2.4082,0.21094 l -0.32812,7.29687 c -1.21787,-0.29127 -2.44312,-0.2221 -3.67383,0.20703 -1.25114,0.41197 -2.28005,1.09675 -3.08594,2.05664 -0.60012,0.71482 -1.00546,1.48995 -1.21679,2.32227 -0.21131,0.83233 -0.24033,1.67566 -0.0898,2.5332 0.15055,0.85756 0.47925,1.7095 0.98828,2.55469 0.48866,0.82807 1.15094,1.59387 1.98828,2.29687 0.85778,0.72014 1.73852,1.24999 2.63868,1.5879 0.90015,0.33788 1.78559,0.50607 2.65625,0.50585 0.86738,-0.0378 1.69968,-0.24257 2.5,-0.61523 0.77988,-0.3898 1.48861,-0.96309 2.12304,-1.71875 1.45746,-1.73598 2.02804,-3.86871 1.71289,-6.39648 l -3.16406,3.76953 -4.28906,-3.60157 7.50976,-8.94531 11.58008,9.72266 -4.14062,4.93164 -1.80664,-1.51758 c 0.004,2.64953 -0.84366,4.9859 -2.54102,7.00781 -1.18311,1.40921 -2.56047,2.55063 -4.13086,3.42578 -1.59079,0.85802 -3.26742,1.36356 -5.0332,1.51758 -1.76578,0.15401 -3.58424,-0.0661 -5.45313,-0.66015 -1.86888,-0.59412 -3.69192,-1.63717 -5.46875,-3.12891 -1.53173,-1.28597 -2.71011,-2.76241 -3.53711,-4.43164 -0.84743,-1.68637 -1.33147,-3.43363 -1.45117,-5.24023 -0.14016,-1.82378 0.0799,-3.64028 0.66016,-5.45118 0.57696,-1.84846 1.52544,-3.56021 2.8457,-5.13281 0.82303,-0.98032 1.72402,-1.82514 2.70313,-2.53516 0.95867,-0.72715 1.96988,-1.288 3.0332,-1.68359 1.06002,-0.43315 2.14335,-0.70681 3.25,-0.82226 0.27156,-0.0332 0.54251,-0.0559 0.8125,-0.0664 z m -19.3125,23.53125 c 1.84746,-0.0854 3.65008,0.17341 5.40625,0.77734 1.77331,0.58351 3.35338,1.45904 4.74219,2.625 1.42962,1.20026 2.57684,2.63288 3.4414,4.29883 0.84414,1.64879 1.36632,3.39283 1.56446,5.23047 0.17773,1.82051 -9.9e-4,3.67194 -0.53711,5.55469 -0.51896,1.86232 -1.45598,3.59945 -2.81055,5.21289 -1.38888,1.65428 -2.96568,2.89063 -4.73047,3.70703 -1.76478,0.81639 -3.56162,1.27438 -5.38867,1.37695 -1.84746,0.0854 -3.65833,-0.16258 -5.43164,-0.74609 -1.77334,-0.58351 -3.36425,-1.46729 -4.77344,-2.65039 -1.42965,-1.20026 -2.57684,-2.63288 -3.4414,-4.29883 -0.86457,-1.66594 -1.3848,-3.40999 -1.5625,-5.23047 -0.18098,-1.85807 -0.002,-3.70949 0.5371,-5.55469 0.53613,-1.88275 1.48137,-3.6307 2.83594,-5.24414 1.38885,-1.65428 2.96568,-2.88868 4.73047,-3.70508 1.76479,-0.81641 3.57048,-1.26809 5.41797,-1.35351 z m -0.041,7.32812 c -0.87395,-0.0373 -1.73047,0.13189 -2.56836,0.50782 -0.84114,0.33834 -1.6134,0.92631 -2.3164,1.76367 -0.72014,0.85778 -1.18195,1.74097 -1.38672,2.64844 -0.18763,0.88703 -0.1772,1.76724 0.0312,2.63867 0.18808,0.85427 0.54351,1.67373 1.06641,2.46094 0.51966,0.74963 1.13673,1.42526 1.85156,2.02539 0.73523,0.61726 1.53646,1.11538 2.40234,1.49414 0.84542,0.36158 1.70421,0.56031 2.57813,0.59765 0.87395,0.0373 1.73111,-0.11282 2.57226,-0.45117 0.85833,-0.35877 1.64705,-0.96644 2.36719,-1.82422 0.72018,-0.85778 1.18393,-1.74096 1.38867,-2.64844 0.18434,-0.9246 0.17391,-1.80482 -0.0312,-2.63867 -0.20848,-0.87143 -0.58298,-1.69025 -1.12304,-2.45703 -0.52293,-0.7872 -1.1426,-1.47995 -1.85743,-2.08008 -0.73526,-0.61728 -1.52568,-1.10716 -2.37109,-1.46875 -0.86585,-0.37875 -1.73286,-0.5686 -2.60352,-0.56836 z m -28.07031,19.37696 16.54102,13.88867 8.2832,-9.86524 5.20703,4.37305 -13.29687,15.83789 -21.75,-18.25976 5.01562,-5.97461 z m -7.33984,12.34961 c 0.87065,-2.2e-4 1.73706,0.17057 2.59961,0.51171 0.85934,0.30363 1.63572,0.74711 2.33008,1.33008 1.02119,0.85733 1.77783,1.94588 2.27148,3.26563 0.49039,1.28216 0.53364,2.64218 0.12891,4.07812 1.41354,-0.93718 2.88121,-1.37903 4.40039,-1.32226 1.51591,0.0192 3.03855,0.673 4.57031,1.95898 0.98029,0.82301 1.65742,1.7375 2.0293,2.7461 0.3515,0.99145 0.45161,2.03493 0.30078,3.12695 -0.1508,1.09204 -0.51643,2.21087 -1.09766,3.35937 -0.58449,1.11095 -1.32321,2.19776 -2.21484,3.25977 l -8.97657,10.69141 -21.75,-18.25977 10.59571,-12.62305 c 0.63439,-0.75566 1.3717,-1.30227 2.21289,-1.64062 0.84115,-0.33837 1.70852,-0.49934 2.59961,-0.48242 z m -0.11133,8.09961 c -0.12798,-0.016 -0.25372,-0.0142 -0.375,0.006 -0.50554,0.063 -0.92031,0.28969 -1.24609,0.67773 l -3.57618,4.25781 3.33985,2.80274 3.41992,-4.07422 c 0.34292,-0.40847 0.54016,-0.86938 0.58984,-1.38477 0.0669,-0.53581 -0.2362,-1.08653 -0.91015,-1.65234 -0.44423,-0.37294 -0.85824,-0.58467 -1.24219,-0.63281 z m 8.41797,6.08203 c -0.60765,-0.0227 -1.10129,0.19131 -1.47852,0.64062 l -4.14062,4.93164 3.64648,3.06055 3.95899,-4.7168 c 0.41153,-0.49016 0.60231,-1.02736 0.57031,-1.61133 -0.0147,-0.60439 -0.30886,-1.14685 -0.88086,-1.62695 -0.531,-0.44581 -1.08853,-0.67218 -1.67578,-0.67773 z M 178.51096,1.7085322e-4 70.974236,129.76115 l 107.536724,136.9301 -70.97424,0 L -4.7650231e-6,130.47806 107.53672,1.7085322e-4 l 70.97424,0 0,0 z M 413.35285,237.57138 q 0,4.25773 -1.77405,7.36233 -1.77406,3.01589 -4.87865,4.96735 -3.1046,1.95146 -7.27362,2.92719 -4.08033,0.88703 -8.69287,0.88703 l -30.95725,0 0,-62.97893 36.54552,0 q 3.282,0 5.94308,1.41924 2.66108,1.41924 4.52384,3.72551 1.86276,2.21757 2.83849,5.14476 1.06443,2.83849 1.06443,5.85438 0,4.43514 -2.30627,8.51546 -2.21757,3.99162 -6.74141,6.03178 5.41087,1.59665 8.51546,5.58827 3.1933,3.90293 3.1933,10.55563 z m -17.56314,-3.54811 q 0,-2.30627 -1.24184,-3.81421 -1.24183,-1.59665 -3.19329,-1.59665 l -14.28114,0 0,10.55562 13.66022,0 q 2.12886,0 3.54811,-1.33054 1.50794,-1.33054 1.50794,-3.81422 z m -18.71627,-28.56227 0,9.66859 11.79746,0 q 1.77405,0 3.1933,-0.97573 1.50795,-0.97573 1.50795,-3.90292 0,-2.57238 -1.24184,-3.63681 -1.24184,-1.15313 -2.92719,-1.15313 l -12.32968,0 z m -25.25395,33.17481 0,15.07947 -44.88357,0 0,-62.97893 44.08525,0 0,15.07945 -26.78822,0 0,8.87028 22.8853,0 0,14.01503 -22.8853,0 0,9.9347 27.58654,0 z m -118.56366,-47.89946 15.87779,0 5.49957,19.42589 5.58827,-19.42589 15.87779,0 -10.37822,30.07021 4.52384,13.12801 13.57151,-43.19822 18.80498,0 -24.65936,62.97893 -14.36984,0 -8.95897,-22.5305 -8.87027,22.5305 -14.36984,0 -24.65936,-62.97893 18.71628,0 13.66021,43.19822 4.34644,-13.12801 -10.20082,-30.07021 z m 163.1749,-40.80325 0,15.07946 -44.88358,0 0,-62.97893 44.08525,0 0,15.07946 -26.78822,0 0,8.87028 22.8853,0 0,14.01502 -22.8853,0 0,9.93471 27.58655,0 z m -55.70531,-47.89947 0,62.97893 -17.29704,0 0,-24.65935 -21.11124,0 0,24.65935 -17.29703,0 0,-62.97893 17.29703,0 0,23.24011 21.11124,0 0,-23.24011 17.29704,0 z m -61.91866,15.07946 -18.09536,0 0,47.89947 -17.29703,0 0,-47.89947 -18.18405,0 0,-15.07946 53.57644,0 0,15.07946 z m 152.3601,-55.882702 0,15.079463 -44.88358,0 0,-62.978931 44.08525,0 0,15.079463 -26.78822,0 0,8.870269 22.8853,0 0,14.015032 -22.8853,0 0,9.934704 27.58655,0 z m -108.29217,15.079463 0,-62.978931 24.21584,0 q 7.80584,0 13.74892,2.483675 5.94308,2.483675 9.9347,6.741407 3.99162,4.257728 6.03179,10.023407 2.04016,5.676971 2.04016,12.152272 0,7.184923 -2.30627,13.039299 -2.21757,5.765679 -6.3866,9.934704 -4.16902,4.080328 -10.0234,6.386599 -5.85438,2.217568 -13.0393,2.217568 l -24.21584,0 z m 38.40827,-31.57817 q 0,-3.636812 -0.97573,-6.652705 -0.97573,-3.015892 -2.83849,-5.144759 -1.77405,-2.128861 -4.43513,-3.281999 -2.66108,-1.241835 -5.94308,-1.241835 l -6.91881,0 0,32.820005 6.91881,0 q 3.3707,0 6.03178,-1.24184 2.66108,-1.241835 4.43514,-3.459403 1.86276,-2.217568 2.74978,-5.233461 0.97573,-3.015892 0.97573,-6.564003 z m -77.76318,32.110383 q -7.18491,0 -13.0393,-2.749781 -5.85438,-2.749786 -10.0234,-7.184923 -4.16903,-4.523839 -6.4753,-10.289513 -2.30627,-5.765678 -2.30627,-11.886166 0,-6.209189 2.39497,-11.974868 2.39498,-5.765674 6.65271,-10.112108 4.34643,-4.435137 10.20081,-7.007514 5.94308,-2.661084 12.9506,-2.661084 7.18492,0 13.0393,2.749786 5.85438,2.749781 10.0234,7.27362 4.16903,4.523839 6.3866,10.289518 2.30627,5.765678 2.30627,11.797459 0,6.209194 -2.39498,11.974868 -2.39497,5.676977 -6.6527,10.112113 -4.25773,4.34643 -10.20081,7.007514 -5.85438,2.661079 -12.8619,2.661079 z M 269.23865,44.909086 q 0,3.193296 0.88703,6.209189 0.88702,2.92719 2.66108,5.233461 1.77405,2.30627 4.43513,3.725515 2.74979,1.419244 6.4753,1.419244 3.72551,0 6.4753,-1.419244 2.74978,-1.507947 4.43514,-3.814217 1.77405,-2.394973 2.57237,-5.410865 0.88703,-3.015893 0.88703,-6.120488 0,-3.193297 -0.88703,-6.120487 -0.88702,-3.015893 -2.74978,-5.233461 -1.77406,-2.306271 -4.52384,-3.636813 -2.66108,-1.419244 -6.29789,-1.419244 -3.72552,0 -6.4753,1.419244 -2.66108,1.419245 -4.43514,3.814217 -1.77405,2.306271 -2.66108,5.322163 -0.79832,2.927191 -0.79832,6.031786 z m -77.68002,-0.62092 q 0,-5.765674 2.12886,-11.353949 2.21757,-5.588269 6.3866,-10.023406 4.16902,-4.435137 10.1121,-7.184918 5.94309,-2.749786 13.57152,-2.749786 9.13638,0 15.78909,3.814217 6.7414,3.725514 10.0234,9.934704 l -13.2167,9.402491 q -0.88703,-2.30627 -2.39497,-3.814217 -1.41925,-1.507946 -3.1933,-2.394977 -1.77406,-0.887027 -3.72551,-1.241835 -1.86276,-0.354814 -3.63682,-0.354814 -3.72551,0 -6.4753,1.507947 -2.66108,1.419244 -4.43513,3.814216 -1.68536,2.306271 -2.57238,5.322164 -0.79833,2.92719 -0.79833,5.85438 0,3.281999 0.97573,6.297892 0.97573,3.015893 2.83849,5.322163 1.86276,2.306275 4.52384,3.725515 2.74978,1.330542 6.12049,1.330542 1.77405,0 3.63681,-0.354809 1.86275,-0.443515 3.54811,-1.330542 1.77405,-0.975728 3.10459,-2.394973 1.41924,-1.507946 2.21757,-3.636812 l 14.10373,8.426758 q -1.41924,3.459408 -4.34643,6.209189 -2.83849,2.749786 -6.564,4.612541 -3.63681,1.86276 -7.89454,2.838489 -4.16903,0.975728 -8.16066,0.975728 -7.00751,0 -12.86189,-2.749781 -5.76567,-2.838488 -10.02341,-7.451029 -4.16902,-4.612542 -6.47529,-10.466922 -2.30627,-5.854381 -2.30627,-11.886166 z" style="font-style:normal;font-variant:normal;font-weight:normal;font-stretch:normal;font-size:medium;line-height:125%;font-family:Blackout;-inkscape-font-specification:Blackout;text-align:start;letter-spacing:0px;word-spacing:0px;text-anchor:start;fill:#444444;fill-opacity:1;stroke:none;stroke-width:20.81347275;stroke-linecap:round;stroke-linejoin:round;stroke-miterlimit:4;stroke-dasharray:none;stroke-opacity:1" id="path4156"></path> <g id="text4216" style="font-style:normal;font-weight:normal;font-size:40px;line-height:125%;font-family:sans-serif;text-align:start;letter-spacing:0px;word-spacing:0px;text-anchor:start;fill:#000000;fill-opacity:1;stroke:none;stroke-width:1px;stroke-linecap:butt;stroke-linejoin:miter;stroke-opacity:1"></g> </svg>
