<?xml version="1.0" encoding="UTF-8" standalone="no"?>
<!-- Created with Inkscape (http://www.inkscape.org/) -->

<svg
   version="1.1"
   id="svg316"
   xml:space="preserve"
   width="296.89847"
   height="75.675369"
   viewBox="0 0 296.89847 75.675368"
   xmlns="http://www.w3.org/2000/svg"
   xmlns:svg="http://www.w3.org/2000/svg">
  <defs
   id="defs320">
    <clipPath
   clipPathUnits="userSpaceOnUse"
   id="clipPath330">
      <path
   d="M 0,288 H 288 V 0 H 0 Z"
   id="path328" />
    </clipPath>
    <clipPath
   clipPathUnits="userSpaceOnUse"
   id="clipPath354">
      <path
   d="M 0,288 H 288 V 0 H 0 Z"
   id="path352" />
    </clipPath>
    <clipPath
   clipPathUnits="userSpaceOnUse"
   id="clipPath414">
      <path
   d="m 157.893,146.911 h 6.015 v -0.5 h -6.015 z"
   id="path412" />
    </clipPath>
    <clipPath
   clipPathUnits="userSpaceOnUse"
   id="clipPath430">
      <path
   d="m 157.893,143.714 h 6.015 v -0.5 h -6.015 z"
   id="path428" />
    </clipPath>
    <clipPath
   clipPathUnits="userSpaceOnUse"
   id="clipPath446">
      <path
   d="m 157.893,140.51 h 6.015 v -0.5 h -6.015 z"
   id="path444" />
    </clipPath>
  </defs>
  
  <g
   id="g322"
   transform="matrix(1.3333333,0,0,-1.3333333,-6.5136344,381.1485)">
    <g
   id="g1027"
   transform="matrix(1.0401895,0,0,1.0401895,-29.01255,114.06923)"
   style="fill:#ffffff">
      <g
   aria-label="Ads"
   transform="scale(1.0757418,-0.92959109)"
   id="text342"
   style="font-weight:300;font-size:35.9998px;font-family:'Avenir LT Std 35 Light';-inkscape-font-specification:AvenirLTStd-Light;fill:#ffffff;stroke-width:0.929591">
        <path
   d="m 155.69478,-134.91206 h 2.48399 l 2.87999,-6.76797 h 13.49992 l 2.77199,6.76797 h 2.66398 l -10.72794,-25.48786 h -2.44799 z m 17.99991,-8.92795 h -11.69994 l 5.93997,-13.96793 z"
   id="path742"
   style="fill:#ffffff" />
        <path
   d="m 197.59856,-134.91206 h 2.15998 v -27.21585 h -2.15998 v 13.49992 h -0.072 c -1.332,-2.30399 -4.17598,-3.34798 -6.65997,-3.34798 -5.11197,0 -8.74795,3.67198 -8.74795,8.74795 0,5.07597 3.63598,8.74795 8.74795,8.74795 2.48399,0 5.32797,-1.04399 6.65997,-3.34798 h 0.072 z m 0.21599,-8.31596 c 0,3.74398 -3.02398,6.80396 -6.94796,6.80396 -4.06797,0 -6.58796,-3.05998 -6.58796,-6.80396 0,-3.74398 2.51999,-6.80396 6.58796,-6.80396 3.92398,0 6.94796,3.05998 6.94796,6.80396 z"
   id="path744"
   style="fill:#ffffff" />
        <path
   d="m 203.17853,-137.86405 c 1.29599,2.30399 3.85198,3.38398 6.69596,3.38398 3.16798,0 6.01197,-1.72799 6.01197,-5.14797 0,-6.73196 -9.86395,-3.23998 -9.86395,-7.73995 0,-1.728 1.97999,-2.66399 3.52798,-2.66399 1.94399,0 3.09598,0.828 3.92398,2.33999 l 1.94399,-1.152 c -1.07999,-2.12399 -3.16798,-3.13198 -5.86797,-3.13198 -2.73598,0 -5.68797,1.54799 -5.68797,4.78797 0,6.33597 9.86395,3.13199 9.86395,7.70396 0,1.90799 -1.94399,3.05998 -3.81598,3.05998 -1.94399,0 -3.92398,-0.97199 -4.82397,-2.73598 z"
   id="path746"
   style="fill:#ffffff" />
      </g>
      <g
   aria-label="Ethical"
   transform="matrix(1,0,0,-0.86413954,43.98786,125.4346)"
   id="text346"
   style="font-weight:bold;font-size:38.7265px;font-family:'Avenir LT Std 65 Medium';-inkscape-font-specification:AvenirLTStd-Black;fill:#ffffff">
        <path
   d="M 3.0206671,0 H 22.345191 V -5.5766162 H 9.0620013 V -11.153232 H 20.951037 v -5.576617 H 9.0620013 v -5.111898 H 21.648114 v -5.576616 H 3.0206671 Z"
   id="path21"
   style="fill:#ffffff" />
        <path
   d="m 39.268672,-18.82108 h -5.111898 v -5.576616 h -5.808975 v 5.576616 h -3.717744 v 4.64718 h 3.717744 v 8.9458223 c 0,4.1050092 2.98194,5.69279572 6.85459,5.69279572 1.355428,0 2.788309,-0.11617951 4.066283,-0.58089752 v -4.8408127 c -0.503444,0.464718 -1.742692,0.542171 -2.362316,0.542171 -2.517223,0 -2.749582,-1.471607 -2.749582,-3.4853851 V -14.1739 h 5.111898 z"
   id="path23"
   style="fill:#ffffff" />
        <path
   d="M 42.211886,-29.277235 V 0 h 5.808976 v -9.3718134 c 0,-2.4397696 0.464718,-4.8020866 3.485385,-4.8020866 2.98194,0 3.020667,2.788309 3.020667,4.9569927 V 0 h 5.808975 v -10.378702 c 0,-5.034446 -1.084342,-8.907096 -6.97077,-8.907096 -2.827035,0 -4.724633,1.54906 -5.266804,3.020667 h -0.07745 v -13.012104 z"
   id="path25"
   style="fill:#ffffff" />
        <path
   d="m 64.518351,0 h 5.808975 v -18.82108 h -5.808975 z m -0.464718,-24.746234 c 0,1.858872 1.510334,3.369205 3.369206,3.369205 1.858872,0 3.369205,-1.510333 3.369205,-3.369205 0,-1.858873 -1.510333,-3.369206 -3.369205,-3.369206 -1.858872,0 -3.369206,1.510333 -3.369206,3.369206 z"
   id="path27"
   style="fill:#ffffff" />
        <path
   d="m 91.08473,-16.768575 c -1.820145,-1.858872 -4.492274,-2.517223 -6.699685,-2.517223 -5.808975,0 -10.456155,3.87265 -10.456155,9.8752581 0,6.0026078 4.64718,9.87525792 10.456155,9.87525792 2.207411,0 4.87954,-0.65835053 6.699685,-2.51722262 l -3.833923,-4.0275561 c -0.658351,0.77453 -1.587787,1.4328805 -2.865762,1.4328805 -2.904487,0 -4.64718,-1.936325 -4.64718,-4.7633597 0,-2.8270341 1.742693,-4.7633601 4.64718,-4.7633601 1.200522,0 2.284864,0.619624 2.865762,1.432881 z"
   id="path29"
   style="fill:#ffffff" />
        <path
   d="m 104.98754,0 h 5.34426 v -9.5654459 c 0,-6.2736931 -1.82015,-9.7203521 -8.59729,-9.7203521 -3.059391,0 -6.157511,1.006889 -8.287469,3.020667 l 3.09812,3.175574 c 1.239248,-1.394155 2.827035,-2.246138 4.724629,-2.246138 2.01378,0 3.71775,1.316701 3.71775,3.369206 -4.84081,0 -12.74102,0.11618 -12.74102,6.6222318 0,3.7951971 3.175573,5.80897522 6.699685,5.80897522 2.362315,0 4.685905,-0.81325653 5.963885,-2.82703462 h 0.0774 z m 0,-8.2487448 v 1.239248 c 0,2.3235901 -2.12996,3.5241117 -4.41482,3.5241117 -1.277977,0 -2.749584,-0.6583506 -2.749584,-2.0525046 0,-2.5559491 3.950104,-2.7108551 5.731524,-2.7108551 z"
   id="path31"
   style="fill:#ffffff" />
        <path
   d="m 114.04955,0 h 5.80898 v -29.277235 h -5.80898 z"
   id="path33"
   style="fill:#ffffff" />
      </g>
    </g>
  </g>
</svg>
