<?xml version="1.0" encoding="UTF-8" standalone="no"?>
<!-- Created with Inkscape (http://www.inkscape.org/) -->

<svg
   xmlns:dc="http://purl.org/dc/elements/1.1/"
   xmlns:cc="http://creativecommons.org/ns#"
   xmlns:rdf="http://www.w3.org/1999/02/22-rdf-syntax-ns#"
   xmlns:svg="http://www.w3.org/2000/svg"
   xmlns="http://www.w3.org/2000/svg"
   xmlns:sodipodi="http://sodipodi.sourceforge.net/DTD/sodipodi-0.dtd"
   xmlns:inkscape="http://www.inkscape.org/namespaces/inkscape"
   version="1.1"
   id="svg2"
   xml:space="preserve"
   width="260.34225"
   height="71.679466"
   viewBox="0 0 260.34225 71.679466"
   sodipodi:docname="ethicalads-logo-white.svg"
   inkscape:version="0.92.5 (2060ec1f9f, 2020-04-08)"><metadata
     id="metadata8"><rdf:RDF><cc:Work
         rdf:about=""><dc:format>image/svg+xml</dc:format><dc:type
           rdf:resource="http://purl.org/dc/dcmitype/StillImage" /><dc:title></dc:title></cc:Work></rdf:RDF></metadata><defs
     id="defs6"><clipPath
       clipPathUnits="userSpaceOnUse"
       id="clipPath22"><path
         d="M 0,288 H 288 V 0 H 0 Z"
         id="path20"
         inkscape:connector-curvature="0" /></clipPath><clipPath
       clipPathUnits="userSpaceOnUse"
       id="clipPath74"><path
         d="m 157.893,146.911 h 6.015 v -0.5 h -6.015 z"
         id="path72"
         inkscape:connector-curvature="0" /></clipPath><clipPath
       clipPathUnits="userSpaceOnUse"
       id="clipPath90"><path
         d="m 157.893,143.714 h 6.015 v -0.5 h -6.015 z"
         id="path88"
         inkscape:connector-curvature="0" /></clipPath><clipPath
       clipPathUnits="userSpaceOnUse"
       id="clipPath106"><path
         d="m 157.893,140.51 h 6.015 v -0.5 h -6.015 z"
         id="path104"
         inkscape:connector-curvature="0" /></clipPath></defs><sodipodi:namedview
     pagecolor="#ffffff"
     bordercolor="#666666"
     borderopacity="1"
     objecttolerance="10"
     gridtolerance="10"
     guidetolerance="10"
     inkscape:pageopacity="0"
     inkscape:pageshadow="2"
     inkscape:window-width="3001"
     inkscape:window-height="1874"
     id="namedview4"
     showgrid="false"
     fit-margin-top="0"
     fit-margin-left="0"
     fit-margin-right="0"
     fit-margin-bottom="0"
     inkscape:zoom="5"
     inkscape:cx="129.31907"
     inkscape:cy="25.289604"
     inkscape:window-x="112"
     inkscape:window-y="54"
     inkscape:window-maximized="0"
     inkscape:current-layer="g10" /><g
     id="g10"
     inkscape:groupmode="layer"
     inkscape:label="EthicalAds_Stickers_Final_noCircle"
     transform="matrix(1.3333333,0,0,-1.3333333,-62.680932,238.38986)"><g
       id="g12"
       transform="translate(190.6841,146.7168)"
       style="fill:#ffffff"><path
         d="M 0,0 -6.39,-12.983 H 6.196 Z m -1.201,2.409 h 2.634 l 11.54,-23.691 h -2.865 l -2.983,6.291 H -7.397 l -3.098,-6.291 h -2.672 z"
         style="fill:#ffffff;fill-opacity:1;fill-rule:nonzero;stroke:none"
         id="path14"
         inkscape:connector-curvature="0" /></g><g
       id="g16"
       style="fill:#ffffff"><g
         id="g18"
         clip-path="url(#clipPath22)"
         style="fill:#ffffff"><g
           id="g24"
           transform="translate(215.3525,139.4893)"
           style="fill:#ffffff"><path
             d="m 0,0 c -4.376,0 -7.087,-2.845 -7.087,-6.324 0,-3.481 2.711,-6.325 7.087,-6.325 4.222,0 7.475,2.844 7.475,6.325 C 7.475,-2.845 4.222,0 0,0 M 7.242,-11.344 H 7.165 C 5.731,-13.486 2.672,-14.456 0,-14.456 c -5.499,0 -9.41,3.413 -9.41,8.132 0,4.718 3.911,8.131 9.41,8.131 2.672,0 5.731,-0.971 7.165,-3.113 H 7.242 V 11.243 H 9.565 V -14.055 H 7.242 Z"
             style="fill:#ffffff;fill-opacity:1;fill-rule:nonzero;stroke:none"
             id="path26"
             inkscape:connector-curvature="0" /></g><g
           id="g28"
           transform="translate(230.6494,129.3838)"
           style="fill:#ffffff"><path
             d="m 0,0 c 0.968,-1.641 3.098,-2.544 5.189,-2.544 2.014,0 4.105,1.071 4.105,2.845 0,4.25 -10.611,1.271 -10.611,7.16 0,3.012 3.176,4.451 6.119,4.451 2.905,0 5.151,-0.937 6.312,-2.911 L 9.023,7.93 c -0.891,1.406 -2.13,2.175 -4.221,2.175 -1.665,0 -3.795,-0.871 -3.795,-2.476 0,-4.184 10.611,-0.938 10.611,-7.194 0,-3.179 -3.059,-4.786 -6.468,-4.786 -3.059,0 -5.808,1.004 -7.203,3.146 z"
             style="fill:#ffffff;fill-opacity:1;fill-rule:nonzero;stroke:none"
             id="path30"
             inkscape:connector-curvature="0" /></g><g
           id="g32"
           transform="translate(47.0107,149.126)"
           style="fill:#ffffff"><path
             d="M 0,0 H 18.627 V -4.818 H 6.041 v -4.417 h 11.89 v -4.82 H 6.041 v -4.818 h 13.284 v -4.818 H 0 Z"
             style="fill:#ffffff;fill-opacity:1;fill-rule:nonzero;stroke:none"
             id="path34"
             inkscape:connector-curvature="0" /></g><g
           id="g36"
           transform="translate(83.2583,137.6816)"
           style="fill:#ffffff"><path
             d="m 0,0 h -5.112 v -5.421 c 0,-1.74 0.233,-3.012 2.75,-3.012 0.619,0 1.859,0.068 2.362,0.469 v -4.182 c -1.278,-0.402 -2.711,-0.502 -4.066,-0.502 -3.873,0 -6.855,1.372 -6.855,4.919 V 0 h -3.718 v 4.016 h 3.718 v 4.819 h 5.809 V 4.016 H 0 Z"
             style="fill:#ffffff;fill-opacity:1;fill-rule:nonzero;stroke:none"
             id="path38"
             inkscape:connector-curvature="0" /></g><g
           id="g40"
           transform="translate(92.0103,150.7324)"
           style="fill:#ffffff"><path
             d="m 0,0 v -11.243 h 0.078 c 0.542,1.271 2.439,2.609 5.266,2.609 5.887,0 6.971,-3.345 6.971,-7.696 v -8.968 H 6.506 v 7.964 c 0,1.874 -0.039,4.283 -3.021,4.283 C 0.464,-13.051 0,-15.092 0,-17.2 v -8.098 H -5.809 V 0 Z"
             style="fill:#ffffff;fill-opacity:1;fill-rule:nonzero;stroke:none"
             id="path42"
             inkscape:connector-curvature="0" /></g><path
           d="m 108.507,141.697 h 5.81 v -16.263 h -5.81 z m 2.905,8.032 c 1.859,0 3.369,-1.306 3.369,-2.912 0,-1.606 -1.51,-2.912 -3.369,-2.912 -1.859,0 -3.37,1.306 -3.37,2.912 0,1.606 1.511,2.912 3.37,2.912"
           style="fill:#ffffff;fill-opacity:1;fill-rule:nonzero;stroke:none"
           id="path44"
           inkscape:connector-curvature="0" /><g
           id="g46"
           transform="translate(131.2393,136.4443)"
           style="fill:#ffffff"><path
             d="m 0,0 c -0.581,0.702 -1.665,1.237 -2.866,1.237 -2.904,0 -4.647,-1.673 -4.647,-4.116 0,-2.442 1.743,-4.115 4.647,-4.115 1.278,0 2.208,0.568 2.866,1.238 l 3.834,-3.48 c -1.82,-1.606 -4.492,-2.175 -6.7,-2.175 -5.809,0 -10.456,3.347 -10.456,8.532 0,5.188 4.647,8.533 10.456,8.533 2.208,0 4.88,-0.568 6.7,-2.175 z"
             style="fill:#ffffff;fill-opacity:1;fill-rule:nonzero;stroke:none"
             id="path48"
             inkscape:connector-curvature="0" /></g><g
           id="g50"
           transform="translate(147.543,132.5615)"
           style="fill:#ffffff"><path
             d="m 0,0 c -1.781,0 -5.731,-0.133 -5.731,-2.342 0,-1.205 1.471,-1.773 2.749,-1.773 2.285,0 4.415,1.037 4.415,3.045 V 0 Z M 1.433,-5.086 H 1.355 c -1.277,-1.74 -3.601,-2.442 -5.963,-2.442 -3.525,0 -6.7,1.739 -6.7,5.018 0,5.623 7.9,5.723 12.741,5.723 0,1.773 -1.704,2.911 -3.718,2.911 -1.898,0 -3.485,-0.735 -4.724,-1.94 l -3.098,2.744 c 2.129,1.74 5.228,2.609 8.287,2.609 6.777,0 8.597,-2.978 8.597,-8.398 V -7.127 H 1.433 Z"
             style="fill:#ffffff;fill-opacity:1;fill-rule:nonzero;stroke:none"
             id="path52"
             inkscape:connector-curvature="0" /></g><path
           d="m 158.037,150.732 h 5.81 v -25.298 h -5.81 z"
           style="fill:#ffffff;fill-opacity:1;fill-rule:nonzero;stroke:none"
           id="path54"
           inkscape:connector-curvature="0" /><g
           id="g56"
           transform="translate(170.2324,136.3984)"
           style="fill:#ffffff"><path
             d="m 0,0 c 6.265,7.043 5.813,15.815 5.808,15.888 0,3.244 -2.64,5.883 -5.884,5.883 -1.839,0 -3.482,-0.848 -4.562,-2.173 v 7.997 c 1.853,-3.089 5.443,-5.357 8.85,-6.004 l 0.302,-0.011 0.059,0.011 c 3.407,0.647 6.996,2.915 8.849,6.003 V 23.032 C 13.427,22.875 13.663,8.924 0,0 M -1.707,20.135 C 0.026,19.449 1.182,17.782 1.183,15.861 1.188,15.77 1.636,7.187 -4.638,0.509 V 2.98 c 3.921,6.286 3.575,12.677 3.559,12.908 0,1.421 -0.52,2.779 -1.436,3.841 0.254,0.162 0.524,0.296 0.808,0.406 M -4.638,-2.362 v 1.004 c 7.669,7.195 7.166,16.888 7.142,17.26 0,1.78 -0.809,3.405 -2.115,4.5 C 2.683,20.165 4.485,18.241 4.487,15.846 4.494,15.729 5.086,4.412 -4.638,-2.362 m 0,18.25 c 0,1.133 0.431,2.158 1.117,2.957 0.706,-0.824 1.12,-1.866 1.121,-2.998 0.004,-0.055 0.262,-4.912 -2.238,-10.131 v 6.858 z m 3.488,20.489 c 1.006,0.079 1.824,-0.194 2.511,-0.835 1.792,-1.671 2.095,-5.275 2.146,-6.517 -0.162,-1.332 -0.833,-1.447 -1.03,-1.448 l -1.399,0.117 3.101,-4.458 2.298,3.306 0.677,1.036 H 5.89 c -0.207,0 -0.879,0.115 -1.04,1.449 0.05,1.242 0.35,4.838 2.144,6.514 0.687,0.641 1.505,0.915 2.512,0.836 1.009,-0.078 1.932,-0.048 2.773,0.05 0.725,-1.3 1.143,-2.794 1.143,-4.385 v -0.08 l -0.011,-0.001 c 0,-4.538 -4.669,-8.242 -9.018,-9.094 -4.35,0.852 -9.019,4.556 -9.019,9.094 h -0.012 v 0.081 c 0,1.575 0.408,3.057 1.12,4.347 0.732,-0.063 1.517,-0.077 2.368,-0.012 m 5.332,-9.241 c 0.202,-0.258 0.437,-0.452 0.687,-0.592 l -0.69,-0.993 -0.683,0.981 c 0.247,0.141 0.483,0.339 0.686,0.604 m 0.21,13.935 c 2.847,0 5.387,-1.328 7.043,-3.392 -0.571,-0.035 -1.179,-0.034 -1.826,0.016 -1.375,0.1 -2.558,-0.293 -3.517,-1.188 -0.94,-0.878 -1.534,-2.131 -1.913,-3.383 -0.38,1.252 -0.974,2.505 -1.914,3.383 -0.96,0.895 -2.143,1.289 -3.517,1.188 -0.494,-0.038 -0.958,-0.041 -1.408,-0.028 1.656,2.071 4.199,3.404 7.052,3.404 m 10.352,-9.029 c 0,1.66 -0.402,3.225 -1.1,4.617 3.027,0.682 4.649,2.204 4.741,2.293 l -0.919,0.95 c -0.02,-0.019 -1.587,-1.482 -4.522,-2.038 -1.865,2.732 -5.002,4.53 -8.552,4.53 -3.577,0 -6.734,-1.824 -8.594,-4.589 -3.181,0.495 -4.886,2.078 -4.908,2.097 l -0.458,-0.475 -0.461,-0.475 c 0.095,-0.093 1.845,-1.749 5.128,-2.379 C -5.572,35.202 -5.96,33.668 -5.96,32.042 V 15.888 12.574 11.828 h -6.735 V 10.506 H -5.96 V 8.64 h -6.735 V 7.317 H -5.96 V 5.452 h -6.735 V 4.13 h 6.735 v -8.903 l 0.974,0.603 c 20.062,8.694 19.736,27.059 19.73,27.223 z"
             style="fill:#ffffff;fill-opacity:1;fill-rule:nonzero;stroke:none"
             id="path58"
             inkscape:connector-curvature="0" /></g><g
           id="g60"
           transform="translate(169.5879,169.999)"
           style="fill:#ffffff"><path
             d="m 0,0 c 0.789,0 1.431,-0.642 1.431,-1.431 0,-0.789 -0.642,-1.43 -1.431,-1.43 -0.79,0 -1.432,0.641 -1.432,1.43 C -1.432,-0.642 -0.79,0 0,0 m 0,-4.184 c 1.518,0 2.753,1.236 2.753,2.753 0,1.518 -1.235,2.753 -2.753,2.753 -1.519,0 -2.754,-1.235 -2.754,-2.753 0,-1.517 1.235,-2.753 2.754,-2.753"
             style="fill:#ffffff;fill-opacity:1;fill-rule:nonzero;stroke:none"
             id="path62"
             inkscape:connector-curvature="0" /></g><g
           id="g64"
           transform="translate(179.6621,169.999)"
           style="fill:#ffffff"><path
             d="m 0,0 c 0.789,0 1.431,-0.642 1.431,-1.431 0,-0.789 -0.642,-1.43 -1.431,-1.43 -0.789,0 -1.431,0.641 -1.431,1.43 C -1.431,-0.642 -0.789,0 0,0 m 0,-4.184 c 1.518,0 2.753,1.236 2.753,2.753 0,1.518 -1.235,2.753 -2.753,2.753 -1.518,0 -2.753,-1.235 -2.753,-2.753 0,-1.517 1.235,-2.753 2.753,-2.753"
             style="fill:#ffffff;fill-opacity:1;fill-rule:nonzero;stroke:none"
             id="path66"
             inkscape:connector-curvature="0" /></g><g
           id="g68"
           style="fill:#ffffff"><g
             id="g70"
             style="fill:#ffffff" /><g
             id="g82"
             style="fill:#ffffff"><g
               clip-path="url(#clipPath74)"
               id="g80"
               style="fill:#ffffff"><g
                 transform="translate(163.9082,146.4111)"
                 id="g78"
                 style="fill:#ffffff"><path
                   d="M 0,0 -6.016,0.5 H 0 Z"
                   style="fill:#ffffff;fill-opacity:1;fill-rule:nonzero;stroke:none"
                   id="path76"
                   inkscape:connector-curvature="0" /></g></g></g></g><g
           id="g84"
           style="fill:#ffffff"><g
             id="g86"
             style="fill:#ffffff" /><g
             id="g98"
             style="fill:#ffffff"><g
               clip-path="url(#clipPath90)"
               id="g96"
               style="fill:#ffffff"><g
                 transform="translate(163.9082,143.2139)"
                 id="g94"
                 style="fill:#ffffff"><path
                   d="M 0,0 -6.016,0.5 H 0 Z"
                   style="fill:#ffffff;fill-opacity:1;fill-rule:nonzero;stroke:none"
                   id="path92"
                   inkscape:connector-curvature="0" /></g></g></g></g><g
           id="g100"
           style="fill:#ffffff"><g
             id="g102"
             style="fill:#ffffff" /><g
             id="g114"
             style="fill:#ffffff"><g
               clip-path="url(#clipPath106)"
               id="g112"
               style="fill:#ffffff"><g
                 transform="translate(163.9082,140.0098)"
                 id="g110"
                 style="fill:#ffffff"><path
                   d="M 0,0 -6.016,0.5 H 0 Z"
                   style="fill:#ffffff;fill-opacity:1;fill-rule:nonzero;stroke:none"
                   id="path108"
                   inkscape:connector-curvature="0" /></g></g></g></g></g></g></g></svg>