<svg fill="none" version="1.1" viewBox="0 0 199.88 52.587" xmlns="http://www.w3.org/2000/svg">
 <path d="m69.082 33.791h9.5893v4.6319h-15.062v-24.387h5.4723zm-53.082-25.791h36.644v36.587h-36.644zm3.2395 33.362h30.156v-30.141h-30.156zm6.4399-27.278 6.3739 11.3-7.0921 13.087h4.5678l4.727-8.9324 5.0336 8.9324h4.6519l-13.61-24.39zm93.679 6.2488c-1.167-0.027-2.319 0.2739-3.327 0.8692-0.884 0.5497-1.6506 1.2731-2.2538 2.1275h-0.0721c-0.7513-1.8448-2.5393-3.0028-4.7931-3.0028-3.0052 0-4.5438 1.6625-5.2951 2.787h-0.1081l-0.2495-2.3888h-4.4355v17.692h5.295v-10.306c-0.0173-0.4675 0.0551-0.9341 0.2134-1.3737 0.3215-0.9118 1.1449-1.9908 2.5393-1.9908 1.7189 0 2.5063 1.5197 2.5063 3.7627v9.9141h5.2952v-10.334c-3e-3 -0.4794 0.069-0.9563 0.213-1.4132 0.162-0.5468 0.492-1.0272 0.942-1.3719s0.997-0.5359 1.561-0.5459c1.755 0 2.579 1.4832 2.579 4.0544v9.6224h5.292v-10.431c0-5.2822-2.54-7.6711-5.902-7.6711zm41.056-6.9904h5.439v25.065h-4.688l-0.25-2.6047h-0.072c-1.109 1.9908-3.221 3.0029-5.475 3.0029-4.15 0-7.477-3.5803-7.477-9.0814-0.036-5.9692 3.648-9.4066 7.835-9.4066 2.148 0 3.828 0.7598 4.615 1.9907h0.073zm0 14.862c-7e-3 -0.3263-0.031-0.652-0.073-0.9756-0.321-1.4831-1.502-2.7141-3.182-2.7141-2.47 0-3.756 2.243-3.756 5.0301 0 3.0028 1.466 4.8841 3.72 4.8841 0.748 0.0085 1.475-0.2501 2.054-0.7305 0.578-0.4803 0.97-1.1515 1.107-1.8955 0.106-0.4137 0.154-0.8402 0.145-1.2673zm23.464-0.2553v10.458h-4.688l-0.322-1.7719h-0.108c-1.148 1.4102-2.945 2.1701-5.028 2.1701-3.555 0-5.673-2.6047-5.673-5.4282 0-4.5954 4.624-5.9448 10.304-5.9448v-1.0608c0-0.9391-0.502-2.2794-3.194-2.2794-1.419 0.0198-2.819 0.3397-4.108 0.9391l-1.743-3.1456c1.22-0.6869 3.624-1.5561 6.821-1.5561 5.851 0 7.739 3.4739 7.739 7.6346zm-5.335 2.7354c-3.005 0-5.442 0.2067-5.454 2.4314 0 1.4194 1.289 1.8023 2.509 1.8023 0.624 0.0047 1.232-0.1883 1.741-0.552 0.509-0.3636 0.893-0.8796 1.096-1.4752 0.074-0.3074 0.11-0.6228 0.108-0.9391zm-32.755-1.4467c0 6.3642-3.955 9.5433-7.91 9.5433-2.013 0-3.954-0.7598-5.19-2.8538h-0.051l-0.21 2.4557h-4.418v-25.025h5.362v9.4613h0.069c1.024-1.5196 2.824-2.4922 5.226-2.4922 4.132 0 7.167 3.5043 7.134 8.9264zm-5.476 0.2188c0-2.7353-1.202-4.9175-3.705-4.9175-1.448 0-2.789 1.1215-3.143 2.711-0.071 0.3325-0.107 0.6719-0.105 1.0121v2.6046c-3e-3 0.3283 0.032 0.6558 0.105 0.9757 0.155 0.7293 0.551 1.3837 1.122 1.8563 0.571 0.4725 1.283 0.7353 2.021 0.7453 2.308 0.0152 3.717-1.7932 3.717-4.9723zm-43.874-1.5196v10.458h-4.6699l-0.3216-1.7719h-0.1081c-1.151 1.4103-2.9451 2.1701-5.0276 2.1701-3.5581 0.0182-5.6616-2.5773-5.6616-5.4008 0-4.5954 4.6248-5.9448 10.304-5.9448v-1.076c0-0.9391-0.5019-2.2794-3.1944-2.2794-1.4182 0.0195-2.8166 0.3394-4.105 0.9391l-1.746-3.1456c1.2231-0.6869 3.6272-1.5561 6.8246-1.5561 5.839 0 7.7262 3.4739 7.7262 7.6346zm-5.3341 2.7353c-3.0051 0-5.4422 0.2067-5.4542 2.4315 0 1.4193 1.2892 1.8023 2.5092 1.8023 0.6233 0.0051 1.2323-0.1877 1.7414-0.5515 0.5089-0.3637 0.8921-0.8799 1.0955-1.4757 0.0736-0.3075 0.1099-0.6229 0.1081-0.9392z" fill="#000"/>
</svg>
