<svg version="1.1" viewBox="0 0 395.38 200.8" xmlns="http://www.w3.org/2000/svg">
 <title>logo-monochrome</title>
 <desc>Created with Sketch.</desc>
 <g id="logo-monochrome" transform="translate(-102.47 -70.57)" fill="none" fill-rule="evenodd">
  <g id="logo" transform="translate(46,50)">
   <g id="snyk-wordmark---black" transform="translate(210,59)" fill="#000" fill-rule="nonzero">
    <path id="snyk-wordmark" d="m217.75 95.937-15.282-26.509h-1.5372v26.509h-19.08v-66.002l19.08-29.755v61.584c3.7979-4.6436 16.593-22.271 16.593-22.271h23.556l-22.335 23.578 23.104 32.911h-24.098zm-60.63-56.264h18.899l-22.154 56.083c-6.6011 16.861-16.051 28.267-30.157 28.267-5.4255 0-9.992-1.3976-12.388-2.7501l7.5958-11.722c1.1303 0.13524 2.3059 0.18033 3.4814 0.18033 6.5106 0 11.394-6.3116 14.559-13.795l-23.239-56.264h21.386l8.3644 25.111c1.6277 4.7788 2.8032 13.886 2.8032 13.886s1.492-8.7912 3.0293-13.57zm-65.468 56.264v-32.144c0-7.3486-3.2553-10.82-9.4495-10.82-3.0293 0-6.1942 0.85658-8.3644 2.164v40.8h-19.08v-55.723l18.673-1.5328-0.45213 9.1068h0.63298c4.0239-5.41 10.851-9.5125 18.989-9.5125 9.766 0 18.221 6.0411 18.221 20.333v37.329zm-71.12 1.2172c-8.1383 0-14.739-1.3976-20.391-4.1026l1.7181-12.984c5.9681 2.9304 12.705 4.328 18.356 4.328 4.1144 0 6.8271-1.3976 6.8271-3.8772 0-7.1231-25.726-5.41-25.726-24.029 0-11.902 10.942-18.169 24.641-18.169 6.8271 0 13.88 1.8484 18.447 3.4714l-1.8537 12.759c-4.7926-1.8484-11.303-3.5616-16.729-3.5616-3.3458 0-6.0585 1.1722-6.0585 3.3362 0 7.033 26.269 5.6354 26.269 23.804 0 12.082-10.761 19.025-25.5 19.025z"/>
   </g>
   <g id="snyk-dog---monochrome" fill-rule="evenodd">
    <g id="dog" transform="translate(56.467 20.57)" fill-rule="nonzero">
     <path d="m94.271 14.055 0.85034 1.5725c1.8573 3.4232 18.112 33.756 18.111 44.715v0.6425l-7.3692 19.746c1.1981 10.763 3.5811 34.15 1.7821 38.719-1.1105 2.8261-5.3437 8.6401-8.9646 13.348l-1.9007 4e-3 1.9685 18.084-5.9345 4.2916-2.4304-22.363-2.1707 4e-3c-0.21429 0.72713-0.44859 1.4425-0.70486 2.1382-1.3595 3.6941-3.7619 6.4935-6.8347 8.1517-0.18002 8.8559-8.4231 13.634-16.19 13.634-7.831 0-16.143-4.774-16.326-13.627-3.079-1.6612-5.4845-4.4606-6.8455-8.1586-0.24486-0.66571-0.4699-1.3491-0.67678-2.0434l-2.1231 4e-3 -2.4394 22.497-5.9346-4.1442 1.9881-18.341-1.8671 4e-3c-3.6492-4.7291-7.9638-10.63-9.0849-13.487-1.7989-4.57 0.4911-27.953 1.691-38.719l-7.5028-19.743v-0.64337c0-10.959 16.385-41.292 18.245-44.715l0.1496-0.27093c1.7902-3.5132 3.1828-6.0926 3.6277-6.9129l4.6534-8.4435s4.2499 29.344 4.2468 29.37l2.2914 15.853 2.1428 17.559c2.6001-0.81948 6.2498-1.7674 10.166-2.1564 1.0669-2.6157 2.2253-4.3623 3.4994-4.3623 2.4424 0 4.8766 2.3511 7.0665 4.8631 2.4158 0.43809 4.6162 1.0246 6.3766 1.5661l2.4145-17.469 6.5282-45.224 4.5572 8.4435c0.38739 0.71534 1.489 2.7682 2.9433 5.6114z" fill="#fff"/>
     <path d="m64.457 200.8-64.457-45.479v-106.05s23.834-8.8483 64.545-8.8483c40.711 0 64.37 8.8483 64.37 8.8483v106.05z" fill="#fff"/>
     <g fill="#000">
      <path id="Shape" d="m110.8 48.516c1.1731 3.6825 1.9162 6.9633 1.9162 9.3932v0.99499l-6.9526 18.706c1.6181 14.766 3.1553 33.035 1.4486 37.415-0.8433 2.1666-3.3815 6.0774-7.5145 11.598l4.4853 41.448 20.658-14.805v-100.92s-4.9062-1.8583-14.041-3.8275z"/>
      <path d="m51.601 57.97c3.4625-1.0542 8.0906-2.1 12.816-2.1 4.7342 0 9.3923 1.0517 12.872 2.1058l2.1467-3.5233 1.4319-9.9999s-10.005-0.53083-16.339-0.53083c-5.8897 0-11.393 0.2025-16.502 0.54249l1.4336 9.9882z"/>
      <path d="m21.677 115.02c-1.7075-4.3791-0.16782-22.648 1.4503-37.414l-6.9526-18.706v-0.99499c0-2.4258 0.73893-5.7024 1.9104-9.3791-9.1352 1.965-14.038 3.8133-14.038 3.8133v100.92l20.741 14.863 4.4778-41.405c-4.1764-5.5749-6.7405-9.5207-7.5888-11.702z"/>
      <path d="m104.03 113.79c1.1163-2.8708 0.47508-16.441-1.7192-36.307l-0.0317-0.3025 7.0202-18.889v-0.3825c0-8.2416-10.672-30.295-16.981-42.024l-3.0776-5.7258-6.5201 45.468-3.9142 6.4308-0.97355-0.32583c-2.7261-0.91332-8.0915-2.4475-13.416-2.4475-5.0489 0-10.049 1.3267-13.357 2.4416l-0.97021 0.33-3.9167-6.4283-6.5209-45.468-3.0768 5.7258c-6.3081 11.729-16.982 33.78-16.982 42.024v0.3825l7.0236 18.889-0.0334 0.3025c-2.1942 19.866-2.8372 33.433-1.7192 36.304 1.0028 2.5758 4.9863 8.0857 8.3219 12.467l-4.806 44.454 4.7901 3.4291 4.4737-41.384c0.09602 3.2108 0.4993 9.914 2.1341 16.06l-3.0175 27.898 27.684 19.841 33.234-23.816 2.9131-2.0883-4.8126-44.492c3.3239-4.3658 7.254-9.8107 8.2501-12.366zm-11.692-85.784c5.3854 10.938 11.036 23.925 11.424 29.346l-3.0183 8.1207c-7.2549-10.182-9.5334-26.729-9.7263-28.241zm-8.7285 60.582c6.5193 0 1.6423 5.5249 1.0712 6.1491h-12.331c1.123-1.4008 5.3662-6.1491 11.26-6.1491zm-3.516 11.396c-0.09518 0.68499-0.68048 1.1792-1.3526 1.1883 0.19872 0.89999 0.93264 1.6233 1.8995 1.76 1.2457 0.17583 2.398-0.69333 2.57-1.9383 0.12858-0.91332-0.30893-1.7716-1.0445-2.2325h3.9142v0.19333c0 2.8375-2.3036 5.1391-5.1466 5.1391-2.843 0-5.1466-2.3008-5.1466-5.1391v-0.19333h3.9702c-0.02171 0.01417-0.03924 0.035-0.06262 0.04917 0.29724 0.29833 0.46173 0.72166 0.3991 1.1733zm-12.609 59.988c0.75479 0.49583 1.548 0.89582 2.3763 1.21-1.3034 1.4833-3.096 2.2325-5.4146 2.2325-2.3187 0-4.1104-0.75083-5.4138-2.2366 0.8291-0.31417 1.6248-0.71583 2.3796-1.2142 1.0587 0.87416 2.2418 0.88999 3.035 0.88999 0.79654 0 1.9788-6e-3 3.0375-0.88165zm-20.366-59.988c-0.09518 0.68499-0.67965 1.1792-1.3509 1.1883 0.19955 0.89999 0.93097 1.6233 1.8987 1.76 1.2449 0.17583 2.3946-0.69333 2.5708-1.9383 0.12524-0.91332-0.3106-1.7716-1.0437-2.2325h3.9142v0.19333c0 2.8375-2.3061 5.1391-5.1491 5.1391-2.8405 0-5.1483-2.3008-5.1483-5.1391v-0.19333h3.9718c-0.02171 0.01417-0.04175 0.035-0.06262 0.04917 0.29975 0.29833 0.46423 0.72166 0.3991 1.1733zm-2.9031-5.2466c-0.57444-0.62499-5.4497-6.1491 1.0712-6.1491 5.8939 0 10.133 4.7483 11.259 6.1491zm-19.003-37.385c0.38909-5.4216 6.0375-18.407 11.424-29.346l1.4353 10.004c-0.54522 3.7408-3.0501 18.409-9.7647 27.66zm19.605 93.298c-2.8906-7.9174-2.924-18.996-2.924-19.465l0.0025-0.75749-0.47342-0.58999c-4.2783-5.3024-11.465-14.752-12.547-17.529l-0.03757-0.11083c-0.96186-3.3375 0.76899-23.269 2.084-35.049l0.05511-0.50749-1.4511-3.9033 0.55106-0.57999c3.6905-3.86 6.8307-9.4182 9.3339-16.512l1.7384-4.9258 0.9151 6.3774 6.2688 10.289 1.7075-0.72999c0.06847-0.02917 7.254-3.1066 14.376-3.1066h0.02922v3.4133h-0.03089c-6.3089 0-12.96 2.7983-13.028 2.8283l-4.4327 1.905-6.187-10.156c-2.0966 4.8166-4.5421 8.8291-7.3033 11.981l1.0011 2.695-0.14528 1.3117c-1.8711 16.745-2.7019 31.413-2.2168 33.647 0.67297 1.55 4.0612 6.3058 7.7759 11.162l5.7995-1.6916 9.0909-10.362 1.4278 26.852c-0.08683 0.11666-2.1817 3.0541-2.1817 4.7324 0 1.825 2.6827 4.2016 5.3261 6.1066 0.03757-0.0742 0.05845-0.16 0.09936-0.23 0.93681-1.655 2.1408-1.9558 2.6927-0.68333 0.30977 0.71833 0.21375 2.865 0.21375 2.865l0.03757 0.0217-0.0042 2.545c-0.09351 0.21249-2.3395 5.2341-7.8685 5.2341-2.1391-2e-3 -7.3617-0.68999-9.6954-7.0774zm19.701 18.711c-4.0963 0-10.078-1.9941-10.676-7.3949 0.22376 0.0117 0.44169 0.0275 0.66963 0.0275 0.46507 0 0.92178-0.0275 1.3727-0.0742 1.8269 3.5308 5.17 4.6524 8.5607 4.6524 3.3874 0 6.7188-1.1342 8.5432-4.655 0.45505 0.0475 0.92095 0.0758 1.3935 0.0758 0.22711 0 0.44586-0.0158 0.66712-0.0275-0.58947 5.4016-6.49 7.3958-10.53 7.3958zm22.953-39.524-0.47509 0.58999 0.0017 0.75749c0 0.46833-0.0334 11.549-2.9248 19.465-2.3328 6.3874-7.5563 7.0766-9.6912 7.0766-5.5173 0-7.7817-5.1174-7.8802-5.3316v-2.4416l0.04342-0.0275s-0.09769-2.1466 0.21124-2.865c0.55274-1.2725 1.7592-0.97166 2.6944 0.68332 0.03924 0.07 0.06262 0.15667 0.09769 0.23 2.6476-1.905 5.3286-4.2816 5.3286-6.1066 0-1.6766-2.0899-4.6074-2.18-4.7308l1.4278-26.854 9.0884 10.362 9.3113 2.7183c-1.7876 2.3591-3.5903 4.6616-5.0531 6.4749z"/>
     </g>
    </g>
   </g>
  </g>
 </g>
</svg>
