<svg width="805" height="293" xmlns="http://www.w3.org/2000/svg"><g fill="none"><path d="M798.767 99.02c-16.742-9.367-23.518-12.955-33.484-12.955-9.168 0-13.553 4.783-13.553 11.959 0 21.924 52.619 15.945 52.619 66.77 0 27.902-15.348 44.645-41.457 44.645-15.945 0-23.52-6.775-35.078-14.549v-31.291c16.742 13.752 23.518 18.934 36.273 18.934 9.766 0 13.553-5.182 13.553-13.752 0-23.918-52.219-14.949-52.219-67.766 0-25.313 10.563-42.055 37.471-42.055 12.955 0 21.127 3.389 35.875 11.559V99.02zm-426.525 21.525h11.959c8.171 0 16.144-4.385 16.144-16.742 0-11.16-5.78-16.742-16.742-16.742h-11.161v33.484h-.2zm19.931-59.992c23.918 0 34.48 20.131 34.48 42.055 0 15.945-6.576 27.904-19.931 35.479-3.787 1.594-5.581 1.992-8.371 2.789l40.261 65.773H410.31l-38.068-59.594v59.594h-25.711V60.553h45.642zm107.429 34.68l-13.554 57.004h28.9l-15.346-57.004zm61.388 111.416h-27.704l-9.567-29.1h-45.642l-8.57 29.1h-27.306L485.65 60.553h26.907l48.433 146.096zm8.57-146.096h25.711v146.096H569.56zm144.699 146.096h-21.326l-53.812-93.877v93.877h-25.712V60.553h23.319l51.82 89.092V60.553h25.711zm-428.717-26.908h-9.368V145.46h13.553c10.364 0 17.938 5.582 17.938 16.344-.199 12.755-5.978 17.937-22.123 17.937m24.316-53.614c9.966-5.98 16.145-16.742 16.145-29.1 0-6.578-1.196-13.553-4.385-19.732-9.367 8.371-19.731 17.34-22.92 20.131.398 1.594.797 3.389.797 5.182 0 7.773-4.186 15.945-14.749 15.945h-8.371V83.674l30.694-20.131c-4.385-1.795-9.567-2.99-15.945-2.99h-40.261v146.096h42.852c34.281 0 41.457-26.109 41.457-42.852-.4-17.14-8.572-32.089-25.314-37.67" fill="#136BA2"/><path d="M346.332 43.413c-1.595-.996-20.33 10.764-32.089 18.936l-4.385 2.988-30.096 20.33v22.521c6.378-4.385 11.759-8.57 15.347-12.357l22.522-19.332s11.36-10.166 17.141-16.145l2.192-1.992c1.594-1.396 2.791-2.592 2.791-3.986v-.199c0-.8 7.175-10.366 6.577-10.764m-205.29 114.005c-.398-7.773-1.993-17.738 8.172-23.119 3.986-2.193 6.179-.799 7.574.598 2.59 2.59-3.389 14.947-15.746 22.521m-85.903 88.893c-6.976-5.58-10.165-10.363-15.347-22.721-8.57-20.729 3.388-27.307 24.914-39.465-2.592 22.125-4.385 67.368-9.567 62.186m172.802-107.627l18.336-12.557v-22.523l-16.543 10.764s-14.749 9.566-19.731 12.955l.797-5.979c2.591-19.135 4.983-38.27 4.983-50.824 0-6.18-.598-10.764-1.993-13.156-.997-1.793-2.392-2.789-4.186-3.188-2.392-.398-5.182.398-7.972 2.391-8.371 5.781-12.557 22.922-12.557 52.021 0 9.367.398 20.129 1.395 32.088-.997.797-5.78 5.182-5.78 5.182l-8.371 7.375-.399.398c-7.773 6.777-12.756 10.764-14.55 11.361-2.392.996-4.385 1.195-6.178.996 10.563-7.773 19.134-24.516 19.134-34.48 0-1.195-.199-2.193-.399-3.189-1.793-6.775-5.182-11.76-9.965-14.35-4.584-2.393-10.364-2.592-16.742-.199l-2.591.996c-11.56 5.182-47.038 25.113-58 31.291 1.395-15.545 7.773-86.301 9.367-123.771 1.196-24.117 0-9.168 0-13.951 0-17.54-22.123 0-34.281 12.158-5.182 5.182-21.127 19.73-15.347 30.893 6.178 11.959 12.756 7.973 16.343 28.502 5.979 36.273 1.395 73.346 1.395 75.738-1.993.996-17.141 8.172-17.141 8.172C20.855 175.956.924 185.124.924 200.271c0 2.393.399 4.783 1.595 7.574 21.725 56.803 51.223 87.299 62.982 84.309 16.941-4.584 17.539-26.707 18.735-60.391.598-16.742 1.196-35.877 3.787-57.203 1.395-.797 29.896-22.123 35.079-25.512-2.591 5.182-2.591 10.166-2.591 12.756 0 6.777.997 12.158 2.392 14.949 2.192 4.783 4.385 8.371 9.567 10.762 6.577 3.189 12.357 3.986 23.718-.398 5.182-1.992 13.752-7.973 23.519-16.145 1.993 3.389 10.364 17.738 10.364 17.738l7.773 13.156c3.388 6.178 8.969 7.971 15.147 4.783 4.584-2.393 7.773-4.385 8.571-7.375.199-.598.199-1.195.199-1.793 0-1.994-.997-3.986-1.794-5.383-8.77-15.744-9.368-29.299-9.368-39.861v-1.994c1.397-.399 17.342-11.559 17.342-11.559" fill="#FA930D"/></g></svg>
